<?xml version="1.0" encoding="UTF-8" standalone="no"?>
<!DOCTYPE svg PUBLIC "-//W3C//DTD SVG 1.1//EN"
"http://www.w3.org/Graphics/SVG/1.1/DTD/svg11.dtd">
<svg viewBox="0 0 935 1210" version="1.1" xmlns="http://www.w3.org/2000/svg" xmlns:xlink="http://www.w3.org/1999/xlink">
<defs>
<style type="text/css"><![CDATA[
.g0_71{
fill: #FFFFFF;
}
]]></style>
</defs>
<path fill-rule="evenodd" d="M138,234.5H797.5V110H138V234.5Z" class="g0_71"/>
<path fill-rule="evenodd" d="M138,259.4H797.5V234.5H138v24.9Z" class="g0_71"/>
<path fill-rule="evenodd" d="M138,334.1H797.5V259.4H138v74.7Z" class="g0_71"/>
<path fill-rule="evenodd" d="M138,359H797.5V334.1H138V359Z" class="g0_71"/>
<path fill-rule="evenodd" d="M138,433.7H797.5V359H138v74.7Z" class="g0_71"/>
<path fill-rule="evenodd" d="M137.5,483.5h660V433.7h-660v49.8Z" class="g0_71"/>
<path fill-rule="evenodd" d="M137.5,533.3h660V483.5h-660v49.8Z" class="g0_71"/>
<path fill-rule="evenodd" d="M137.5,633h660V533.3h-660V633Z" class="g0_71"/>
<path fill-rule="evenodd" d="M137.5,657.9h660V633h-660v24.9Z" class="g0_71"/>
<path fill-rule="evenodd" d="M137.5,757.5h660V657.9h-660v99.6Z" class="g0_71"/>
<path fill-rule="evenodd" d="M137.5,807.3h660V757.5h-660v49.8Z" class="g0_71"/>
<path fill-rule="evenodd" d="M137.5,1006.5h660V807.3h-660v199.2Z" class="g0_71"/>
<path fill-rule="evenodd" d="M137.5,1031.4h660v-24.9h-660v24.9Z" class="g0_71"/>
<path fill-rule="evenodd" d="M137.5,1106.1h660v-74.7h-660v74.7Z" class="g0_71"/>
<path fill-rule="evenodd" d="M137.5,1131h660v-24.9h-660V1131Z" class="g0_71"/>
</svg>