<?xml version="1.0" encoding="UTF-8" standalone="no"?>
<!DOCTYPE svg PUBLIC "-//W3C//DTD SVG 1.1//EN"
"http://www.w3.org/Graphics/SVG/1.1/DTD/svg11.dtd">
<svg viewBox="0 0 935 1210" version="1.1" xmlns="http://www.w3.org/2000/svg" xmlns:xlink="http://www.w3.org/1999/xlink">
<defs>
<style type="text/css"><![CDATA[
.g0_72{
fill: #FFFFFF;
}
]]></style>
</defs>
<path fill-rule="evenodd" d="M137.5,134.9h660V110h-660v24.9Z" class="g0_72"/>
<path fill-rule="evenodd" d="M137.5,184.7h660V134.9h-660v49.8Z" class="g0_72"/>
<path fill-rule="evenodd" d="M137.5,234.5h660V184.7h-660v49.8Z" class="g0_72"/>
<path fill-rule="evenodd" d="M137.5,259.4h660V234.5h-660v24.9Z" class="g0_72"/>
<path fill-rule="evenodd" d="M137.5,309.2h660V259.4h-660v49.8Z" class="g0_72"/>
<path fill-rule="evenodd" d="M137.5,334.1h660V309.2h-660v24.9Z" class="g0_72"/>
<path fill-rule="evenodd" d="M137.5,408.8h660V334.1h-660v74.7Z" class="g0_72"/>
<path fill-rule="evenodd" d="M137.5,434.2h660V408.8h-660v25.4Z" class="g0_72"/>
<path fill-rule="evenodd" d="M137.5,459.4h660V434.2h-660v25.2Z" class="g0_72"/>
<path fill-rule="evenodd" d="M137.5,484.8h660V459.4h-660v25.4Z" class="g0_72"/>
<path fill-rule="evenodd" d="M137.5,510h660V484.8h-660V510Z" class="g0_72"/>
<path fill-rule="evenodd" d="M137.5,535.3h660V510h-660v25.3Z" class="g0_72"/>
<path fill-rule="evenodd" d="M137.5,560.5h660V535.3h-660v25.2Z" class="g0_72"/>
<path fill-rule="evenodd" d="M137.5,585.9h660V560.5h-660v25.4Z" class="g0_72"/>
<path fill-rule="evenodd" d="M137.5,635.7h660V585.9h-660v49.8Z" class="g0_72"/>
<path fill-rule="evenodd" d="M137.5,685.5h660V635.7h-660v49.8Z" class="g0_72"/>
<path fill-rule="evenodd" d="M137.5,710.4h660V685.5h-660v24.9Z" class="g0_72"/>
<path fill-rule="evenodd" d="M137.5,760.2h660V710.4h-660v49.8Z" class="g0_72"/>
<path fill-rule="evenodd" d="M137.5,785.1h660V760.2h-660v24.9Z" class="g0_72"/>
<path fill-rule="evenodd" d="M137.5,934.5h660V785.1h-660V934.5Z" class="g0_72"/>
<path fill-rule="evenodd" d="M137.5,1059.1h660V934.5h-660v124.6Z" class="g0_72"/>
<path fill-rule="evenodd" d="M137.5,1133.8h660v-74.7h-660v74.7Z" class="g0_72"/>
</svg>