<?xml version="1.0" encoding="UTF-8" standalone="no"?>
<!DOCTYPE svg PUBLIC "-//W3C//DTD SVG 1.1//EN"
"http://www.w3.org/Graphics/SVG/1.1/DTD/svg11.dtd">
<svg viewBox="0 0 935 1210" version="1.1" xmlns="http://www.w3.org/2000/svg" xmlns:xlink="http://www.w3.org/1999/xlink">
<defs>
<style type="text/css"><![CDATA[
.g0_136{
fill: #FFFFFF;
}
]]></style>
</defs>
<path fill-rule="evenodd" d="M137.5,159.8h660V110h-660v49.8Z" class="g0_136"/>
<path fill-rule="evenodd" d="M137.5,184.7h660V159.8h-660v24.9Z" class="g0_136"/>
<path fill-rule="evenodd" d="M137.5,209.6h660V184.7h-660v24.9Z" class="g0_136"/>
<path fill-rule="evenodd" d="M137.5,284.3h660V209.6h-660v74.7Z" class="g0_136"/>
<path fill-rule="evenodd" d="M137.5,309.2h660V284.3h-660v24.9Z" class="g0_136"/>
<path fill-rule="evenodd" d="M137.5,359h660V309.2h-660V359Z" class="g0_136"/>
<path fill-rule="evenodd" d="M137.5,383.9h660V359h-660v24.9Z" class="g0_136"/>
<path fill-rule="evenodd" d="M137.5,458.6h660V383.9h-660v74.7Z" class="g0_136"/>
<path fill-rule="evenodd" d="M137.5,483.5h660V458.6h-660v24.9Z" class="g0_136"/>
<path fill-rule="evenodd" d="M137.5,583.2h660V483.5h-660v99.7Z" class="g0_136"/>
<path fill-rule="evenodd" d="M137.5,608.1h660V583.2h-660v24.9Z" class="g0_136"/>
<path fill-rule="evenodd" d="M137.5,657.9h660V608.1h-660v49.8Z" class="g0_136"/>
<path fill-rule="evenodd" d="M137.5,682.8h660V657.9h-660v24.9Z" class="g0_136"/>
<path fill-rule="evenodd" d="M137.5,782.4h660V682.8h-660v99.6Z" class="g0_136"/>
<path fill-rule="evenodd" d="M137.5,807.7h660V782.4h-660v25.3Z" class="g0_136"/>
<path fill-rule="evenodd" d="M137.5,832.6h660V807.7h-660v24.9Z" class="g0_136"/>
<path fill-rule="evenodd" d="M137.5,882.4h660V832.6h-660v49.8Z" class="g0_136"/>
<path fill-rule="evenodd" d="M137.5,957.2h660V882.4h-660v74.8Z" class="g0_136"/>
<path fill-rule="evenodd" d="M137.5,982.8h660V957.2h-660v25.6Z" class="g0_136"/>
<path fill-rule="evenodd" d="M137.5,1032.6h660V982.8h-660v49.8Z" class="g0_136"/>
<path fill-rule="evenodd" d="M137.5,1057.5h660v-24.9h-660v24.9Z" class="g0_136"/>
<path fill-rule="evenodd" d="M137.5,1082.7h660v-25.2h-660v25.2Z" class="g0_136"/>
<path fill-rule="evenodd" d="M137.5,1133.3h660v-50.6h-660v50.6Z" class="g0_136"/>
</svg>