<?xml version="1.0" encoding="UTF-8" standalone="no"?>
<!DOCTYPE svg PUBLIC "-//W3C//DTD SVG 1.1//EN"
"http://www.w3.org/Graphics/SVG/1.1/DTD/svg11.dtd">
<svg viewBox="0 0 935 1210" version="1.1" xmlns="http://www.w3.org/2000/svg" xmlns:xlink="http://www.w3.org/1999/xlink">
<defs>
<style type="text/css"><![CDATA[
.g0_38{
fill: #FFFFFF;
}
]]></style>
</defs>
<path fill-rule="evenodd" d="M138.3,134.9H797.5V110H138.3v24.9Z" class="g0_38"/>
<path fill-rule="evenodd" d="M138.3,234.5H797.5V134.9H138.3v99.6Z" class="g0_38"/>
<path fill-rule="evenodd" d="M137.5,259.4h660V234.5h-660v24.9Z" class="g0_38"/>
<path fill-rule="evenodd" d="M138.3,284.3H797.5V259.4H138.3v24.9Z" class="g0_38"/>
<path fill-rule="evenodd" d="M166.8,309.2H797.5V284.3H166.8v24.9Z" class="g0_38"/>
<path fill-rule="evenodd" d="M137.5,508.4h660V309.2h-660V508.4Z" class="g0_38"/>
<path fill-rule="evenodd" d="M166.5,533.3h631V508.4h-631v24.9Z" class="g0_38"/>
<path fill-rule="evenodd" d="M138.3,782.4H797.5V533.3H138.3V782.4Z" class="g0_38"/>
<path fill-rule="evenodd" d="M138.6,832.2H797.5V782.4H138.6v49.8Z" class="g0_38"/>
<path fill-rule="evenodd" d="M166.8,857.1H797.5V832.2H166.8v24.9Z" class="g0_38"/>
<path fill-rule="evenodd" d="M138.6,906.9H797.5V857.1H138.6v49.8Z" class="g0_38"/>
<path fill-rule="evenodd" d="M138.3,1006.5H797.5V906.9H138.3v99.6Z" class="g0_38"/>
<path fill-rule="evenodd" d="M138.6,1131H797.5V1006.5H138.6V1131Z" class="g0_38"/>
</svg>