<?xml version="1.0" encoding="UTF-8" standalone="no"?>
<!DOCTYPE svg PUBLIC "-//W3C//DTD SVG 1.1//EN"
"http://www.w3.org/Graphics/SVG/1.1/DTD/svg11.dtd">
<svg viewBox="0 0 935 1210" version="1.1" xmlns="http://www.w3.org/2000/svg" xmlns:xlink="http://www.w3.org/1999/xlink">
<defs>
<style type="text/css"><![CDATA[
.g0_37{
fill: #FFFFFF;
}
]]></style>
</defs>
<path fill-rule="evenodd" d="M138,159.8H797.5V110H138v49.8Z" class="g0_37"/>
<path fill-rule="evenodd" d="M138,184.7H797.5V159.8H138v24.9Z" class="g0_37"/>
<path fill-rule="evenodd" d="M166.5,209.6h631V184.7h-631v24.9Z" class="g0_37"/>
<path fill-rule="evenodd" d="M138,259.4H797.5V209.6H138v49.8Z" class="g0_37"/>
<path fill-rule="evenodd" d="M138.3,309.2H797.5V259.4H138.3v49.8Z" class="g0_37"/>
<path fill-rule="evenodd" d="M166.5,334.1h631V309.2h-631v24.9Z" class="g0_37"/>
<path fill-rule="evenodd" d="M138.3,383.9H797.5V334.1H138.3v49.8Z" class="g0_37"/>
<path fill-rule="evenodd" d="M166.5,408.8h631V383.9h-631v24.9Z" class="g0_37"/>
<path fill-rule="evenodd" d="M138,433.7H797.5V408.8H138v24.9Z" class="g0_37"/>
<path fill-rule="evenodd" d="M166.5,458.6h631V433.7h-631v24.9Z" class="g0_37"/>
<path fill-rule="evenodd" d="M166.5,483.5h631V458.6h-631v24.9Z" class="g0_37"/>
<path fill-rule="evenodd" d="M166.5,508.4h631V483.5h-631v24.9Z" class="g0_37"/>
<path fill-rule="evenodd" d="M138,657.9H797.5V508.4H138V657.9Z" class="g0_37"/>
<path fill-rule="evenodd" d="M166.5,682.8h631V657.9h-631v24.9Z" class="g0_37"/>
<path fill-rule="evenodd" d="M166.5,707.7h631V682.8h-631v24.9Z" class="g0_37"/>
<path fill-rule="evenodd" d="M139,732.6H797.5V707.7H139v24.9Z" class="g0_37"/>
<path fill-rule="evenodd" d="M138,782.4H797.5V732.6H138v49.8Z" class="g0_37"/>
<path fill-rule="evenodd" d="M138,857.1H797.5V782.4H138v74.7Z" class="g0_37"/>
<path fill-rule="evenodd" d="M138.6,906.9H797.5V857.1H138.6v49.8Z" class="g0_37"/>
<path fill-rule="evenodd" d="M166.1,931.8H797.5V906.9H166.1v24.9Z" class="g0_37"/>
<path fill-rule="evenodd" d="M138.6,956.7H797.5V931.8H138.6v24.9Z" class="g0_37"/>
<path fill-rule="evenodd" d="M139,981.6H797.5V956.7H139v24.9Z" class="g0_37"/>
<path fill-rule="evenodd" d="M166.5,1006.5h631V981.6h-631v24.9Z" class="g0_37"/>
<path fill-rule="evenodd" d="M139,1081.2H797.5v-74.7H139v74.7Z" class="g0_37"/>
</svg>