<?xml version="1.0" encoding="UTF-8" standalone="no"?>
<!DOCTYPE svg PUBLIC "-//W3C//DTD SVG 1.1//EN"
"http://www.w3.org/Graphics/SVG/1.1/DTD/svg11.dtd">
<svg viewBox="0 0 935 1210" version="1.1" xmlns="http://www.w3.org/2000/svg" xmlns:xlink="http://www.w3.org/1999/xlink">
<defs>
<style type="text/css"><![CDATA[
.g0_143{
fill: #FFFFFF;
}
]]></style>
</defs>
<path fill-rule="evenodd" d="M137.5,159.8h660V110h-660v49.8Z" class="g0_143"/>
<path fill-rule="evenodd" d="M137.5,184.7h660V159.8h-660v24.9Z" class="g0_143"/>
<path fill-rule="evenodd" d="M137.5,209.6h660V184.7h-660v24.9Z" class="g0_143"/>
<path fill-rule="evenodd" d="M137.5,234.5h660V209.6h-660v24.9Z" class="g0_143"/>
<path fill-rule="evenodd" d="M137.5,334.1h660V234.5h-660v99.6Z" class="g0_143"/>
<path fill-rule="evenodd" d="M137.5,383.9h660V334.1h-660v49.8Z" class="g0_143"/>
<path fill-rule="evenodd" d="M137.5,433.7h660V383.9h-660v49.8Z" class="g0_143"/>
<path fill-rule="evenodd" d="M137.5,458.6h660V433.7h-660v24.9Z" class="g0_143"/>
<path fill-rule="evenodd" d="M137.5,483.5h660V458.6h-660v24.9Z" class="g0_143"/>
<path fill-rule="evenodd" d="M137.5,533.3h660V483.5h-660v49.8Z" class="g0_143"/>
<path fill-rule="evenodd" d="M137.5,558.2h660V533.3h-660v24.9Z" class="g0_143"/>
<path fill-rule="evenodd" d="M137.5,608.1h660V558.2h-660v49.9Z" class="g0_143"/>
<path fill-rule="evenodd" d="M137.5,633h660V608.1h-660V633Z" class="g0_143"/>
<path fill-rule="evenodd" d="M137.5,657.9h660V633h-660v24.9Z" class="g0_143"/>
<path fill-rule="evenodd" d="M137.5,707.7h660V657.9h-660v49.8Z" class="g0_143"/>
<path fill-rule="evenodd" d="M137.5,732.6h660V707.7h-660v24.9Z" class="g0_143"/>
<path fill-rule="evenodd" d="M137.5,757.5h660V732.6h-660v24.9Z" class="g0_143"/>
<path fill-rule="evenodd" d="M137.5,782.4h660V757.5h-660v24.9Z" class="g0_143"/>
<path fill-rule="evenodd" d="M137.5,832.2h660V782.4h-660v49.8Z" class="g0_143"/>
<path fill-rule="evenodd" d="M137.5,857.5h660V832.2h-660v25.3Z" class="g0_143"/>
<path fill-rule="evenodd" d="M137.5,907.3h660V857.5h-660v49.8Z" class="g0_143"/>
<path fill-rule="evenodd" d="M137.5,957.2h660V907.3h-660v49.9Z" class="g0_143"/>
<path fill-rule="evenodd" d="M137.5,982.1h660V957.2h-660v24.9Z" class="g0_143"/>
<path fill-rule="evenodd" d="M137.5,1057.1h660v-75h-660v75Z" class="g0_143"/>
<path fill-rule="evenodd" d="M137.5,1082h660v-24.9h-660V1082Z" class="g0_143"/>
<path fill-rule="evenodd" d="M137.5,1106.9h660V1082h-660v24.9Z" class="g0_143"/>
<path fill-rule="evenodd" d="M137.5,1132.2h660v-25.3h-660v25.3Z" class="g0_143"/>
</svg>