<?xml version="1.0" encoding="UTF-8" standalone="no"?>
<!DOCTYPE svg PUBLIC "-//W3C//DTD SVG 1.1//EN"
"http://www.w3.org/Graphics/SVG/1.1/DTD/svg11.dtd">
<svg viewBox="0 0 935 1210" version="1.1" xmlns="http://www.w3.org/2000/svg" xmlns:xlink="http://www.w3.org/1999/xlink">
<defs>
<style type="text/css"><![CDATA[
.g0_107{
fill: #FFFFFF;
}
]]></style>
</defs>
<path fill-rule="evenodd" d="M137.5,134.9h660V110h-660v24.9Z" class="g0_107"/>
<path fill-rule="evenodd" d="M137.5,159.8h660V134.9h-660v24.9Z" class="g0_107"/>
<path fill-rule="evenodd" d="M137.5,184.7h660V159.8h-660v24.9Z" class="g0_107"/>
<path fill-rule="evenodd" d="M137.5,209.6h660V184.7h-660v24.9Z" class="g0_107"/>
<path fill-rule="evenodd" d="M137.5,234.5h660V209.6h-660v24.9Z" class="g0_107"/>
<path fill-rule="evenodd" d="M137.5,259.4h660V234.5h-660v24.9Z" class="g0_107"/>
<path fill-rule="evenodd" d="M137.5,284.3h660V259.4h-660v24.9Z" class="g0_107"/>
<path fill-rule="evenodd" d="M137.5,334.1h660V284.3h-660v49.8Z" class="g0_107"/>
<path fill-rule="evenodd" d="M137.5,359.5h660V334.1h-660v25.4Z" class="g0_107"/>
<path fill-rule="evenodd" d="M137.5,409.3h660V359.5h-660v49.8Z" class="g0_107"/>
<path fill-rule="evenodd" d="M137.5,434.2h660V409.3h-660v24.9Z" class="g0_107"/>
<path fill-rule="evenodd" d="M137.5,484h660V434.2h-660V484Z" class="g0_107"/>
<path fill-rule="evenodd" d="M137.5,583.6h660V484h-660v99.6Z" class="g0_107"/>
<path fill-rule="evenodd" d="M137.5,658.3h660V583.6h-660v74.7Z" class="g0_107"/>
<path fill-rule="evenodd" d="M137.5,733h660V658.3h-660V733Z" class="g0_107"/>
<path fill-rule="evenodd" d="M137.5,757.9h660V733h-660v24.9Z" class="g0_107"/>
<path fill-rule="evenodd" d="M137.5,782.8h660V757.9h-660v24.9Z" class="g0_107"/>
<path fill-rule="evenodd" d="M137.5,832.6h660V782.8h-660v49.8Z" class="g0_107"/>
<path fill-rule="evenodd" d="M137.5,907.3h660V832.6h-660v74.7Z" class="g0_107"/>
<path fill-rule="evenodd" d="M137.5,957.2h660V907.3h-660v49.9Z" class="g0_107"/>
<path fill-rule="evenodd" d="M137.5,1031.9h660V957.2h-660v74.7Z" class="g0_107"/>
<path fill-rule="evenodd" d="M137.5,1081.7h660v-49.8h-660v49.8Z" class="g0_107"/>
<path fill-rule="evenodd" d="M137.5,1131.5h660v-49.8h-660v49.8Z" class="g0_107"/>
</svg>