<?xml version="1.0" encoding="UTF-8" standalone="no"?>
<!DOCTYPE svg PUBLIC "-//W3C//DTD SVG 1.1//EN"
"http://www.w3.org/Graphics/SVG/1.1/DTD/svg11.dtd">
<svg viewBox="0 0 935 1210" version="1.1" xmlns="http://www.w3.org/2000/svg" xmlns:xlink="http://www.w3.org/1999/xlink">
<defs>
<style type="text/css"><![CDATA[
.g0_124{
fill: #FFFFFF;
}
]]></style>
</defs>
<path fill-rule="evenodd" d="M137.5,134.9h660V110h-660v24.9Z" class="g0_124"/>
<path fill-rule="evenodd" d="M137.5,159.8h660V134.9h-660v24.9Z" class="g0_124"/>
<path fill-rule="evenodd" d="M137.5,184.7h660V159.8h-660v24.9Z" class="g0_124"/>
<path fill-rule="evenodd" d="M137.5,234.5h660V184.7h-660v49.8Z" class="g0_124"/>
<path fill-rule="evenodd" d="M137.5,309.2h660V234.5h-660v74.7Z" class="g0_124"/>
<path fill-rule="evenodd" d="M137.5,334.1h660V309.2h-660v24.9Z" class="g0_124"/>
<path fill-rule="evenodd" d="M137.5,359h660V334.1h-660V359Z" class="g0_124"/>
<path fill-rule="evenodd" d="M137.5,408.8h660V359h-660v49.8Z" class="g0_124"/>
<path fill-rule="evenodd" d="M137.5,433.7h660V408.8h-660v24.9Z" class="g0_124"/>
<path fill-rule="evenodd" d="M137.5,458.6h660V433.7h-660v24.9Z" class="g0_124"/>
<path fill-rule="evenodd" d="M137.5,508.4h660V458.6h-660v49.8Z" class="g0_124"/>
<path fill-rule="evenodd" d="M137.5,633h660V508.4h-660V633Z" class="g0_124"/>
<path fill-rule="evenodd" d="M137.5,757.5h660V633h-660V757.5Z" class="g0_124"/>
<path fill-rule="evenodd" d="M137.5,782.4h660V757.5h-660v24.9Z" class="g0_124"/>
<path fill-rule="evenodd" d="M137.5,832.2h660V782.4h-660v49.8Z" class="g0_124"/>
<path fill-rule="evenodd" d="M137.5,857.1h660V832.2h-660v24.9Z" class="g0_124"/>
<path fill-rule="evenodd" d="M137.5,906.9h660V857.1h-660v49.8Z" class="g0_124"/>
<path fill-rule="evenodd" d="M137.5,956.7h660V906.9h-660v49.8Z" class="g0_124"/>
<path fill-rule="evenodd" d="M137.5,1031.4h660V956.7h-660v74.7Z" class="g0_124"/>
<path fill-rule="evenodd" d="M137.5,1056.3h660v-24.9h-660v24.9Z" class="g0_124"/>
<path fill-rule="evenodd" d="M137.5,1131h660v-74.7h-660V1131Z" class="g0_124"/>
</svg>