<?xml version="1.0" encoding="UTF-8" standalone="no"?>
<!DOCTYPE svg PUBLIC "-//W3C//DTD SVG 1.1//EN"
"http://www.w3.org/Graphics/SVG/1.1/DTD/svg11.dtd">
<svg viewBox="0 0 935 1210" version="1.1" xmlns="http://www.w3.org/2000/svg" xmlns:xlink="http://www.w3.org/1999/xlink">
<defs>
<style type="text/css"><![CDATA[
.g0_169{
fill: #FFFFFF;
}
]]></style>
</defs>
<path fill-rule="evenodd" d="M137.5,134.9h660V110h-660v24.9Z" class="g0_169"/>
<path fill-rule="evenodd" d="M137.5,209.6h660V134.9h-660v74.7Z" class="g0_169"/>
<path fill-rule="evenodd" d="M137.5,235h660V209.6h-660V235Z" class="g0_169"/>
<path fill-rule="evenodd" d="M137.5,260.2h660V235h-660v25.2Z" class="g0_169"/>
<path fill-rule="evenodd" d="M137.5,334.9h660V260.2h-660v74.7Z" class="g0_169"/>
<path fill-rule="evenodd" d="M137.5,384.7h660V334.9h-660v49.8Z" class="g0_169"/>
<path fill-rule="evenodd" d="M137.5,409.6h660V384.7h-660v24.9Z" class="g0_169"/>
<path fill-rule="evenodd" d="M137.5,434.5h660V409.6h-660v24.9Z" class="g0_169"/>
<path fill-rule="evenodd" d="M137.5,484.3h660V434.5h-660v49.8Z" class="g0_169"/>
<path fill-rule="evenodd" d="M137.5,534.1h660V484.3h-660v49.8Z" class="g0_169"/>
<path fill-rule="evenodd" d="M137.5,583.9h660V534.1h-660v49.8Z" class="g0_169"/>
<path fill-rule="evenodd" d="M137.5,633.7h660V583.9h-660v49.8Z" class="g0_169"/>
<path fill-rule="evenodd" d="M137.5,658.6h660V633.7h-660v24.9Z" class="g0_169"/>
<path fill-rule="evenodd" d="M137.5,733.3h660V658.6h-660v74.7Z" class="g0_169"/>
<path fill-rule="evenodd" d="M137.5,857.8h660V733.3h-660V857.8Z" class="g0_169"/>
<path fill-rule="evenodd" d="M137.5,882.8h660v-25h-660v25Z" class="g0_169"/>
<path fill-rule="evenodd" d="M137.5,932.6h660V882.7h-660v49.9Z" class="g0_169"/>
<path fill-rule="evenodd" d="M137.5,957.5h660V932.6h-660v24.9Z" class="g0_169"/>
<path fill-rule="evenodd" d="M137.5,1032.6h660V957.5h-660v75.1Z" class="g0_169"/>
<path fill-rule="evenodd" d="M137.5,1082.4h660v-49.8h-660v49.8Z" class="g0_169"/>
<path fill-rule="evenodd" d="M137.5,1107.3h660v-24.9h-660v24.9Z" class="g0_169"/>
<path fill-rule="evenodd" d="M137.5,1132.2h660v-24.9h-660v24.9Z" class="g0_169"/>
</svg>