<?xml version="1.0" encoding="UTF-8" standalone="no"?>
<!DOCTYPE svg PUBLIC "-//W3C//DTD SVG 1.1//EN"
"http://www.w3.org/Graphics/SVG/1.1/DTD/svg11.dtd">
<svg viewBox="0 0 935 1210" version="1.1" xmlns="http://www.w3.org/2000/svg" xmlns:xlink="http://www.w3.org/1999/xlink">
<defs>
<style type="text/css"><![CDATA[
.g0_67{
fill: #FFFFFF;
}
]]></style>
</defs>
<path fill-rule="evenodd" d="M138,134.9H797.5V110H138v24.9Z" class="g0_67"/>
<path fill-rule="evenodd" d="M138,184.7H797.5V134.9H138v49.8Z" class="g0_67"/>
<path fill-rule="evenodd" d="M138,234.5H797.5V184.7H138v49.8Z" class="g0_67"/>
<path fill-rule="evenodd" d="M138,310.4H797.5V234.5H138v75.9Z" class="g0_67"/>
<path fill-rule="evenodd" d="M138,411.6H797.5V310.4H138V411.6Z" class="g0_67"/>
<path fill-rule="evenodd" d="M137.5,461.4h660V411.6h-660v49.8Z" class="g0_67"/>
<path fill-rule="evenodd" d="M137.5,486.3h660V461.4h-660v24.9Z" class="g0_67"/>
<path fill-rule="evenodd" d="M137.5,509.2h660V486.3h-660v22.9Z" class="g0_67"/>
<path fill-rule="evenodd" d="M165.5,638.6H770V509.2H165.5V638.6Z" class="g0_67"/>
<path fill-rule="evenodd" d="M164.7,738.2H770V638.6H164.7v99.6Z" class="g0_67"/>
<path fill-rule="evenodd" d="M165,812.9H770V738.2H165v74.7Z" class="g0_67"/>
<path fill-rule="evenodd" d="M164.7,887.6H770V812.9H164.7v74.7Z" class="g0_67"/>
<path fill-rule="evenodd" d="M138,937.8H797.5V887.6H138v50.2Z" class="g0_67"/>
<path fill-rule="evenodd" d="M137.5,987.6h660V937.7h-660v49.9Z" class="g0_67"/>
<path fill-rule="evenodd" d="M137.5,1012.5h660V987.6h-660v24.9Z" class="g0_67"/>
<path fill-rule="evenodd" d="M137.5,1061.2h660v-48.7h-660v48.7Z" class="g0_67"/>
<path fill-rule="evenodd" d="M137.5,1135.9h660v-74.7h-660v74.7Z" class="g0_67"/>
</svg>