<?xml version="1.0" encoding="UTF-8" standalone="no"?>
<!DOCTYPE svg PUBLIC "-//W3C//DTD SVG 1.1//EN"
"http://www.w3.org/Graphics/SVG/1.1/DTD/svg11.dtd">
<svg viewBox="0 0 935 1210" version="1.1" xmlns="http://www.w3.org/2000/svg" xmlns:xlink="http://www.w3.org/1999/xlink">
<defs>
<style type="text/css"><![CDATA[
.g0_165{
fill: #FFFFFF;
}
.g1_165{
}
]]></style>
</defs>
<path fill-rule="evenodd" d="M138,159.8H797.5V110H138v49.8Z" class="g0_165"/>
<path fill-rule="evenodd" d="M138,234.5H797.5V159.8H138v74.7Z" class="g0_165"/>
<path fill-rule="evenodd" d="M138,259.4H797.5V234.5H138v24.9Z" class="g0_165"/>
<path fill-rule="evenodd" d="M138,284.3H797.5V259.4H138v24.9Z" class="g0_165"/>
<path fill-rule="evenodd" d="M138,309.2H797.5V284.3H138v24.9Z" class="g0_165"/>
<path fill-rule="evenodd" d="M138,359H797.5V309.2H138V359Z" class="g0_165"/>
<path fill-rule="evenodd" d="M138,408.8H797.5V359H138v49.8Z" class="g0_165"/>
<path fill-rule="evenodd" d="M138,433.7H797.5V408.8H138v24.9Z" class="g0_165"/>
<path fill-rule="evenodd" d="M138,458.6H797.5V433.7H138v24.9Z" class="g0_165"/>
<path fill-rule="evenodd" d="M138,483.5H797.5V458.6H138v24.9Z" class="g0_165"/>
<path fill-rule="evenodd" d="M138,508.4H797.5V483.5H138v24.9Z" class="g0_165"/>
<path fill-rule="evenodd" d="M138,558.7H797.5V508.4H138v50.3Z" class="g0_165"/>
<path fill-rule="evenodd" d="M138,583.6H797.5V558.7H138v24.9Z" class="g0_165"/>
<path fill-rule="evenodd" d="M138,608.5H797.5V583.6H138v24.9Z" class="g0_165"/>
<path fill-rule="evenodd" d="M138,633.4H797.5V608.5H138v24.9Z" class="g0_165"/>
<path fill-rule="evenodd" d="M138,683.2H797.5V633.4H138v49.8Z" class="g0_165"/>
<path fill-rule="evenodd" d="M138,733.3H797.5V683.2H138v50.1Z" class="g0_165"/>
<path fill-rule="evenodd" d="M138,783.1H797.5V733.3H138v49.8Z" class="g0_165"/>
<path fill-rule="evenodd" d="M138,808H797.5V783.1H138V808Z" class="g0_165"/>
<path fill-rule="evenodd" d="M138,832.9H797.5V808H138v24.9Z" class="g0_165"/>
<path fill-rule="evenodd" d="M138,857.8H797.5V832.9H138v24.9Z" class="g0_165"/>
<path fill-rule="evenodd" d="M138,932.6H797.5V857.8H138v74.8Z" class="g0_165"/>
<path fill-rule="evenodd" d="M138,957.5H797.5V932.6H138v24.9Z" class="g0_165"/>
<path fill-rule="evenodd" d="M138,982.4H797.5V957.5H138v24.9Z" class="g0_165"/>
<path fill-rule="evenodd" d="M191.1,1007.3H797.5V982.4H191.1v24.9Z" class="g0_165"/>
<path fill-rule="evenodd" d="M191.1,1034.5H797.5v-27.2H191.1v27.2Z" class="g0_165"/>
<path fill-rule="evenodd" d="M191.1,1059.4H797.5v-24.9H191.1v24.9Z" class="g0_165"/>
<path fill-rule="evenodd" d="M191.1,1084.3H797.5v-24.9H191.1v24.9Z" class="g0_165"/>
<path fill-rule="evenodd" d="M191.1,1109.2H797.5v-24.9H191.1v24.9Z" class="g0_165"/>
<path fill-rule="evenodd" d="M191.1,1134.1H797.5v-24.9H191.1v24.9Z" class="g0_165"/>
<path fill-rule="evenodd" d="M191.1,1034.5H797.5v-.7H191.1v.7Z" class="g1_165"/>
</svg>