<?xml version="1.0" encoding="UTF-8" standalone="no"?>
<!DOCTYPE svg PUBLIC "-//W3C//DTD SVG 1.1//EN"
"http://www.w3.org/Graphics/SVG/1.1/DTD/svg11.dtd">
<svg viewBox="0 0 935 1210" version="1.1" xmlns="http://www.w3.org/2000/svg" xmlns:xlink="http://www.w3.org/1999/xlink">
<defs>
<style type="text/css"><![CDATA[
.g0_158{
fill: #FFFFFF;
}
]]></style>
</defs>
<path fill-rule="evenodd" d="M137.5,134.9h660V110h-660v24.9Z" class="g0_158"/>
<path fill-rule="evenodd" d="M137.5,160.3h660V134.9h-660v25.4Z" class="g0_158"/>
<path fill-rule="evenodd" d="M137.5,185.2h660V160.3h-660v24.9Z" class="g0_158"/>
<path fill-rule="evenodd" d="M137.5,210.1h660V185.2h-660v24.9Z" class="g0_158"/>
<path fill-rule="evenodd" d="M137.5,334.6h660V210.1h-660V334.6Z" class="g0_158"/>
<path fill-rule="evenodd" d="M137.5,359.5h660V334.6h-660v24.9Z" class="g0_158"/>
<path fill-rule="evenodd" d="M137.5,384.4h660V359.5h-660v24.9Z" class="g0_158"/>
<path fill-rule="evenodd" d="M137.5,409.3h660V384.4h-660v24.9Z" class="g0_158"/>
<path fill-rule="evenodd" d="M137.5,434.2h660V409.3h-660v24.9Z" class="g0_158"/>
<path fill-rule="evenodd" d="M137.5,459.1h660V434.2h-660v24.9Z" class="g0_158"/>
<path fill-rule="evenodd" d="M137.5,484h660V459.1h-660V484Z" class="g0_158"/>
<path fill-rule="evenodd" d="M137.5,508.9h660V484h-660v24.9Z" class="g0_158"/>
<path fill-rule="evenodd" d="M137.5,533.8h660V508.9h-660v24.9Z" class="g0_158"/>
<path fill-rule="evenodd" d="M137.5,558.7h660V533.8h-660v24.9Z" class="g0_158"/>
<path fill-rule="evenodd" d="M137.5,608.5h660V558.7h-660v49.8Z" class="g0_158"/>
<path fill-rule="evenodd" d="M137.5,683.2h660V608.5h-660v74.7Z" class="g0_158"/>
<path fill-rule="evenodd" d="M137.5,757.9h660V683.2h-660v74.7Z" class="g0_158"/>
<path fill-rule="evenodd" d="M137.5,782.8h660V757.9h-660v24.9Z" class="g0_158"/>
<path fill-rule="evenodd" d="M137.5,832.6h660V782.8h-660v49.8Z" class="g0_158"/>
<path fill-rule="evenodd" d="M137.5,857.5h660V832.6h-660v24.9Z" class="g0_158"/>
<path fill-rule="evenodd" d="M137.5,882.4h660V857.5h-660v24.9Z" class="g0_158"/>
<path fill-rule="evenodd" d="M137.5,907.3h660V882.4h-660v24.9Z" class="g0_158"/>
<path fill-rule="evenodd" d="M137.5,932.3h660v-25h-660v25Z" class="g0_158"/>
<path fill-rule="evenodd" d="M137.5,1007h660V932.3h-660V1007Z" class="g0_158"/>
<path fill-rule="evenodd" d="M137.5,1081.7h660V1007h-660v74.7Z" class="g0_158"/>
<path fill-rule="evenodd" d="M137.5,1131.5h660v-49.8h-660v49.8Z" class="g0_158"/>
</svg>