<?xml version="1.0" encoding="UTF-8" standalone="no"?>
<!DOCTYPE svg PUBLIC "-//W3C//DTD SVG 1.1//EN"
"http://www.w3.org/Graphics/SVG/1.1/DTD/svg11.dtd">
<svg viewBox="0 0 935 1210" version="1.1" xmlns="http://www.w3.org/2000/svg" xmlns:xlink="http://www.w3.org/1999/xlink">
<defs>
<style type="text/css"><![CDATA[
.g0_12{
fill: #FFFFFF;
}
]]></style>
</defs>
<path fill-rule="evenodd" d="M137.5,133.8h660V110h-660v23.8Z" class="g0_12"/>
<path fill-rule="evenodd" d="M165,157.7H797.5V133.8H165v23.9Z" class="g0_12"/>
<path fill-rule="evenodd" d="M138,181.5H797.5V157.7H138v23.8Z" class="g0_12"/>
<path fill-rule="evenodd" d="M137.5,253h660V181.5h-660V253Z" class="g0_12"/>
<path fill-rule="evenodd" d="M165,276.8H797.5V253H165v23.8Z" class="g0_12"/>
<path fill-rule="evenodd" d="M138,348.3H797.5V276.8H138v71.5Z" class="g0_12"/>
<path fill-rule="evenodd" d="M165.5,372.2h632V348.3h-632v23.9Z" class="g0_12"/>
<path fill-rule="evenodd" d="M138,419.8H797.5V372.2H138v47.6Z" class="g0_12"/>
<path fill-rule="evenodd" d="M138,443.7H797.5V419.8H138v23.9Z" class="g0_12"/>
<path fill-rule="evenodd" d="M137.5,467.5h660V443.7h-660v23.8Z" class="g0_12"/>
<path fill-rule="evenodd" d="M166.1,491.3H797.5V467.5H166.1v23.8Z" class="g0_12"/>
<path fill-rule="evenodd" d="M165.5,515.2h632V491.3h-632v23.9Z" class="g0_12"/>
<path fill-rule="evenodd" d="M165,539H797.5V515.2H165V539Z" class="g0_12"/>
<path fill-rule="evenodd" d="M138,562.8H797.5V539H138v23.8Z" class="g0_12"/>
<path fill-rule="evenodd" d="M137.5,586.7h660V562.8h-660v23.9Z" class="g0_12"/>
<path fill-rule="evenodd" d="M137.5,610.5h660V586.7h-660v23.8Z" class="g0_12"/>
<path fill-rule="evenodd" d="M165,634.3H797.5V610.5H165v23.8Z" class="g0_12"/>
<path fill-rule="evenodd" d="M166.1,658.2H797.5V634.3H166.1v23.9Z" class="g0_12"/>
<path fill-rule="evenodd" d="M166.1,682H797.5V658.2H166.1V682Z" class="g0_12"/>
<path fill-rule="evenodd" d="M138,705.8H797.5V682H138v23.8Z" class="g0_12"/>
<path fill-rule="evenodd" d="M138.6,753.5H797.5V705.8H138.6v47.7Z" class="g0_12"/>
<path fill-rule="evenodd" d="M138.6,801.2H797.5V753.5H138.6v47.7Z" class="g0_12"/>
<path fill-rule="evenodd" d="M139,873.4H797.5V801.2H139v72.2Z" class="g0_12"/>
<path fill-rule="evenodd" d="M139.3,921.1H797.5V873.4H139.3v47.7Z" class="g0_12"/>
<path fill-rule="evenodd" d="M141.6,944.9H797.5V921.1H141.6v23.8Z" class="g0_12"/>
<path fill-rule="evenodd" d="M140.1,1016.9H797.5v-72H140.1v72Z" class="g0_12"/>
<path fill-rule="evenodd" d="M167.6,1041H797.5v-24.1H167.6V1041Z" class="g0_12"/>
<path fill-rule="evenodd" d="M140.9,1088.7H797.5V1041H140.9v47.7Z" class="g0_12"/>
<path fill-rule="evenodd" d="M165.8,1112.5H797.5v-23.8H165.8v23.8Z" class="g0_12"/>
<path fill-rule="evenodd" d="M137.5,1136.4h660v-23.9h-660v23.9Z" class="g0_12"/>
</svg>