<?xml version="1.0" encoding="UTF-8" standalone="no"?>
<!DOCTYPE svg PUBLIC "-//W3C//DTD SVG 1.1//EN"
"http://www.w3.org/Graphics/SVG/1.1/DTD/svg11.dtd">
<svg viewBox="0 0 935 1210" version="1.1" xmlns="http://www.w3.org/2000/svg" xmlns:xlink="http://www.w3.org/1999/xlink">
<defs>
<style type="text/css"><![CDATA[
.g0_150{
fill: #FFFFFF;
}
]]></style>
</defs>
<path fill-rule="evenodd" d="M138,234.5H797.5V110H138V234.5Z" class="g0_150"/>
<path fill-rule="evenodd" d="M138,259.4H797.5V234.5H138v24.9Z" class="g0_150"/>
<path fill-rule="evenodd" d="M138,310H797.5V259.4H138V310Z" class="g0_150"/>
<path fill-rule="evenodd" d="M137.5,347h660V310h-660v37Z" class="g0_150"/>
<path fill-rule="evenodd" d="M137.5,371.9h660V347h-660v24.9Z" class="g0_150"/>
<path fill-rule="evenodd" d="M137.5,409.6h660V371.9h-660v37.7Z" class="g0_150"/>
<path fill-rule="evenodd" d="M137.5,583.9h660V409.6h-660V583.9Z" class="g0_150"/>
<path fill-rule="evenodd" d="M137.5,733.3h660V583.9h-660V733.3Z" class="g0_150"/>
<path fill-rule="evenodd" d="M137.5,758.2h660V733.3h-660v24.9Z" class="g0_150"/>
<path fill-rule="evenodd" d="M137.5,832.9h660V758.2h-660v74.7Z" class="g0_150"/>
<path fill-rule="evenodd" d="M137.5,882.8h660V832.9h-660v49.9Z" class="g0_150"/>
<path fill-rule="evenodd" d="M137.5,957.5h660V882.7h-660v74.8Z" class="g0_150"/>
<path fill-rule="evenodd" d="M137.5,1007.3h660V957.5h-660v49.8Z" class="g0_150"/>
<path fill-rule="evenodd" d="M137.5,1082h660v-74.7h-660V1082Z" class="g0_150"/>
<path fill-rule="evenodd" d="M137.5,1106.9h660V1082h-660v24.9Z" class="g0_150"/>
<path fill-rule="evenodd" d="M137.5,1131.8h660v-24.9h-660v24.9Z" class="g0_150"/>
</svg>