<?xml version="1.0" encoding="UTF-8" standalone="no"?>
<!DOCTYPE svg PUBLIC "-//W3C//DTD SVG 1.1//EN"
"http://www.w3.org/Graphics/SVG/1.1/DTD/svg11.dtd">
<svg viewBox="0 0 935 1210" version="1.1" xmlns="http://www.w3.org/2000/svg" xmlns:xlink="http://www.w3.org/1999/xlink">
<defs>
<style type="text/css"><![CDATA[
.g0_122{
fill: #FFFFFF;
}
]]></style>
</defs>
<path fill-rule="evenodd" d="M137.5,259.4h660V110h-660V259.4Z" class="g0_122"/>
<path fill-rule="evenodd" d="M137.5,359h660V259.4h-660V359Z" class="g0_122"/>
<path fill-rule="evenodd" d="M137.5,383.9h660V359h-660v24.9Z" class="g0_122"/>
<path fill-rule="evenodd" d="M137.5,433.7h660V383.9h-660v49.8Z" class="g0_122"/>
<path fill-rule="evenodd" d="M137.5,483.5h660V433.7h-660v49.8Z" class="g0_122"/>
<path fill-rule="evenodd" d="M137.5,508.4h660V483.5h-660v24.9Z" class="g0_122"/>
<path fill-rule="evenodd" d="M137.5,533.3h660V508.4h-660v24.9Z" class="g0_122"/>
<path fill-rule="evenodd" d="M137.5,583.2h660V533.3h-660v49.9Z" class="g0_122"/>
<path fill-rule="evenodd" d="M137.5,608.1h660V583.2h-660v24.9Z" class="g0_122"/>
<path fill-rule="evenodd" d="M137.5,633h660V608.1h-660V633Z" class="g0_122"/>
<path fill-rule="evenodd" d="M137.5,657.9h660V633h-660v24.9Z" class="g0_122"/>
<path fill-rule="evenodd" d="M137.5,682.8h660V657.9h-660v24.9Z" class="g0_122"/>
<path fill-rule="evenodd" d="M137.5,707.7h660V682.8h-660v24.9Z" class="g0_122"/>
<path fill-rule="evenodd" d="M137.5,757.5h660V707.7h-660v49.8Z" class="g0_122"/>
<path fill-rule="evenodd" d="M137.5,782.4h660V757.5h-660v24.9Z" class="g0_122"/>
<path fill-rule="evenodd" d="M137.5,807.3h660V782.4h-660v24.9Z" class="g0_122"/>
<path fill-rule="evenodd" d="M137.5,832.2h660V807.3h-660v24.9Z" class="g0_122"/>
<path fill-rule="evenodd" d="M137.5,857.1h660V832.2h-660v24.9Z" class="g0_122"/>
<path fill-rule="evenodd" d="M137.5,882h660V857.1h-660V882Z" class="g0_122"/>
<path fill-rule="evenodd" d="M137.5,956.7h660V882h-660v74.7Z" class="g0_122"/>
<path fill-rule="evenodd" d="M137.5,982.8h660V956.7h-660v26.1Z" class="g0_122"/>
<path fill-rule="evenodd" d="M137.5,1008.5h660V982.8h-660v25.7Z" class="g0_122"/>
<path fill-rule="evenodd" d="M137.5,1033.4h660v-24.9h-660v24.9Z" class="g0_122"/>
<path fill-rule="evenodd" d="M137.5,1082.9h660v-49.5h-660v49.5Z" class="g0_122"/>
<path fill-rule="evenodd" d="M137.5,1132.7h660v-49.8h-660v49.8Z" class="g0_122"/>
</svg>