<?xml version="1.0" encoding="UTF-8" standalone="no"?>
<!DOCTYPE svg PUBLIC "-//W3C//DTD SVG 1.1//EN"
"http://www.w3.org/Graphics/SVG/1.1/DTD/svg11.dtd">
<svg viewBox="0 0 935 1210" version="1.1" xmlns="http://www.w3.org/2000/svg" xmlns:xlink="http://www.w3.org/1999/xlink">
<defs>
<style type="text/css"><![CDATA[
.g0_51{
fill: #FFFFFF;
}
]]></style>
</defs>
<path fill-rule="evenodd" d="M138,134.9H797.5V110H138v24.9Z" class="g0_51"/>
<path fill-rule="evenodd" d="M138,159.8H797.5V134.9H138v24.9Z" class="g0_51"/>
<path fill-rule="evenodd" d="M138,383.9H797.5V159.8H138V383.9Z" class="g0_51"/>
<path fill-rule="evenodd" d="M138,408.8H797.5V383.9H138v24.9Z" class="g0_51"/>
<path fill-rule="evenodd" d="M138,458.6H797.5V408.8H138v49.8Z" class="g0_51"/>
<path fill-rule="evenodd" d="M138,483.5H797.5V458.6H138v24.9Z" class="g0_51"/>
<path fill-rule="evenodd" d="M138,508.4H797.5V483.5H138v24.9Z" class="g0_51"/>
<path fill-rule="evenodd" d="M138,533.3H797.5V508.4H138v24.9Z" class="g0_51"/>
<path fill-rule="evenodd" d="M138,583.2H797.5V533.3H138v49.9Z" class="g0_51"/>
<path fill-rule="evenodd" d="M138,608.1H797.5V583.2H138v24.9Z" class="g0_51"/>
<path fill-rule="evenodd" d="M138,682.8H797.5V608.1H138v74.7Z" class="g0_51"/>
<path fill-rule="evenodd" d="M138,757.5H797.5V682.8H138v74.7Z" class="g0_51"/>
<path fill-rule="evenodd" d="M138,782.4H797.5V757.5H138v24.9Z" class="g0_51"/>
<path fill-rule="evenodd" d="M138,807.3H797.5V782.4H138v24.9Z" class="g0_51"/>
<path fill-rule="evenodd" d="M138,857.1H797.5V807.3H138v49.8Z" class="g0_51"/>
<path fill-rule="evenodd" d="M138,907.3H797.5V857.1H138v50.2Z" class="g0_51"/>
<path fill-rule="evenodd" d="M138,932.3H797.5v-25H138v25Z" class="g0_51"/>
<path fill-rule="evenodd" d="M138,957.2H797.5V932.3H138v24.9Z" class="g0_51"/>
<path fill-rule="evenodd" d="M138,982.1H797.5V957.2H138v24.9Z" class="g0_51"/>
<path fill-rule="evenodd" d="M138,1007H797.5V982.1H138V1007Z" class="g0_51"/>
<path fill-rule="evenodd" d="M138,1031.9H797.5V1007H138v24.9Z" class="g0_51"/>
<path fill-rule="evenodd" d="M138,1057.1H797.5v-25.2H138v25.2Z" class="g0_51"/>
<path fill-rule="evenodd" d="M138,1082.4H797.5v-25.3H138v25.3Z" class="g0_51"/>
<path fill-rule="evenodd" d="M138,1132.2H797.5v-49.8H138v49.8Z" class="g0_51"/>
</svg>