<?xml version="1.0" encoding="UTF-8" standalone="no"?>
<!DOCTYPE svg PUBLIC "-//W3C//DTD SVG 1.1//EN"
"http://www.w3.org/Graphics/SVG/1.1/DTD/svg11.dtd">
<svg viewBox="0 0 935 1210" version="1.1" xmlns="http://www.w3.org/2000/svg" xmlns:xlink="http://www.w3.org/1999/xlink">
<defs>
<style type="text/css"><![CDATA[
.g0_152{
fill: #FFFFFF;
}
]]></style>
</defs>
<path fill-rule="evenodd" d="M137.5,209.6h660V110h-660v99.6Z" class="g0_152"/>
<path fill-rule="evenodd" d="M137.5,284.3h660V209.6h-660v74.7Z" class="g0_152"/>
<path fill-rule="evenodd" d="M137.5,334.1h660V284.3h-660v49.8Z" class="g0_152"/>
<path fill-rule="evenodd" d="M137.5,383.9h660V334.1h-660v49.8Z" class="g0_152"/>
<path fill-rule="evenodd" d="M137.5,408.8h660V383.9h-660v24.9Z" class="g0_152"/>
<path fill-rule="evenodd" d="M137.5,433.7h660V408.8h-660v24.9Z" class="g0_152"/>
<path fill-rule="evenodd" d="M137.5,458.6h660V433.7h-660v24.9Z" class="g0_152"/>
<path fill-rule="evenodd" d="M137.5,483.5h660V458.6h-660v24.9Z" class="g0_152"/>
<path fill-rule="evenodd" d="M137.5,508.4h660V483.5h-660v24.9Z" class="g0_152"/>
<path fill-rule="evenodd" d="M137.5,558.2h660V508.4h-660v49.8Z" class="g0_152"/>
<path fill-rule="evenodd" d="M137.5,583.2h660V558.3h-660v24.9Z" class="g0_152"/>
<path fill-rule="evenodd" d="M137.5,633h660V583.2h-660V633Z" class="g0_152"/>
<path fill-rule="evenodd" d="M137.5,682.8h660V633h-660v49.8Z" class="g0_152"/>
<path fill-rule="evenodd" d="M137.5,707.7h660V682.8h-660v24.9Z" class="g0_152"/>
<path fill-rule="evenodd" d="M137.5,732.6h660V707.7h-660v24.9Z" class="g0_152"/>
<path fill-rule="evenodd" d="M137.5,757.5h660V732.6h-660v24.9Z" class="g0_152"/>
<path fill-rule="evenodd" d="M137.5,832.2h660V757.5h-660v74.7Z" class="g0_152"/>
<path fill-rule="evenodd" d="M137.5,857.1h660V832.2h-660v24.9Z" class="g0_152"/>
<path fill-rule="evenodd" d="M137.5,932.3h660V857.1h-660v75.2Z" class="g0_152"/>
<path fill-rule="evenodd" d="M137.5,1007h660V932.3h-660V1007Z" class="g0_152"/>
<path fill-rule="evenodd" d="M137.5,1056.8h660V1007h-660v49.8Z" class="g0_152"/>
<path fill-rule="evenodd" d="M137.5,1131.5h660v-74.7h-660v74.7Z" class="g0_152"/>
</svg>