<?xml version="1.0" encoding="UTF-8" standalone="no"?>
<!DOCTYPE svg PUBLIC "-//W3C//DTD SVG 1.1//EN"
"http://www.w3.org/Graphics/SVG/1.1/DTD/svg11.dtd">
<svg viewBox="0 0 935 1210" version="1.1" xmlns="http://www.w3.org/2000/svg" xmlns:xlink="http://www.w3.org/1999/xlink">
<defs>
<style type="text/css"><![CDATA[
.g0_128{
fill: #FFFFFF;
}
]]></style>
</defs>
<path fill-rule="evenodd" d="M138,159.8H797.5V110H138v49.8Z" class="g0_128"/>
<path fill-rule="evenodd" d="M138,234.5H797.5V159.8H138v74.7Z" class="g0_128"/>
<path fill-rule="evenodd" d="M138,259.4H797.5V234.5H138v24.9Z" class="g0_128"/>
<path fill-rule="evenodd" d="M138,334.1H797.5V259.4H138v74.7Z" class="g0_128"/>
<path fill-rule="evenodd" d="M138,359H797.5V334.1H138V359Z" class="g0_128"/>
<path fill-rule="evenodd" d="M138,384.4H797.5V359H138v25.4Z" class="g0_128"/>
<path fill-rule="evenodd" d="M138,484H797.5V384.4H138V484Z" class="g0_128"/>
<path fill-rule="evenodd" d="M138,533.8H797.5V484H138v49.8Z" class="g0_128"/>
<path fill-rule="evenodd" d="M138,559H797.5V533.8H138V559Z" class="g0_128"/>
<path fill-rule="evenodd" d="M138,583.9H797.5V559H138v24.9Z" class="g0_128"/>
<path fill-rule="evenodd" d="M138,633.7H797.5V583.9H138v49.8Z" class="g0_128"/>
<path fill-rule="evenodd" d="M138,683.5H797.5V633.7H138v49.8Z" class="g0_128"/>
<path fill-rule="evenodd" d="M138,733.3H797.5V683.5H138v49.8Z" class="g0_128"/>
<path fill-rule="evenodd" d="M138,758.2H797.5V733.3H138v24.9Z" class="g0_128"/>
<path fill-rule="evenodd" d="M138,783.1H797.5V758.2H138v24.9Z" class="g0_128"/>
<path fill-rule="evenodd" d="M138,808H797.5V783.1H138V808Z" class="g0_128"/>
<path fill-rule="evenodd" d="M138,857.8H797.5V808H138v49.8Z" class="g0_128"/>
<path fill-rule="evenodd" d="M138,882.8H797.5v-25H138v25Z" class="g0_128"/>
<path fill-rule="evenodd" d="M138,907.7H797.5V882.8H138v24.9Z" class="g0_128"/>
<path fill-rule="evenodd" d="M138,932.6H797.5V907.7H138v24.9Z" class="g0_128"/>
<path fill-rule="evenodd" d="M138,957.9H797.5V932.6H138v25.3Z" class="g0_128"/>
<path fill-rule="evenodd" d="M138,982.8H797.5V957.9H138v24.9Z" class="g0_128"/>
<path fill-rule="evenodd" d="M138,1057.5H797.5V982.8H138v74.7Z" class="g0_128"/>
<path fill-rule="evenodd" d="M138,1107.3H797.5v-49.8H138v49.8Z" class="g0_128"/>
<path fill-rule="evenodd" d="M138,1132.2H797.5v-24.9H138v24.9Z" class="g0_128"/>
</svg>