<?xml version="1.0" encoding="UTF-8" standalone="no"?>
<!DOCTYPE svg PUBLIC "-//W3C//DTD SVG 1.1//EN"
"http://www.w3.org/Graphics/SVG/1.1/DTD/svg11.dtd">
<svg viewBox="0 0 935 1210" version="1.1" xmlns="http://www.w3.org/2000/svg" xmlns:xlink="http://www.w3.org/1999/xlink">
<defs>
<style type="text/css"><![CDATA[
.g0_103{
fill: #FFFFFF;
}
]]></style>
</defs>
<path fill-rule="evenodd" d="M137.5,159.8h660V110h-660v49.8Z" class="g0_103"/>
<path fill-rule="evenodd" d="M137.5,184.7h660V159.8h-660v24.9Z" class="g0_103"/>
<path fill-rule="evenodd" d="M137.5,234.5h660V184.7h-660v49.8Z" class="g0_103"/>
<path fill-rule="evenodd" d="M137.5,259.9h660V234.5h-660v25.4Z" class="g0_103"/>
<path fill-rule="evenodd" d="M137.5,384.7h660V259.9h-660V384.7Z" class="g0_103"/>
<path fill-rule="evenodd" d="M137.5,434.5h660V384.7h-660v49.8Z" class="g0_103"/>
<path fill-rule="evenodd" d="M137.5,484.3h660V434.5h-660v49.8Z" class="g0_103"/>
<path fill-rule="evenodd" d="M137.5,509.2h660V484.3h-660v24.9Z" class="g0_103"/>
<path fill-rule="evenodd" d="M137.5,534.1h660V509.2h-660v24.9Z" class="g0_103"/>
<path fill-rule="evenodd" d="M137.5,583.9h660V534.1h-660v49.8Z" class="g0_103"/>
<path fill-rule="evenodd" d="M137.5,608.8h660V583.9h-660v24.9Z" class="g0_103"/>
<path fill-rule="evenodd" d="M137.5,633.7h660V608.8h-660v24.9Z" class="g0_103"/>
<path fill-rule="evenodd" d="M137.5,658.6h660V633.7h-660v24.9Z" class="g0_103"/>
<path fill-rule="evenodd" d="M137.5,708.4h660V658.6h-660v49.8Z" class="g0_103"/>
<path fill-rule="evenodd" d="M137.5,733.3h660V708.4h-660v24.9Z" class="g0_103"/>
<path fill-rule="evenodd" d="M137.5,783.1h660V733.3h-660v49.8Z" class="g0_103"/>
<path fill-rule="evenodd" d="M137.5,857.8h660V783.1h-660v74.7Z" class="g0_103"/>
<path fill-rule="evenodd" d="M137.5,882.8h660v-25h-660v25Z" class="g0_103"/>
<path fill-rule="evenodd" d="M137.5,907.7h660V882.8h-660v24.9Z" class="g0_103"/>
<path fill-rule="evenodd" d="M137.5,932.6h660V907.7h-660v24.9Z" class="g0_103"/>
<path fill-rule="evenodd" d="M137.5,957.5h660V932.6h-660v24.9Z" class="g0_103"/>
<path fill-rule="evenodd" d="M137.5,1032.2h660V957.5h-660v74.7Z" class="g0_103"/>
<path fill-rule="evenodd" d="M137.5,1106.9h660v-74.7h-660v74.7Z" class="g0_103"/>
<path fill-rule="evenodd" d="M137.5,1131.8h660v-24.9h-660v24.9Z" class="g0_103"/>
</svg>