<?xml version="1.0" encoding="UTF-8" standalone="no"?>
<!DOCTYPE svg PUBLIC "-//W3C//DTD SVG 1.1//EN"
"http://www.w3.org/Graphics/SVG/1.1/DTD/svg11.dtd">
<svg viewBox="0 0 935 1210" version="1.1" xmlns="http://www.w3.org/2000/svg" xmlns:xlink="http://www.w3.org/1999/xlink">
<defs>
<style type="text/css"><![CDATA[
.g0_74{
fill: #FFFFFF;
}
]]></style>
</defs>
<path fill-rule="evenodd" d="M137.5,134.9h660V110h-660v24.9Z" class="g0_74"/>
<path fill-rule="evenodd" d="M137.5,159.8h660V134.9h-660v24.9Z" class="g0_74"/>
<path fill-rule="evenodd" d="M137.5,209.6h660V159.8h-660v49.8Z" class="g0_74"/>
<path fill-rule="evenodd" d="M137.5,234.5h660V209.6h-660v24.9Z" class="g0_74"/>
<path fill-rule="evenodd" d="M137.5,259.4h660V234.5h-660v24.9Z" class="g0_74"/>
<path fill-rule="evenodd" d="M137.5,334.1h660V259.4h-660v74.7Z" class="g0_74"/>
<path fill-rule="evenodd" d="M137.5,383.9h660V334.1h-660v49.8Z" class="g0_74"/>
<path fill-rule="evenodd" d="M137.5,408.8h660V383.9h-660v24.9Z" class="g0_74"/>
<path fill-rule="evenodd" d="M138,458.6H797.5V408.8H138v49.8Z" class="g0_74"/>
<path fill-rule="evenodd" d="M138,483.5H797.5V458.6H138v24.9Z" class="g0_74"/>
<path fill-rule="evenodd" d="M138,583.2H797.5V483.5H138v99.7Z" class="g0_74"/>
<path fill-rule="evenodd" d="M138,608.1H797.5V583.2H138v24.9Z" class="g0_74"/>
<path fill-rule="evenodd" d="M138,633H797.5V608.1H138V633Z" class="g0_74"/>
<path fill-rule="evenodd" d="M138,657.9H797.5V633H138v24.9Z" class="g0_74"/>
<path fill-rule="evenodd" d="M138,707.7H797.5V657.9H138v49.8Z" class="g0_74"/>
<path fill-rule="evenodd" d="M138,757.5H797.5V707.7H138v49.8Z" class="g0_74"/>
<path fill-rule="evenodd" d="M138,857.5H797.5v-100H138v100Z" class="g0_74"/>
<path fill-rule="evenodd" d="M138,882.4H797.5V857.5H138v24.9Z" class="g0_74"/>
<path fill-rule="evenodd" d="M137.5,932.3h660V882.4h-660v49.9Z" class="g0_74"/>
<path fill-rule="evenodd" d="M137.5,1031.9h660V932.3h-660v99.6Z" class="g0_74"/>
<path fill-rule="evenodd" d="M137.5,1131.8h660v-99.9h-660v99.9Z" class="g0_74"/>
</svg>