<?xml version="1.0" encoding="UTF-8" standalone="no"?>
<!DOCTYPE svg PUBLIC "-//W3C//DTD SVG 1.1//EN"
"http://www.w3.org/Graphics/SVG/1.1/DTD/svg11.dtd">
<svg viewBox="0 0 935 1210" version="1.1" xmlns="http://www.w3.org/2000/svg" xmlns:xlink="http://www.w3.org/1999/xlink">
<defs>
<style type="text/css"><![CDATA[
.g0_148{
fill: #FFFFFF;
}
]]></style>
</defs>
<path fill-rule="evenodd" d="M138,159.8H797.5V110H138v49.8Z" class="g0_148"/>
<path fill-rule="evenodd" d="M138,184.7H797.5V159.8H138v24.9Z" class="g0_148"/>
<path fill-rule="evenodd" d="M138,209.6H797.5V184.7H138v24.9Z" class="g0_148"/>
<path fill-rule="evenodd" d="M138,259.4H797.5V209.6H138v49.8Z" class="g0_148"/>
<path fill-rule="evenodd" d="M138,284.3H797.5V259.4H138v24.9Z" class="g0_148"/>
<path fill-rule="evenodd" d="M138,359H797.5V284.3H138V359Z" class="g0_148"/>
<path fill-rule="evenodd" d="M138,383.9H797.5V359H138v24.9Z" class="g0_148"/>
<path fill-rule="evenodd" d="M138,408.8H797.5V383.9H138v24.9Z" class="g0_148"/>
<path fill-rule="evenodd" d="M138,434.2H797.5V408.8H138v25.4Z" class="g0_148"/>
<path fill-rule="evenodd" d="M138,459.1H797.5V434.2H138v24.9Z" class="g0_148"/>
<path fill-rule="evenodd" d="M138,484H797.5V459.1H138V484Z" class="g0_148"/>
<path fill-rule="evenodd" d="M138,508.9H797.5V484H138v24.9Z" class="g0_148"/>
<path fill-rule="evenodd" d="M138,533.8H797.5V508.9H138v24.9Z" class="g0_148"/>
<path fill-rule="evenodd" d="M138,558.7H797.5V533.8H138v24.9Z" class="g0_148"/>
<path fill-rule="evenodd" d="M138,583.6H797.5V558.7H138v24.9Z" class="g0_148"/>
<path fill-rule="evenodd" d="M138,608.5H797.5V583.6H138v24.9Z" class="g0_148"/>
<path fill-rule="evenodd" d="M138,633.4H797.5V608.5H138v24.9Z" class="g0_148"/>
<path fill-rule="evenodd" d="M138,658.3H797.5V633.4H138v24.9Z" class="g0_148"/>
<path fill-rule="evenodd" d="M138,683.2H797.5V658.3H138v24.9Z" class="g0_148"/>
<path fill-rule="evenodd" d="M138,708.1H797.5V683.2H138v24.9Z" class="g0_148"/>
<path fill-rule="evenodd" d="M138,757.9H797.5V708.1H138v49.8Z" class="g0_148"/>
<path fill-rule="evenodd" d="M138,807.7H797.5V757.9H138v49.8Z" class="g0_148"/>
<path fill-rule="evenodd" d="M138,857.5H797.5V807.7H138v49.8Z" class="g0_148"/>
<path fill-rule="evenodd" d="M138,882.4H797.5V857.5H138v24.9Z" class="g0_148"/>
<path fill-rule="evenodd" d="M138,932.3H797.5V882.4H138v49.9Z" class="g0_148"/>
<path fill-rule="evenodd" d="M138,957.2H797.5V932.3H138v24.9Z" class="g0_148"/>
<path fill-rule="evenodd" d="M138,1007H797.5V957.2H138V1007Z" class="g0_148"/>
<path fill-rule="evenodd" d="M138,1031.9H797.5V1007H138v24.9Z" class="g0_148"/>
<path fill-rule="evenodd" d="M138,1056.8H797.5v-24.9H138v24.9Z" class="g0_148"/>
<path fill-rule="evenodd" d="M138,1081.7H797.5v-24.9H138v24.9Z" class="g0_148"/>
<path fill-rule="evenodd" d="M138,1106.6H797.5v-24.9H138v24.9Z" class="g0_148"/>
<path fill-rule="evenodd" d="M138,1131.5H797.5v-24.9H138v24.9Z" class="g0_148"/>
</svg>