<?xml version="1.0" encoding="UTF-8" standalone="no"?>
<!DOCTYPE svg PUBLIC "-//W3C//DTD SVG 1.1//EN"
"http://www.w3.org/Graphics/SVG/1.1/DTD/svg11.dtd">
<svg viewBox="0 0 935 1210" version="1.1" xmlns="http://www.w3.org/2000/svg" xmlns:xlink="http://www.w3.org/1999/xlink">
<defs>
<style type="text/css"><![CDATA[
.g0_28{
fill: #FFFFFF;
}
]]></style>
</defs>
<path fill-rule="evenodd" d="M137.5,134.9h660V110h-660v24.9Z" class="g0_28"/>
<path fill-rule="evenodd" d="M165.8,159.8H797.5V134.9H165.8v24.9Z" class="g0_28"/>
<path fill-rule="evenodd" d="M138,234.5H797.5V159.8H138v74.7Z" class="g0_28"/>
<path fill-rule="evenodd" d="M166.1,259.4H797.5V234.5H166.1v24.9Z" class="g0_28"/>
<path fill-rule="evenodd" d="M138.6,284.3H797.5V259.4H138.6v24.9Z" class="g0_28"/>
<path fill-rule="evenodd" d="M138.6,359H797.5V284.3H138.6V359Z" class="g0_28"/>
<path fill-rule="evenodd" d="M166.5,383.9h631V359h-631v24.9Z" class="g0_28"/>
<path fill-rule="evenodd" d="M139.3,434.2H797.5V383.9H139.3v50.3Z" class="g0_28"/>
<path fill-rule="evenodd" d="M139.3,484H797.5V434.2H139.3V484Z" class="g0_28"/>
<path fill-rule="evenodd" d="M166.8,508.9H797.5V484H166.8v24.9Z" class="g0_28"/>
<path fill-rule="evenodd" d="M166.8,533.8H797.5V508.9H166.8v24.9Z" class="g0_28"/>
<path fill-rule="evenodd" d="M140.1,583.6H797.5V533.8H140.1v49.8Z" class="g0_28"/>
<path fill-rule="evenodd" d="M138,608.5H797.5V583.6H138v24.9Z" class="g0_28"/>
<path fill-rule="evenodd" d="M138,683.2H797.5V608.5H138v74.7Z" class="g0_28"/>
<path fill-rule="evenodd" d="M165.8,708.1H797.5V683.2H165.8v24.9Z" class="g0_28"/>
<path fill-rule="evenodd" d="M138,733H797.5V708.1H138V733Z" class="g0_28"/>
<path fill-rule="evenodd" d="M165.8,757.9H797.5V733H165.8v24.9Z" class="g0_28"/>
<path fill-rule="evenodd" d="M138.3,807.7H797.5V757.9H138.3v49.8Z" class="g0_28"/>
<path fill-rule="evenodd" d="M138,857.5H797.5V807.7H138v49.8Z" class="g0_28"/>
<path fill-rule="evenodd" d="M137.5,932.3h660V857.5h-660v74.8Z" class="g0_28"/>
<path fill-rule="evenodd" d="M137.5,1007.3h660v-75h-660v75Z" class="g0_28"/>
<path fill-rule="evenodd" d="M137.5,1057.1h660v-49.8h-660v49.8Z" class="g0_28"/>
</svg>