<?xml version="1.0" encoding="UTF-8" standalone="no"?>
<!DOCTYPE svg PUBLIC "-//W3C//DTD SVG 1.1//EN"
"http://www.w3.org/Graphics/SVG/1.1/DTD/svg11.dtd">
<svg viewBox="0 0 935 1210" version="1.1" xmlns="http://www.w3.org/2000/svg" xmlns:xlink="http://www.w3.org/1999/xlink">
<defs>
<style type="text/css"><![CDATA[
.g0_19{
fill: #FFFFFF;
}
]]></style>
</defs>
<path fill-rule="evenodd" d="M138,184.7H797.5V110H138v74.7Z" class="g0_19"/>
<path fill-rule="evenodd" d="M138,209.6H797.5V184.7H138v24.9Z" class="g0_19"/>
<path fill-rule="evenodd" d="M138,234.5H797.5V209.6H138v24.9Z" class="g0_19"/>
<path fill-rule="evenodd" d="M166.1,259.4H797.5V234.5H166.1v24.9Z" class="g0_19"/>
<path fill-rule="evenodd" d="M138.3,334.1H797.5V259.4H138.3v74.7Z" class="g0_19"/>
<path fill-rule="evenodd" d="M138.6,383.9H797.5V334.1H138.6v49.8Z" class="g0_19"/>
<path fill-rule="evenodd" d="M166.5,408.8h631V383.9h-631v24.9Z" class="g0_19"/>
<path fill-rule="evenodd" d="M139.3,433.7H797.5V408.8H139.3v24.9Z" class="g0_19"/>
<path fill-rule="evenodd" d="M166.5,458.6h631V433.7h-631v24.9Z" class="g0_19"/>
<path fill-rule="evenodd" d="M138.3,508.4H797.5V458.6H138.3v49.8Z" class="g0_19"/>
<path fill-rule="evenodd" d="M139.8,533.3H797.5V508.4H139.8v24.9Z" class="g0_19"/>
<path fill-rule="evenodd" d="M166.8,558.2H797.5V533.3H166.8v24.9Z" class="g0_19"/>
<path fill-rule="evenodd" d="M140.4,583.2H797.5V558.3H140.4v24.9Z" class="g0_19"/>
<path fill-rule="evenodd" d="M139.8,633H797.5V583.2H139.8V633Z" class="g0_19"/>
<path fill-rule="evenodd" d="M138,657.9H797.5V633H138v24.9Z" class="g0_19"/>
<path fill-rule="evenodd" d="M166.1,682.8H797.5V657.9H166.1v24.9Z" class="g0_19"/>
<path fill-rule="evenodd" d="M165,707.7H797.5V682.8H165v24.9Z" class="g0_19"/>
<path fill-rule="evenodd" d="M137.5,757.5h660V707.7h-660v49.8Z" class="g0_19"/>
<path fill-rule="evenodd" d="M138,807.3H797.5V757.5H138v49.8Z" class="g0_19"/>
<path fill-rule="evenodd" d="M138,857.1H797.5V807.3H138v49.8Z" class="g0_19"/>
<path fill-rule="evenodd" d="M137.5,906.6h660V857.1h-660v49.5Z" class="g0_19"/>
<path fill-rule="evenodd" d="M138,981.3H797.5V906.6H138v74.7Z" class="g0_19"/>
<path fill-rule="evenodd" d="M138,1031.1H797.5V981.3H138v49.8Z" class="g0_19"/>
<path fill-rule="evenodd" d="M137.5,1080.9h660v-49.8h-660v49.8Z" class="g0_19"/>
<path fill-rule="evenodd" d="M138,1130.7H797.5v-49.8H138v49.8Z" class="g0_19"/>
</svg>