<?xml version="1.0" encoding="UTF-8" standalone="no"?>
<!DOCTYPE svg PUBLIC "-//W3C//DTD SVG 1.1//EN"
"http://www.w3.org/Graphics/SVG/1.1/DTD/svg11.dtd">
<svg viewBox="0 0 935 1210" version="1.1" xmlns="http://www.w3.org/2000/svg" xmlns:xlink="http://www.w3.org/1999/xlink">
<defs>
<style type="text/css"><![CDATA[
.g0_179{
fill: #FFFFFF;
}
]]></style>
</defs>
<path fill-rule="evenodd" d="M138,159.8H797.5V110H138v49.8Z" class="g0_179"/>
<path fill-rule="evenodd" d="M138,284.3H797.5V159.8H138V284.3Z" class="g0_179"/>
<path fill-rule="evenodd" d="M138,383.9H797.5V284.3H138v99.6Z" class="g0_179"/>
<path fill-rule="evenodd" d="M138,408.8H797.5V383.9H138v24.9Z" class="g0_179"/>
<path fill-rule="evenodd" d="M138,583.2H797.5V408.8H138V583.2Z" class="g0_179"/>
<path fill-rule="evenodd" d="M138,633H797.5V583.2H138V633Z" class="g0_179"/>
<path fill-rule="evenodd" d="M138,657.9H797.5V633H138v24.9Z" class="g0_179"/>
<path fill-rule="evenodd" d="M138,682.8H797.5V657.9H138v24.9Z" class="g0_179"/>
<path fill-rule="evenodd" d="M138,707.7H797.5V682.8H138v24.9Z" class="g0_179"/>
<path fill-rule="evenodd" d="M138,732.6H797.5V707.7H138v24.9Z" class="g0_179"/>
<path fill-rule="evenodd" d="M138,757.9H797.5V732.6H138v25.3Z" class="g0_179"/>
<path fill-rule="evenodd" d="M138,807.7H797.5V757.9H138v49.8Z" class="g0_179"/>
<path fill-rule="evenodd" d="M138,832.6H797.5V807.7H138v24.9Z" class="g0_179"/>
<path fill-rule="evenodd" d="M138,857.5H797.5V832.6H138v24.9Z" class="g0_179"/>
<path fill-rule="evenodd" d="M138,907.7H797.5V857.5H138v50.2Z" class="g0_179"/>
<path fill-rule="evenodd" d="M138,957.5H797.5V907.7H138v49.8Z" class="g0_179"/>
<path fill-rule="evenodd" d="M138,982.4H797.5V957.5H138v24.9Z" class="g0_179"/>
<path fill-rule="evenodd" d="M138,1007.3H797.5V982.4H138v24.9Z" class="g0_179"/>
<path fill-rule="evenodd" d="M138,1082H797.5v-74.7H138V1082Z" class="g0_179"/>
<path fill-rule="evenodd" d="M138,1131.8H797.5V1082H138v49.8Z" class="g0_179"/>
</svg>