<?xml version="1.0" encoding="UTF-8" standalone="no"?>
<!DOCTYPE svg PUBLIC "-//W3C//DTD SVG 1.1//EN"
"http://www.w3.org/Graphics/SVG/1.1/DTD/svg11.dtd">
<svg viewBox="0 0 935 1210" version="1.1" xmlns="http://www.w3.org/2000/svg" xmlns:xlink="http://www.w3.org/1999/xlink">
<defs>
<style type="text/css"><![CDATA[
.g0_49{
fill: #FFFFFF;
}
.g1_49{
}
]]></style>
</defs>
<path fill-rule="evenodd" d="M179.7,135.4H797.5V110H179.7v25.4Z" class="g0_49"/>
<path fill-rule="evenodd" d="M179.7,160.6H797.5V135.4H179.7v25.2Z" class="g0_49"/>
<path fill-rule="evenodd" d="M179.7,188.2H797.5V160.6H179.7v27.6Z" class="g0_49"/>
<path fill-rule="evenodd" d="M179.7,213.4H797.5V188.2H179.7v25.2Z" class="g0_49"/>
<path fill-rule="evenodd" d="M179.7,238.8H797.5V213.4H179.7v25.4Z" class="g0_49"/>
<path fill-rule="evenodd" d="M179.7,264H797.5V238.8H179.7V264Z" class="g0_49"/>
<path fill-rule="evenodd" d="M137.5,289.4h660V264h-660v25.4Z" class="g0_49"/>
<path fill-rule="evenodd" d="M137.5,314.3h660V289.4h-660v24.9Z" class="g0_49"/>
<path fill-rule="evenodd" d="M137.5,339.2h660V314.3h-660v24.9Z" class="g0_49"/>
<path fill-rule="evenodd" d="M137.5,364.1h660V339.2h-660v24.9Z" class="g0_49"/>
<path fill-rule="evenodd" d="M137.5,438.8h660V364.1h-660v74.7Z" class="g0_49"/>
<path fill-rule="evenodd" d="M138,538.4H797.5V438.8H138v99.6Z" class="g0_49"/>
<path fill-rule="evenodd" d="M138,563.3H797.5V538.4H138v24.9Z" class="g0_49"/>
<path fill-rule="evenodd" d="M138,613.1H797.5V563.3H138v49.8Z" class="g0_49"/>
<path fill-rule="evenodd" d="M138,638H797.5V613.1H138V638Z" class="g0_49"/>
<path fill-rule="evenodd" d="M138,662.9H797.5V638H138v24.9Z" class="g0_49"/>
<path fill-rule="evenodd" d="M138,688.1H797.5V662.9H138v25.2Z" class="g0_49"/>
<path fill-rule="evenodd" d="M138,762.8H797.5V688.1H138v74.7Z" class="g0_49"/>
<path fill-rule="evenodd" d="M138,787.7H797.5V762.8H138v24.9Z" class="g0_49"/>
<path fill-rule="evenodd" d="M138,812.6H797.5V787.7H138v24.9Z" class="g0_49"/>
<path fill-rule="evenodd" d="M138,837.5H797.5V812.6H138v24.9Z" class="g0_49"/>
<path fill-rule="evenodd" d="M138,862.9H797.5V837.5H138v25.4Z" class="g0_49"/>
<path fill-rule="evenodd" d="M138,987.4H797.5V862.9H138V987.4Z" class="g0_49"/>
<path fill-rule="evenodd" d="M138,1012.3H797.5V987.4H138v24.9Z" class="g0_49"/>
<path fill-rule="evenodd" d="M138,1037.2H797.5v-24.9H138v24.9Z" class="g0_49"/>
<path fill-rule="evenodd" d="M138,1062.1H797.5v-24.9H138v24.9Z" class="g0_49"/>
<path fill-rule="evenodd" d="M138,1111.9H797.5v-49.8H138v49.8Z" class="g0_49"/>
<path fill-rule="evenodd" d="M138,1137.1H797.5v-25.2H138v25.2Z" class="g0_49"/>
<path fill-rule="evenodd" d="M179.7,188.2H797.5v-.6H179.7v.6Z" class="g1_49"/>
</svg>