<?xml version="1.0" encoding="UTF-8" standalone="no"?>
<!DOCTYPE svg PUBLIC "-//W3C//DTD SVG 1.1//EN"
"http://www.w3.org/Graphics/SVG/1.1/DTD/svg11.dtd">
<svg viewBox="0 0 935 1210" version="1.1" xmlns="http://www.w3.org/2000/svg" xmlns:xlink="http://www.w3.org/1999/xlink">
<defs>
<style type="text/css"><![CDATA[
.g0_98{
fill: #FFFFFF;
}
]]></style>
</defs>
<path fill-rule="evenodd" d="M137.5,134.9h660V110h-660v24.9Z" class="g0_98"/>
<path fill-rule="evenodd" d="M137.5,159.8h660V134.9h-660v24.9Z" class="g0_98"/>
<path fill-rule="evenodd" d="M137.5,209.6h660V159.8h-660v49.8Z" class="g0_98"/>
<path fill-rule="evenodd" d="M137.5,260.2h660V209.6h-660v50.6Z" class="g0_98"/>
<path fill-rule="evenodd" d="M137.5,310.8h660V260.2h-660v50.6Z" class="g0_98"/>
<path fill-rule="evenodd" d="M138.3,385.6H797.5V310.8H138.3v74.8Z" class="g0_98"/>
<path fill-rule="evenodd" d="M137.5,435.4h660V385.6h-660v49.8Z" class="g0_98"/>
<path fill-rule="evenodd" d="M137.5,460.3h660V435.4h-660v24.9Z" class="g0_98"/>
<path fill-rule="evenodd" d="M137.5,510.1h660V460.3h-660v49.8Z" class="g0_98"/>
<path fill-rule="evenodd" d="M137.5,559.9h660V510.1h-660v49.8Z" class="g0_98"/>
<path fill-rule="evenodd" d="M137.5,584.8h660V559.9h-660v24.9Z" class="g0_98"/>
<path fill-rule="evenodd" d="M137.5,609.7h660V584.8h-660v24.9Z" class="g0_98"/>
<path fill-rule="evenodd" d="M137.5,684.4h660V609.7h-660v74.7Z" class="g0_98"/>
<path fill-rule="evenodd" d="M137.5,709.3h660V684.4h-660v24.9Z" class="g0_98"/>
<path fill-rule="evenodd" d="M137.5,734.3h660v-25h-660v25Z" class="g0_98"/>
<path fill-rule="evenodd" d="M137.5,759.2h660V734.3h-660v24.9Z" class="g0_98"/>
<path fill-rule="evenodd" d="M137.5,809h660V759.2h-660V809Z" class="g0_98"/>
<path fill-rule="evenodd" d="M137.5,833.9h660V809h-660v24.9Z" class="g0_98"/>
<path fill-rule="evenodd" d="M137.5,883.7h660V833.9h-660v49.8Z" class="g0_98"/>
<path fill-rule="evenodd" d="M137.5,908.6h660V883.7h-660v24.9Z" class="g0_98"/>
<path fill-rule="evenodd" d="M137.5,933.5h660V908.6h-660v24.9Z" class="g0_98"/>
<path fill-rule="evenodd" d="M137.5,958.7h660V933.5h-660v25.2Z" class="g0_98"/>
<path fill-rule="evenodd" d="M138,1008.5H797.5V958.7H138v49.8Z" class="g0_98"/>
<path fill-rule="evenodd" d="M165,1033.4H797.5v-24.9H165v24.9Z" class="g0_98"/>
<path fill-rule="evenodd" d="M166.1,1058.3H797.5v-24.9H166.1v24.9Z" class="g0_98"/>
<path fill-rule="evenodd" d="M137.5,1108.1h660v-49.8h-660v49.8Z" class="g0_98"/>
<path fill-rule="evenodd" d="M137.5,1133h660v-24.9h-660V1133Z" class="g0_98"/>
</svg>