<?xml version="1.0" encoding="UTF-8" standalone="no"?>
<!DOCTYPE svg PUBLIC "-//W3C//DTD SVG 1.1//EN"
"http://www.w3.org/Graphics/SVG/1.1/DTD/svg11.dtd">
<svg viewBox="0 0 935 1210" version="1.1" xmlns="http://www.w3.org/2000/svg" xmlns:xlink="http://www.w3.org/1999/xlink">
<defs>
<style type="text/css"><![CDATA[
.g0_9{
fill: #FFFFFF;
}
]]></style>
</defs>
<path fill-rule="evenodd" d="M137.5,133.8h660V110h-660v23.8Z" class="g0_9"/>
<path fill-rule="evenodd" d="M137.5,157.7h660V133.8h-660v23.9Z" class="g0_9"/>
<path fill-rule="evenodd" d="M137.5,181.5h660V157.7h-660v23.8Z" class="g0_9"/>
<path fill-rule="evenodd" d="M137.5,205.3h660V181.5h-660v23.8Z" class="g0_9"/>
<path fill-rule="evenodd" d="M137.5,229.2h660V205.3h-660v23.9Z" class="g0_9"/>
<path fill-rule="evenodd" d="M137.5,276.8h660V229.2h-660v47.6Z" class="g0_9"/>
<path fill-rule="evenodd" d="M137.5,324.5h660V276.8h-660v47.7Z" class="g0_9"/>
<path fill-rule="evenodd" d="M137.5,396h660V324.5h-660V396Z" class="g0_9"/>
<path fill-rule="evenodd" d="M137.5,419.8h660V396h-660v23.8Z" class="g0_9"/>
<path fill-rule="evenodd" d="M137.5,443.7h660V419.8h-660v23.9Z" class="g0_9"/>
<path fill-rule="evenodd" d="M137.5,467.5h660V443.7h-660v23.8Z" class="g0_9"/>
<path fill-rule="evenodd" d="M137.5,515.2h660V467.5h-660v47.7Z" class="g0_9"/>
<path fill-rule="evenodd" d="M137.5,539h660V515.2h-660V539Z" class="g0_9"/>
<path fill-rule="evenodd" d="M137.5,562.8h660V539h-660v23.8Z" class="g0_9"/>
<path fill-rule="evenodd" d="M137.5,586.7h660V562.8h-660v23.9Z" class="g0_9"/>
<path fill-rule="evenodd" d="M137.5,658.2h660V586.7h-660v71.5Z" class="g0_9"/>
<path fill-rule="evenodd" d="M137.5,682h660V658.2h-660V682Z" class="g0_9"/>
<path fill-rule="evenodd" d="M137.5,705.8h660V682h-660v23.8Z" class="g0_9"/>
<path fill-rule="evenodd" d="M137.5,730.1h660V705.8h-660v24.3Z" class="g0_9"/>
<path fill-rule="evenodd" d="M137.5,754h660V730.1h-660V754Z" class="g0_9"/>
<path fill-rule="evenodd" d="M137.5,777.8h660V754h-660v23.8Z" class="g0_9"/>
<path fill-rule="evenodd" d="M137.5,801.6h660V777.8h-660v23.8Z" class="g0_9"/>
<path fill-rule="evenodd" d="M137.5,825.5h660V801.6h-660v23.9Z" class="g0_9"/>
<path fill-rule="evenodd" d="M137.5,849.3h660V825.5h-660v23.8Z" class="g0_9"/>
<path fill-rule="evenodd" d="M137.5,873.1h660V849.3h-660v23.8Z" class="g0_9"/>
<path fill-rule="evenodd" d="M137.5,897h660V873.1h-660V897Z" class="g0_9"/>
<path fill-rule="evenodd" d="M137.5,920.8h660V897h-660v23.8Z" class="g0_9"/>
<path fill-rule="evenodd" d="M137.5,968.5h660V920.8h-660v47.7Z" class="g0_9"/>
<path fill-rule="evenodd" d="M137.5,992.3h660V968.5h-660v23.8Z" class="g0_9"/>
<path fill-rule="evenodd" d="M137.5,1016.1h660V992.3h-660v23.8Z" class="g0_9"/>
<path fill-rule="evenodd" d="M137.5,1040h660v-23.9h-660V1040Z" class="g0_9"/>
<path fill-rule="evenodd" d="M137.5,1063.8h660V1040h-660v23.8Z" class="g0_9"/>
<path fill-rule="evenodd" d="M137.5,1135.6h660v-71.8h-660v71.8Z" class="g0_9"/>
</svg>