<?xml version="1.0" encoding="UTF-8" standalone="no"?>
<!DOCTYPE svg PUBLIC "-//W3C//DTD SVG 1.1//EN"
"http://www.w3.org/Graphics/SVG/1.1/DTD/svg11.dtd">
<svg viewBox="0 0 935 1210" version="1.1" xmlns="http://www.w3.org/2000/svg" xmlns:xlink="http://www.w3.org/1999/xlink">
<defs>
<style type="text/css"><![CDATA[
.g0_125{
fill: #FFFFFF;
}
]]></style>
</defs>
<path fill-rule="evenodd" d="M137.5,159.8h660V110h-660v49.8Z" class="g0_125"/>
<path fill-rule="evenodd" d="M137.5,184.7h660V159.8h-660v24.9Z" class="g0_125"/>
<path fill-rule="evenodd" d="M137.5,209.6h660V184.7h-660v24.9Z" class="g0_125"/>
<path fill-rule="evenodd" d="M137.5,234.5h660V209.6h-660v24.9Z" class="g0_125"/>
<path fill-rule="evenodd" d="M137.5,284.3h660V234.5h-660v49.8Z" class="g0_125"/>
<path fill-rule="evenodd" d="M137.5,309.2h660V284.3h-660v24.9Z" class="g0_125"/>
<path fill-rule="evenodd" d="M137.5,334.1h660V309.2h-660v24.9Z" class="g0_125"/>
<path fill-rule="evenodd" d="M137.5,359h660V334.1h-660V359Z" class="g0_125"/>
<path fill-rule="evenodd" d="M137.5,433.7h660V359h-660v74.7Z" class="g0_125"/>
<path fill-rule="evenodd" d="M137.5,459.1h660V433.7h-660v25.4Z" class="g0_125"/>
<path fill-rule="evenodd" d="M137.5,484h660V459.1h-660V484Z" class="g0_125"/>
<path fill-rule="evenodd" d="M137.5,508.9h660V484h-660v24.9Z" class="g0_125"/>
<path fill-rule="evenodd" d="M137.5,633.4h660V508.9h-660V633.4Z" class="g0_125"/>
<path fill-rule="evenodd" d="M137.5,658.6h660V633.4h-660v25.2Z" class="g0_125"/>
<path fill-rule="evenodd" d="M137.5,758.2h660V658.6h-660v99.6Z" class="g0_125"/>
<path fill-rule="evenodd" d="M137.5,783.1h660V758.2h-660v24.9Z" class="g0_125"/>
<path fill-rule="evenodd" d="M137.5,808h660V783.1h-660V808Z" class="g0_125"/>
<path fill-rule="evenodd" d="M137.5,832.9h660V808h-660v24.9Z" class="g0_125"/>
<path fill-rule="evenodd" d="M137.5,882.8h660V832.9h-660v49.9Z" class="g0_125"/>
<path fill-rule="evenodd" d="M137.5,907.7h660V882.8h-660v24.9Z" class="g0_125"/>
<path fill-rule="evenodd" d="M137.5,957.5h660V907.7h-660v49.8Z" class="g0_125"/>
<path fill-rule="evenodd" d="M137.5,1007.3h660V957.5h-660v49.8Z" class="g0_125"/>
<path fill-rule="evenodd" d="M137.5,1032.2h660v-24.9h-660v24.9Z" class="g0_125"/>
<path fill-rule="evenodd" d="M137.5,1057.1h660v-24.9h-660v24.9Z" class="g0_125"/>
<path fill-rule="evenodd" d="M137.5,1082h660v-24.9h-660V1082Z" class="g0_125"/>
<path fill-rule="evenodd" d="M137.5,1131.8h660V1082h-660v49.8Z" class="g0_125"/>
<path fill-rule="evenodd" d="M137.5,1149.5h660v-17.7h-660v17.7Z" class="g0_125"/>
</svg>