<?xml version="1.0" encoding="UTF-8" standalone="no"?>
<!DOCTYPE svg PUBLIC "-//W3C//DTD SVG 1.1//EN"
"http://www.w3.org/Graphics/SVG/1.1/DTD/svg11.dtd">
<svg viewBox="0 0 935 1210" version="1.1" xmlns="http://www.w3.org/2000/svg" xmlns:xlink="http://www.w3.org/1999/xlink">
<defs>
<style type="text/css"><![CDATA[
.g0_21{
fill: #FFFFFF;
}
]]></style>
</defs>
<path fill-rule="evenodd" d="M166.1,134.9H797.5V110H166.1v24.9Z" class="g0_21"/>
<path fill-rule="evenodd" d="M137.5,184.7h660V134.9h-660v49.8Z" class="g0_21"/>
<path fill-rule="evenodd" d="M137.5,234.5h660V184.7h-660v49.8Z" class="g0_21"/>
<path fill-rule="evenodd" d="M137.5,284.3h660V234.5h-660v49.8Z" class="g0_21"/>
<path fill-rule="evenodd" d="M138.3,359H797.5V284.3H138.3V359Z" class="g0_21"/>
<path fill-rule="evenodd" d="M138.6,383.9H797.5V359H138.6v24.9Z" class="g0_21"/>
<path fill-rule="evenodd" d="M165,408.8H797.5V383.9H165v24.9Z" class="g0_21"/>
<path fill-rule="evenodd" d="M139.8,433.7H797.5V408.8H139.8v24.9Z" class="g0_21"/>
<path fill-rule="evenodd" d="M139,458.6H797.5V433.7H139v24.9Z" class="g0_21"/>
<path fill-rule="evenodd" d="M139,508.4H797.5V458.6H139v49.8Z" class="g0_21"/>
<path fill-rule="evenodd" d="M138.6,558.2H797.5V508.4H138.6v49.8Z" class="g0_21"/>
<path fill-rule="evenodd" d="M166.1,583.2H797.5V558.3H166.1v24.9Z" class="g0_21"/>
<path fill-rule="evenodd" d="M139.3,633H797.5V583.2H139.3V633Z" class="g0_21"/>
<path fill-rule="evenodd" d="M165.8,657.9H797.5V633H165.8v24.9Z" class="g0_21"/>
<path fill-rule="evenodd" d="M137.5,707.7h660V657.9h-660v49.8Z" class="g0_21"/>
<path fill-rule="evenodd" d="M137.5,782.4h660V707.7h-660v74.7Z" class="g0_21"/>
<path fill-rule="evenodd" d="M138,882H797.5V782.4H138V882Z" class="g0_21"/>
<path fill-rule="evenodd" d="M138.3,931.8H797.5V882H138.3v49.8Z" class="g0_21"/>
<path fill-rule="evenodd" d="M138,1031.4H797.5V931.8H138v99.6Z" class="g0_21"/>
<path fill-rule="evenodd" d="M138,1106.6H797.5v-75.2H138v75.2Z" class="g0_21"/>
<path fill-rule="evenodd" d="M166.1,1131.5H797.5v-24.9H166.1v24.9Z" class="g0_21"/>
</svg>