<?xml version="1.0" encoding="UTF-8" standalone="no"?>
<!DOCTYPE svg PUBLIC "-//W3C//DTD SVG 1.1//EN"
"http://www.w3.org/Graphics/SVG/1.1/DTD/svg11.dtd">
<svg viewBox="0 0 935 1210" version="1.1" xmlns="http://www.w3.org/2000/svg" xmlns:xlink="http://www.w3.org/1999/xlink">
<defs>
<style type="text/css"><![CDATA[
.g0_113{
fill: #FFFFFF;
}
]]></style>
</defs>
<path fill-rule="evenodd" d="M138.3,160.6H797.5V110H138.3v50.6Z" class="g0_113"/>
<path fill-rule="evenodd" d="M137.5,185.5h660V160.6h-660v24.9Z" class="g0_113"/>
<path fill-rule="evenodd" d="M137.5,210.4h660V185.5h-660v24.9Z" class="g0_113"/>
<path fill-rule="evenodd" d="M137.5,235.3h660V210.4h-660v24.9Z" class="g0_113"/>
<path fill-rule="evenodd" d="M137.5,285.1h660V235.3h-660v49.8Z" class="g0_113"/>
<path fill-rule="evenodd" d="M137.5,334.9h660V285.1h-660v49.8Z" class="g0_113"/>
<path fill-rule="evenodd" d="M137.5,409.6h660V334.9h-660v74.7Z" class="g0_113"/>
<path fill-rule="evenodd" d="M137.5,534.1h660V409.6h-660V534.1Z" class="g0_113"/>
<path fill-rule="evenodd" d="M137.5,634.2h660V534.1h-660V634.2Z" class="g0_113"/>
<path fill-rule="evenodd" d="M137.5,684h660V634.2h-660V684Z" class="g0_113"/>
<path fill-rule="evenodd" d="M137.5,708.9h660V684h-660v24.9Z" class="g0_113"/>
<path fill-rule="evenodd" d="M137.5,758.7h660V708.9h-660v49.8Z" class="g0_113"/>
<path fill-rule="evenodd" d="M137.5,834.2h660V758.7h-660v75.5Z" class="g0_113"/>
<path fill-rule="evenodd" d="M137.5,859.1h660V834.2h-660v24.9Z" class="g0_113"/>
<path fill-rule="evenodd" d="M137.5,908.9h660V859.1h-660v49.8Z" class="g0_113"/>
<path fill-rule="evenodd" d="M137.5,933.8h660V908.9h-660v24.9Z" class="g0_113"/>
<path fill-rule="evenodd" d="M137.5,958.7h660V933.8h-660v24.9Z" class="g0_113"/>
<path fill-rule="evenodd" d="M137.5,1008.5h660V958.7h-660v49.8Z" class="g0_113"/>
<path fill-rule="evenodd" d="M137.5,1058.3h660v-49.8h-660v49.8Z" class="g0_113"/>
<path fill-rule="evenodd" d="M137.5,1083.2h660v-24.9h-660v24.9Z" class="g0_113"/>
<path fill-rule="evenodd" d="M137.5,1133h660v-49.8h-660V1133Z" class="g0_113"/>
</svg>