<?xml version="1.0" encoding="UTF-8" standalone="no"?>
<!DOCTYPE svg PUBLIC "-//W3C//DTD SVG 1.1//EN"
"http://www.w3.org/Graphics/SVG/1.1/DTD/svg11.dtd">
<svg viewBox="0 0 935 1210" version="1.1" xmlns="http://www.w3.org/2000/svg" xmlns:xlink="http://www.w3.org/1999/xlink">
<defs>
<style type="text/css"><![CDATA[
.g0_41{
fill: #FFFFFF;
}
]]></style>
</defs>
<path fill-rule="evenodd" d="M137.5,134.9h660V110h-660v24.9Z" class="g0_41"/>
<path fill-rule="evenodd" d="M138.3,159.8H797.5V134.9H138.3v24.9Z" class="g0_41"/>
<path fill-rule="evenodd" d="M166.1,184.7H797.5V159.8H166.1v24.9Z" class="g0_41"/>
<path fill-rule="evenodd" d="M166.1,209.6H797.5V184.7H166.1v24.9Z" class="g0_41"/>
<path fill-rule="evenodd" d="M165.8,234.5H797.5V209.6H165.8v24.9Z" class="g0_41"/>
<path fill-rule="evenodd" d="M138,309.2H797.5V234.5H138v74.7Z" class="g0_41"/>
<path fill-rule="evenodd" d="M166.5,334.1h631V309.2h-631v24.9Z" class="g0_41"/>
<path fill-rule="evenodd" d="M166.5,359h631V334.1h-631V359Z" class="g0_41"/>
<path fill-rule="evenodd" d="M137.5,459.1h660V359h-660V459.1Z" class="g0_41"/>
<path fill-rule="evenodd" d="M137.5,484h660V459.1h-660V484Z" class="g0_41"/>
<path fill-rule="evenodd" d="M137.5,508.9h660V484h-660v24.9Z" class="g0_41"/>
<path fill-rule="evenodd" d="M137.5,533.8h660V508.9h-660v24.9Z" class="g0_41"/>
<path fill-rule="evenodd" d="M137.5,558.7h660V533.8h-660v24.9Z" class="g0_41"/>
<path fill-rule="evenodd" d="M138,608.5H797.5V558.7H138v49.8Z" class="g0_41"/>
<path fill-rule="evenodd" d="M137.5,708.1h660V608.5h-660v99.6Z" class="g0_41"/>
<path fill-rule="evenodd" d="M166.5,733h631V708.1h-631V733Z" class="g0_41"/>
<path fill-rule="evenodd" d="M139,782.8H797.5V733H139v49.8Z" class="g0_41"/>
<path fill-rule="evenodd" d="M138.6,832.6H797.5V782.8H138.6v49.8Z" class="g0_41"/>
<path fill-rule="evenodd" d="M166.1,857.5H797.5V832.6H166.1v24.9Z" class="g0_41"/>
<path fill-rule="evenodd" d="M138.6,907.3H797.5V857.5H138.6v49.8Z" class="g0_41"/>
<path fill-rule="evenodd" d="M139.3,982.1H797.5V907.3H139.3v74.8Z" class="g0_41"/>
<path fill-rule="evenodd" d="M137.5,1131.5h660V982.1h-660v149.4Z" class="g0_41"/>
</svg>