<?xml version="1.0" encoding="UTF-8" standalone="no"?>
<!DOCTYPE svg PUBLIC "-//W3C//DTD SVG 1.1//EN"
"http://www.w3.org/Graphics/SVG/1.1/DTD/svg11.dtd">
<svg viewBox="0 0 935 1210" version="1.1" xmlns="http://www.w3.org/2000/svg" xmlns:xlink="http://www.w3.org/1999/xlink">
<defs>
<style type="text/css"><![CDATA[
.g0_137{
fill: #FFFFFF;
}
]]></style>
</defs>
<path fill-rule="evenodd" d="M137.5,135.4h660V110h-660v25.4Z" class="g0_137"/>
<path fill-rule="evenodd" d="M138.3,235H797.5V135.4H138.3V235Z" class="g0_137"/>
<path fill-rule="evenodd" d="M137.5,259.9h660V235h-660v24.9Z" class="g0_137"/>
<path fill-rule="evenodd" d="M137.5,284.8h660V259.9h-660v24.9Z" class="g0_137"/>
<path fill-rule="evenodd" d="M137.5,309.7h660V284.8h-660v24.9Z" class="g0_137"/>
<path fill-rule="evenodd" d="M137.5,334.6h660V309.7h-660v24.9Z" class="g0_137"/>
<path fill-rule="evenodd" d="M137.5,384.4h660V334.6h-660v49.8Z" class="g0_137"/>
<path fill-rule="evenodd" d="M137.5,409.3h660V384.4h-660v24.9Z" class="g0_137"/>
<path fill-rule="evenodd" d="M137.5,533.8h660V409.3h-660V533.8Z" class="g0_137"/>
<path fill-rule="evenodd" d="M137.5,608.5h660V533.8h-660v74.7Z" class="g0_137"/>
<path fill-rule="evenodd" d="M137.5,683.2h660V608.5h-660v74.7Z" class="g0_137"/>
<path fill-rule="evenodd" d="M137.5,733h660V683.2h-660V733Z" class="g0_137"/>
<path fill-rule="evenodd" d="M137.5,832.6h660V733h-660v99.6Z" class="g0_137"/>
<path fill-rule="evenodd" d="M137.5,882.4h660V832.6h-660v49.8Z" class="g0_137"/>
<path fill-rule="evenodd" d="M137.5,1007h660V882.4h-660V1007Z" class="g0_137"/>
<path fill-rule="evenodd" d="M137.5,1106.6h660V1007h-660v99.6Z" class="g0_137"/>
<path fill-rule="evenodd" d="M137.5,1131.5h660v-24.9h-660v24.9Z" class="g0_137"/>
</svg>