<?xml version="1.0" encoding="UTF-8" standalone="no"?>
<!DOCTYPE svg PUBLIC "-//W3C//DTD SVG 1.1//EN"
"http://www.w3.org/Graphics/SVG/1.1/DTD/svg11.dtd">
<svg viewBox="0 0 935 1210" version="1.1" xmlns="http://www.w3.org/2000/svg" xmlns:xlink="http://www.w3.org/1999/xlink">
<defs>
<style type="text/css"><![CDATA[
.g0_77{
fill: #FFFFFF;
}
]]></style>
</defs>
<path fill-rule="evenodd" d="M137.5,134.9h660V110h-660v24.9Z" class="g0_77"/>
<path fill-rule="evenodd" d="M137.5,159.5h660V134.9h-660v24.6Z" class="g0_77"/>
<path fill-rule="evenodd" d="M137.5,184.4h660V159.5h-660v24.9Z" class="g0_77"/>
<path fill-rule="evenodd" d="M137.5,209.3h660V184.4h-660v24.9Z" class="g0_77"/>
<path fill-rule="evenodd" d="M137.5,234.2h660V209.3h-660v24.9Z" class="g0_77"/>
<path fill-rule="evenodd" d="M137.5,284h660V234.2h-660V284Z" class="g0_77"/>
<path fill-rule="evenodd" d="M137.5,508.6h660V284h-660V508.6Z" class="g0_77"/>
<path fill-rule="evenodd" d="M137.5,608.2h660V508.6h-660v99.6Z" class="g0_77"/>
<path fill-rule="evenodd" d="M137.5,757.6h660V608.2h-660V757.6Z" class="g0_77"/>
<path fill-rule="evenodd" d="M137.5,832.3h660V757.6h-660v74.7Z" class="g0_77"/>
<path fill-rule="evenodd" d="M137.5,931.9h660V832.3h-660v99.6Z" class="g0_77"/>
<path fill-rule="evenodd" d="M137.5,981.8h660V931.9h-660v49.9Z" class="g0_77"/>
<path fill-rule="evenodd" d="M137.5,1006.7h660v-25h-660v25Z" class="g0_77"/>
<path fill-rule="evenodd" d="M137.5,1031.6h660v-24.9h-660v24.9Z" class="g0_77"/>
<path fill-rule="evenodd" d="M137.5,1056.5h660v-24.9h-660v24.9Z" class="g0_77"/>
<path fill-rule="evenodd" d="M137.5,1081.4h660v-24.9h-660v24.9Z" class="g0_77"/>
<path fill-rule="evenodd" d="M137.5,1131.2h660v-49.8h-660v49.8Z" class="g0_77"/>
</svg>