<?xml version="1.0" encoding="UTF-8" standalone="no"?>
<!DOCTYPE svg PUBLIC "-//W3C//DTD SVG 1.1//EN"
"http://www.w3.org/Graphics/SVG/1.1/DTD/svg11.dtd">
<svg viewBox="0 0 935 1210" version="1.1" xmlns="http://www.w3.org/2000/svg" xmlns:xlink="http://www.w3.org/1999/xlink">
<defs>
<style type="text/css"><![CDATA[
.g0_11{
fill: #FFFFFF;
}
]]></style>
</defs>
<path fill-rule="evenodd" d="M137.5,184.7h660V110h-660v74.7Z" class="g0_11"/>
<path fill-rule="evenodd" d="M137.5,234.5h660V184.7h-660v49.8Z" class="g0_11"/>
<path fill-rule="evenodd" d="M137.5,309.2h660V234.5h-660v74.7Z" class="g0_11"/>
<path fill-rule="evenodd" d="M137.5,334.1h660V309.2h-660v24.9Z" class="g0_11"/>
<path fill-rule="evenodd" d="M137.5,453.3h660V334.1h-660V453.3Z" class="g0_11"/>
<path fill-rule="evenodd" d="M137.5,477.1h660V453.3h-660v23.8Z" class="g0_11"/>
<path fill-rule="evenodd" d="M137.5,524.8h660V477.1h-660v47.7Z" class="g0_11"/>
<path fill-rule="evenodd" d="M137.5,548.6h660V524.8h-660v23.8Z" class="g0_11"/>
<path fill-rule="evenodd" d="M137.5,620.1h660V548.6h-660v71.5Z" class="g0_11"/>
<path fill-rule="evenodd" d="M137.5,667.8h660V620.1h-660v47.7Z" class="g0_11"/>
<path fill-rule="evenodd" d="M138,715.5H797.5V667.8H138v47.7Z" class="g0_11"/>
<path fill-rule="evenodd" d="M165.5,739.3h632V715.5h-632v23.8Z" class="g0_11"/>
<path fill-rule="evenodd" d="M138.3,787H797.5V739.3H138.3V787Z" class="g0_11"/>
<path fill-rule="evenodd" d="M165.5,810.8h632V787h-632v23.8Z" class="g0_11"/>
<path fill-rule="evenodd" d="M139.3,858.5H797.5V810.8H139.3v47.7Z" class="g0_11"/>
<path fill-rule="evenodd" d="M140.1,906.1H797.5V858.5H140.1v47.6Z" class="g0_11"/>
<path fill-rule="evenodd" d="M137.5,930h660V906.1h-660V930Z" class="g0_11"/>
<path fill-rule="evenodd" d="M137.5,978.1h660V930h-660v48.1Z" class="g0_11"/>
<path fill-rule="evenodd" d="M137.5,1002.2h660V978.1h-660v24.1Z" class="g0_11"/>
<path fill-rule="evenodd" d="M137.5,1049.9h660v-47.7h-660v47.7Z" class="g0_11"/>
<path fill-rule="evenodd" d="M137.5,1097.6h660v-47.7h-660v47.7Z" class="g0_11"/>
<path fill-rule="evenodd" d="M137.5,1145.2h660v-47.6h-660v47.6Z" class="g0_11"/>
</svg>