<?xml version="1.0" encoding="UTF-8" standalone="no"?>
<!DOCTYPE svg PUBLIC "-//W3C//DTD SVG 1.1//EN"
"http://www.w3.org/Graphics/SVG/1.1/DTD/svg11.dtd">
<svg viewBox="0 0 935 1210" version="1.1" xmlns="http://www.w3.org/2000/svg" xmlns:xlink="http://www.w3.org/1999/xlink">
<defs>
<style type="text/css"><![CDATA[
.g0_59{
fill: #FFFFFF;
}
]]></style>
</defs>
<path fill-rule="evenodd" d="M137.5,134.9h660V110h-660v24.9Z" class="g0_59"/>
<path fill-rule="evenodd" d="M137.5,185.5h660V134.9h-660v50.6Z" class="g0_59"/>
<path fill-rule="evenodd" d="M137.5,236h660V185.5h-660V236Z" class="g0_59"/>
<path fill-rule="evenodd" d="M137.5,285.8h660V236h-660v49.8Z" class="g0_59"/>
<path fill-rule="evenodd" d="M137.5,310.8h660v-25h-660v25Z" class="g0_59"/>
<path fill-rule="evenodd" d="M137.5,361.3h660V310.8h-660v50.5Z" class="g0_59"/>
<path fill-rule="evenodd" d="M138,461.4H797.5V361.3H138V461.4Z" class="g0_59"/>
<path fill-rule="evenodd" d="M137.5,511.2h660V461.4h-660v49.8Z" class="g0_59"/>
<path fill-rule="evenodd" d="M137.5,536.1h660V511.2h-660v24.9Z" class="g0_59"/>
<path fill-rule="evenodd" d="M137.5,561h660V536.1h-660V561Z" class="g0_59"/>
<path fill-rule="evenodd" d="M137.5,585.9h660V561h-660v24.9Z" class="g0_59"/>
<path fill-rule="evenodd" d="M137.5,610.8h660V585.9h-660v24.9Z" class="g0_59"/>
<path fill-rule="evenodd" d="M137.5,685.5h660V610.8h-660v74.7Z" class="g0_59"/>
<path fill-rule="evenodd" d="M137.5,760.2h660V685.5h-660v74.7Z" class="g0_59"/>
<path fill-rule="evenodd" d="M137.5,785.1h660V760.2h-660v24.9Z" class="g0_59"/>
<path fill-rule="evenodd" d="M137.5,834.9h660V785.1h-660v49.8Z" class="g0_59"/>
<path fill-rule="evenodd" d="M137.5,859.8h660V834.9h-660v24.9Z" class="g0_59"/>
<path fill-rule="evenodd" d="M137.5,884.7h660V859.8h-660v24.9Z" class="g0_59"/>
<path fill-rule="evenodd" d="M137.5,959.4h660V884.7h-660v74.7Z" class="g0_59"/>
<path fill-rule="evenodd" d="M137.5,1034.2h660V959.4h-660v74.8Z" class="g0_59"/>
<path fill-rule="evenodd" d="M137.5,1059.1h660v-24.9h-660v24.9Z" class="g0_59"/>
<path fill-rule="evenodd" d="M137.5,1133.8h660v-74.7h-660v74.7Z" class="g0_59"/>
</svg>