<?xml version="1.0" encoding="UTF-8" standalone="no"?>
<!DOCTYPE svg PUBLIC "-//W3C//DTD SVG 1.1//EN"
"http://www.w3.org/Graphics/SVG/1.1/DTD/svg11.dtd">
<svg viewBox="0 0 935 1210" version="1.1" xmlns="http://www.w3.org/2000/svg" xmlns:xlink="http://www.w3.org/1999/xlink">
<defs>
<style type="text/css"><![CDATA[
.g0_32{
fill: #FFFFFF;
}
]]></style>
</defs>
<path fill-rule="evenodd" d="M138.3,134.9H797.5V110H138.3v24.9Z" class="g0_32"/>
<path fill-rule="evenodd" d="M166.1,159.8H797.5V134.9H166.1v24.9Z" class="g0_32"/>
<path fill-rule="evenodd" d="M138.3,209.6H797.5V159.8H138.3v49.8Z" class="g0_32"/>
<path fill-rule="evenodd" d="M138.3,259.4H797.5V209.6H138.3v49.8Z" class="g0_32"/>
<path fill-rule="evenodd" d="M138.6,309.2H797.5V259.4H138.6v49.8Z" class="g0_32"/>
<path fill-rule="evenodd" d="M139,334.1H797.5V309.2H139v24.9Z" class="g0_32"/>
<path fill-rule="evenodd" d="M138.6,558.2H797.5V334.1H138.6V558.2Z" class="g0_32"/>
<path fill-rule="evenodd" d="M137.5,633h660V558.2h-660V633Z" class="g0_32"/>
<path fill-rule="evenodd" d="M137.5,757.5h660V633h-660V757.5Z" class="g0_32"/>
<path fill-rule="evenodd" d="M138,832.2H797.5V757.5H138v74.7Z" class="g0_32"/>
<path fill-rule="evenodd" d="M165.5,857.1h632V832.2h-632v24.9Z" class="g0_32"/>
<path fill-rule="evenodd" d="M137.5,906.9h660V857.1h-660v49.8Z" class="g0_32"/>
<path fill-rule="evenodd" d="M166.5,931.8h631V906.9h-631v24.9Z" class="g0_32"/>
<path fill-rule="evenodd" d="M137.5,981.6h660V931.8h-660v49.8Z" class="g0_32"/>
<path fill-rule="evenodd" d="M138.3,1006.5H797.5V981.6H138.3v24.9Z" class="g0_32"/>
<path fill-rule="evenodd" d="M138,1081.2H797.5v-74.7H138v74.7Z" class="g0_32"/>
<path fill-rule="evenodd" d="M138.6,1131H797.5v-49.8H138.6V1131Z" class="g0_32"/>
</svg>