<?xml version="1.0" encoding="UTF-8" standalone="no"?>
<!DOCTYPE svg PUBLIC "-//W3C//DTD SVG 1.1//EN"
"http://www.w3.org/Graphics/SVG/1.1/DTD/svg11.dtd">
<svg viewBox="0 0 935 1210" version="1.1" xmlns="http://www.w3.org/2000/svg" xmlns:xlink="http://www.w3.org/1999/xlink">
<defs>
<style type="text/css"><![CDATA[
.g0_29{
fill: #FFFFFF;
}
.g1_29{
}
]]></style>
</defs>
<path fill-rule="evenodd" d="M165.8,134.9H797.5V110H165.8v24.9Z" class="g0_29"/>
<path fill-rule="evenodd" d="M137.5,234.5h660V134.9h-660v99.6Z" class="g0_29"/>
<path fill-rule="evenodd" d="M137.5,309.2h660V234.5h-660v74.7Z" class="g0_29"/>
<path fill-rule="evenodd" d="M164.7,334.1H797.5V309.2H164.7v24.9Z" class="g0_29"/>
<path fill-rule="evenodd" d="M138.6,383.9H797.5V334.1H138.6v49.8Z" class="g0_29"/>
<path fill-rule="evenodd" d="M138.6,458.6H797.5V383.9H138.6v74.7Z" class="g0_29"/>
<path fill-rule="evenodd" d="M165,484H797.5V458.6H165V484Z" class="g0_29"/>
<path fill-rule="evenodd" d="M138.6,633.4H797.5V484H138.6V633.4Z" class="g0_29"/>
<path fill-rule="evenodd" d="M138,733H797.5V633.4H138V733Z" class="g0_29"/>
<path fill-rule="evenodd" d="M138,757.9H797.5V733H138v24.9Z" class="g0_29"/>
<path fill-rule="evenodd" d="M138,782.8H797.5V757.9H138v24.9Z" class="g0_29"/>
<path fill-rule="evenodd" d="M138,810H797.5V782.8H138V810Z" class="g0_29"/>
<path fill-rule="evenodd" d="M138,834.9H797.5V810H138v24.9Z" class="g0_29"/>
<path fill-rule="evenodd" d="M138,859.8H797.5V834.9H138v24.9Z" class="g0_29"/>
<path fill-rule="evenodd" d="M138,884.7H797.5V859.8H138v24.9Z" class="g0_29"/>
<path fill-rule="evenodd" d="M137.5,909.6h660V884.7h-660v24.9Z" class="g0_29"/>
<path fill-rule="evenodd" d="M138.6,934.5H797.5V909.6H138.6v24.9Z" class="g0_29"/>
<path fill-rule="evenodd" d="M138.6,959.4H797.5V934.5H138.6v24.9Z" class="g0_29"/>
<path fill-rule="evenodd" d="M138.6,984.3H797.5V959.4H138.6v24.9Z" class="g0_29"/>
<path fill-rule="evenodd" d="M138.6,1034.2H797.5V984.3H138.6v49.9Z" class="g0_29"/>
<path fill-rule="evenodd" d="M138.3,1133.8H797.5v-99.6H138.3v99.6Z" class="g0_29"/>
<path fill-rule="evenodd" d="M138,810H797.5v-.6H138v.6Z" class="g1_29"/>
</svg>