<?xml version="1.0" encoding="UTF-8" standalone="no"?>
<!DOCTYPE svg PUBLIC "-//W3C//DTD SVG 1.1//EN"
"http://www.w3.org/Graphics/SVG/1.1/DTD/svg11.dtd">
<svg viewBox="0 0 935 1210" version="1.1" xmlns="http://www.w3.org/2000/svg" xmlns:xlink="http://www.w3.org/1999/xlink">
<defs>
<style type="text/css"><![CDATA[
.g0_36{
fill: #FFFFFF;
}
]]></style>
</defs>
<path fill-rule="evenodd" d="M137.5,134.9h660V110h-660v24.9Z" class="g0_36"/>
<path fill-rule="evenodd" d="M137.5,184.7h660V134.9h-660v49.8Z" class="g0_36"/>
<path fill-rule="evenodd" d="M137.5,309.2h660V184.7h-660V309.2Z" class="g0_36"/>
<path fill-rule="evenodd" d="M138.3,383.9H797.5V309.2H138.3v74.7Z" class="g0_36"/>
<path fill-rule="evenodd" d="M138,458.6H797.5V383.9H138v74.7Z" class="g0_36"/>
<path fill-rule="evenodd" d="M138.3,508.4H797.5V458.6H138.3v49.8Z" class="g0_36"/>
<path fill-rule="evenodd" d="M138.6,533.3H797.5V508.4H138.6v24.9Z" class="g0_36"/>
<path fill-rule="evenodd" d="M138,608.1H797.5V533.3H138v74.8Z" class="g0_36"/>
<path fill-rule="evenodd" d="M138,657.9H797.5V608.1H138v49.8Z" class="g0_36"/>
<path fill-rule="evenodd" d="M137.5,682.8h660V657.9h-660v24.9Z" class="g0_36"/>
<path fill-rule="evenodd" d="M137.5,707.7h660V682.8h-660v24.9Z" class="g0_36"/>
<path fill-rule="evenodd" d="M137.5,757.5h660V707.7h-660v49.8Z" class="g0_36"/>
<path fill-rule="evenodd" d="M137.5,807.3h660V757.5h-660v49.8Z" class="g0_36"/>
<path fill-rule="evenodd" d="M165,832.2H797.5V807.3H165v24.9Z" class="g0_36"/>
<path fill-rule="evenodd" d="M166.1,857.1H797.5V832.2H166.1v24.9Z" class="g0_36"/>
<path fill-rule="evenodd" d="M164.7,882H797.5V857.1H164.7V882Z" class="g0_36"/>
<path fill-rule="evenodd" d="M137.5,906.9h660V882h-660v24.9Z" class="g0_36"/>
<path fill-rule="evenodd" d="M165,931.8H797.5V906.9H165v24.9Z" class="g0_36"/>
<path fill-rule="evenodd" d="M137.5,981.6h660V931.8h-660v49.8Z" class="g0_36"/>
<path fill-rule="evenodd" d="M138,1031.4H797.5V981.6H138v49.8Z" class="g0_36"/>
<path fill-rule="evenodd" d="M138.3,1056.8H797.5v-25.4H138.3v25.4Z" class="g0_36"/>
<path fill-rule="evenodd" d="M138,1131.5H797.5v-74.7H138v74.7Z" class="g0_36"/>
</svg>