<?xml version="1.0" encoding="UTF-8" standalone="no"?>
<!DOCTYPE svg PUBLIC "-//W3C//DTD SVG 1.1//EN"
"http://www.w3.org/Graphics/SVG/1.1/DTD/svg11.dtd">
<svg viewBox="0 0 935 1210" version="1.1" xmlns="http://www.w3.org/2000/svg" xmlns:xlink="http://www.w3.org/1999/xlink">
<defs>
<style type="text/css"><![CDATA[
.g0_24{
fill: #FFFFFF;
}
]]></style>
</defs>
<path fill-rule="evenodd" d="M165.5,134.9h632V110h-632v24.9Z" class="g0_24"/>
<path fill-rule="evenodd" d="M138.6,159.8H797.5V134.9H138.6v24.9Z" class="g0_24"/>
<path fill-rule="evenodd" d="M138,184.7H797.5V159.8H138v24.9Z" class="g0_24"/>
<path fill-rule="evenodd" d="M138,209.6H797.5V184.7H138v24.9Z" class="g0_24"/>
<path fill-rule="evenodd" d="M166.1,234.5H797.5V209.6H166.1v24.9Z" class="g0_24"/>
<path fill-rule="evenodd" d="M166.1,259.4H797.5V234.5H166.1v24.9Z" class="g0_24"/>
<path fill-rule="evenodd" d="M166.1,284.3H797.5V259.4H166.1v24.9Z" class="g0_24"/>
<path fill-rule="evenodd" d="M137.5,359h660V284.3h-660V359Z" class="g0_24"/>
<path fill-rule="evenodd" d="M166.1,383.9H797.5V359H166.1v24.9Z" class="g0_24"/>
<path fill-rule="evenodd" d="M137.5,433.7h660V383.9h-660v49.8Z" class="g0_24"/>
<path fill-rule="evenodd" d="M137.5,483.5h660V433.7h-660v49.8Z" class="g0_24"/>
<path fill-rule="evenodd" d="M166.1,508.4H797.5V483.5H166.1v24.9Z" class="g0_24"/>
<path fill-rule="evenodd" d="M138,558.2H797.5V508.4H138v49.8Z" class="g0_24"/>
<path fill-rule="evenodd" d="M166.1,583.2H797.5V558.3H166.1v24.9Z" class="g0_24"/>
<path fill-rule="evenodd" d="M166.5,608.1h631V583.2h-631v24.9Z" class="g0_24"/>
<path fill-rule="evenodd" d="M137.5,657.9h660V608.1h-660v49.8Z" class="g0_24"/>
<path fill-rule="evenodd" d="M138,732.6H797.5V657.9H138v74.7Z" class="g0_24"/>
<path fill-rule="evenodd" d="M166.5,757.5h631V732.6h-631v24.9Z" class="g0_24"/>
<path fill-rule="evenodd" d="M138.3,807.3H797.5V757.5H138.3v49.8Z" class="g0_24"/>
<path fill-rule="evenodd" d="M166.5,832.2h631V807.3h-631v24.9Z" class="g0_24"/>
<path fill-rule="evenodd" d="M138.3,882H797.5V832.2H138.3V882Z" class="g0_24"/>
<path fill-rule="evenodd" d="M166.1,906.9H797.5V882H166.1v24.9Z" class="g0_24"/>
<path fill-rule="evenodd" d="M138.3,981.6H797.5V906.9H138.3v74.7Z" class="g0_24"/>
<path fill-rule="evenodd" d="M166.1,1006.5H797.5V981.6H166.1v24.9Z" class="g0_24"/>
<path fill-rule="evenodd" d="M166.1,1031.4H797.5v-24.9H166.1v24.9Z" class="g0_24"/>
<path fill-rule="evenodd" d="M166.1,1056.3H797.5v-24.9H166.1v24.9Z" class="g0_24"/>
<path fill-rule="evenodd" d="M165.8,1081.2H797.5v-24.9H165.8v24.9Z" class="g0_24"/>
<path fill-rule="evenodd" d="M165.8,1106.1H797.5v-24.9H165.8v24.9Z" class="g0_24"/>
<path fill-rule="evenodd" d="M137.5,1131h660v-24.9h-660V1131Z" class="g0_24"/>
</svg>