<?xml version="1.0" encoding="UTF-8" standalone="no"?>
<!DOCTYPE svg PUBLIC "-//W3C//DTD SVG 1.1//EN"
"http://www.w3.org/Graphics/SVG/1.1/DTD/svg11.dtd">
<svg viewBox="0 0 935 1210" version="1.1" xmlns="http://www.w3.org/2000/svg" xmlns:xlink="http://www.w3.org/1999/xlink">
<defs>
<style type="text/css"><![CDATA[
.g0_27{
fill: #FFFFFF;
}
]]></style>
</defs>
<path fill-rule="evenodd" d="M165.8,134.9H797.5V110H165.8v24.9Z" class="g0_27"/>
<path fill-rule="evenodd" d="M137.5,159.8h660V134.9h-660v24.9Z" class="g0_27"/>
<path fill-rule="evenodd" d="M165,184.7H797.5V159.8H165v24.9Z" class="g0_27"/>
<path fill-rule="evenodd" d="M137.5,234.5h660V184.7h-660v49.8Z" class="g0_27"/>
<path fill-rule="evenodd" d="M166.1,259.4H797.5V234.5H166.1v24.9Z" class="g0_27"/>
<path fill-rule="evenodd" d="M166.1,284.3H797.5V259.4H166.1v24.9Z" class="g0_27"/>
<path fill-rule="evenodd" d="M138.6,335.2H797.5V284.3H138.6v50.9Z" class="g0_27"/>
<path fill-rule="evenodd" d="M138.3,434.8H797.5V335.2H138.3v99.6Z" class="g0_27"/>
<path fill-rule="evenodd" d="M165,459.7H797.5V434.8H165v24.9Z" class="g0_27"/>
<path fill-rule="evenodd" d="M165.8,484.6H797.5V459.7H165.8v24.9Z" class="g0_27"/>
<path fill-rule="evenodd" d="M138.6,559.3H797.5V484.6H138.6v74.7Z" class="g0_27"/>
<path fill-rule="evenodd" d="M166.1,584.2H797.5V559.3H166.1v24.9Z" class="g0_27"/>
<path fill-rule="evenodd" d="M139.3,634H797.5V584.2H139.3V634Z" class="g0_27"/>
<path fill-rule="evenodd" d="M165,658.9H797.5V634H165v24.9Z" class="g0_27"/>
<path fill-rule="evenodd" d="M137.5,683.8h660V658.9h-660v24.9Z" class="g0_27"/>
<path fill-rule="evenodd" d="M165,708.7H797.5V683.8H165v24.9Z" class="g0_27"/>
<path fill-rule="evenodd" d="M137.5,758.5h660V708.7h-660v49.8Z" class="g0_27"/>
<path fill-rule="evenodd" d="M137.5,783.4h660V758.5h-660v24.9Z" class="g0_27"/>
<path fill-rule="evenodd" d="M138,833.2H797.5V783.4H138v49.8Z" class="g0_27"/>
<path fill-rule="evenodd" d="M137.5,908h660V833.2h-660V908Z" class="g0_27"/>
<path fill-rule="evenodd" d="M137.5,932.9h660V908h-660v24.9Z" class="g0_27"/>
<path fill-rule="evenodd" d="M137.5,982.7h660V932.9h-660v49.8Z" class="g0_27"/>
<path fill-rule="evenodd" d="M137.5,1032.5h660V982.7h-660v49.8Z" class="g0_27"/>
<path fill-rule="evenodd" d="M137.5,1107.2h660v-74.7h-660v74.7Z" class="g0_27"/>
<path fill-rule="evenodd" d="M137.5,1132.1h660v-24.9h-660v24.9Z" class="g0_27"/>
</svg>