<?xml version="1.0" encoding="UTF-8" standalone="no"?>
<!DOCTYPE svg PUBLIC "-//W3C//DTD SVG 1.1//EN"
"http://www.w3.org/Graphics/SVG/1.1/DTD/svg11.dtd">
<svg viewBox="0 0 935 1210" version="1.1" xmlns="http://www.w3.org/2000/svg" xmlns:xlink="http://www.w3.org/1999/xlink">
<defs>
<style type="text/css"><![CDATA[
.g0_56{
fill: #FFFFFF;
}
.g1_56{
}
]]></style>
</defs>
<path fill-rule="evenodd" d="M137.5,134.9h660V110h-660v24.9Z" class="g0_56"/>
<path fill-rule="evenodd" d="M137.5,159.8h660V134.9h-660v24.9Z" class="g0_56"/>
<path fill-rule="evenodd" d="M137.5,184.7h660V159.8h-660v24.9Z" class="g0_56"/>
<path fill-rule="evenodd" d="M137.5,209.6h660V184.7h-660v24.9Z" class="g0_56"/>
<path fill-rule="evenodd" d="M137.5,284.3h660V209.6h-660v74.7Z" class="g0_56"/>
<path fill-rule="evenodd" d="M137.5,334.1h660V284.3h-660v49.8Z" class="g0_56"/>
<path fill-rule="evenodd" d="M137.5,408.8h660V334.1h-660v74.7Z" class="g0_56"/>
<path fill-rule="evenodd" d="M137.5,433.7h660V408.8h-660v24.9Z" class="g0_56"/>
<path fill-rule="evenodd" d="M137.5,483.5h660V433.7h-660v49.8Z" class="g0_56"/>
<path fill-rule="evenodd" d="M137.5,508.4h660V483.5h-660v24.9Z" class="g0_56"/>
<path fill-rule="evenodd" d="M137.5,558.2h660V508.4h-660v49.8Z" class="g0_56"/>
<path fill-rule="evenodd" d="M137.5,633.4h660V558.2h-660v75.2Z" class="g0_56"/>
<path fill-rule="evenodd" d="M137.5,708.1h660V633.4h-660v74.7Z" class="g0_56"/>
<path fill-rule="evenodd" d="M137.5,782.8h660V708.1h-660v74.7Z" class="g0_56"/>
<path fill-rule="evenodd" d="M137.5,807.7h660V782.8h-660v24.9Z" class="g0_56"/>
<path fill-rule="evenodd" d="M137.5,832.6h660V807.7h-660v24.9Z" class="g0_56"/>
<path fill-rule="evenodd" d="M137.5,857.5h660V832.6h-660v24.9Z" class="g0_56"/>
<path fill-rule="evenodd" d="M137.5,882.4h660V857.5h-660v24.9Z" class="g0_56"/>
<path fill-rule="evenodd" d="M137.5,907.3h660V882.4h-660v24.9Z" class="g0_56"/>
<path fill-rule="evenodd" d="M137.5,934.5h660V907.3h-660v27.2Z" class="g0_56"/>
<path fill-rule="evenodd" d="M137.5,959.4h660V934.5h-660v24.9Z" class="g0_56"/>
<path fill-rule="evenodd" d="M137.5,984.3h660V959.4h-660v24.9Z" class="g0_56"/>
<path fill-rule="evenodd" d="M137.5,1009.3h660v-25h-660v25Z" class="g0_56"/>
<path fill-rule="evenodd" d="M137.5,1034.2h660v-24.9h-660v24.9Z" class="g0_56"/>
<path fill-rule="evenodd" d="M138,1059.1H797.5v-24.9H138v24.9Z" class="g0_56"/>
<path fill-rule="evenodd" d="M138,1084H797.5v-24.9H138V1084Z" class="g0_56"/>
<path fill-rule="evenodd" d="M138,1108.9H797.5V1084H138v24.9Z" class="g0_56"/>
<path fill-rule="evenodd" d="M138,1133.8H797.5v-24.9H138v24.9Z" class="g0_56"/>
<path fill-rule="evenodd" d="M137.5,934.5h660v-.6h-660v.6Z" class="g1_56"/>
</svg>