<?xml version="1.0" encoding="UTF-8" standalone="no"?>
<!DOCTYPE svg PUBLIC "-//W3C//DTD SVG 1.1//EN"
"http://www.w3.org/Graphics/SVG/1.1/DTD/svg11.dtd">
<svg viewBox="0 0 935 1210" version="1.1" xmlns="http://www.w3.org/2000/svg" xmlns:xlink="http://www.w3.org/1999/xlink">
<defs>
<style type="text/css"><![CDATA[
.g0_3{
fill: #FFFFFF;
}
]]></style>
</defs>
<path fill-rule="evenodd" d="M137.5,158.4h660V110h-660v48.4Z" class="g0_3"/>
<path fill-rule="evenodd" d="M137.5,182.3h660V158.4h-660v23.9Z" class="g0_3"/>
<path fill-rule="evenodd" d="M137.5,206.1h660V182.3h-660v23.8Z" class="g0_3"/>
<path fill-rule="evenodd" d="M137.5,229.9h660V206.1h-660v23.8Z" class="g0_3"/>
<path fill-rule="evenodd" d="M137.5,253.8h660V229.9h-660v23.9Z" class="g0_3"/>
<path fill-rule="evenodd" d="M137.5,328.6h660V253.8h-660v74.8Z" class="g0_3"/>
<path fill-rule="evenodd" d="M137.5,380.6h660v-52h-660v52Z" class="g0_3"/>
<path fill-rule="evenodd" d="M137.5,429h660V380.6h-660V429Z" class="g0_3"/>
<path fill-rule="evenodd" d="M137.5,500.5h660V429h-660v71.5Z" class="g0_3"/>
<path fill-rule="evenodd" d="M137.5,524.3h660V500.5h-660v23.8Z" class="g0_3"/>
<path fill-rule="evenodd" d="M137.5,574.9h660V524.3h-660v50.6Z" class="g0_3"/>
<path fill-rule="evenodd" d="M137.5,622.6h660V574.9h-660v47.7Z" class="g0_3"/>
<path fill-rule="evenodd" d="M137.5,646.4h660V622.6h-660v23.8Z" class="g0_3"/>
<path fill-rule="evenodd" d="M137.5,670.2h660V646.4h-660v23.8Z" class="g0_3"/>
<path fill-rule="evenodd" d="M137.5,765.6h660V670.2h-660v95.4Z" class="g0_3"/>
<path fill-rule="evenodd" d="M137.5,789.4h660V765.6h-660v23.8Z" class="g0_3"/>
<path fill-rule="evenodd" d="M137.5,813.2h660V789.4h-660v23.8Z" class="g0_3"/>
<path fill-rule="evenodd" d="M137.5,932.4h660V813.2h-660V932.4Z" class="g0_3"/>
<path fill-rule="evenodd" d="M137.5,956.2h660V932.4h-660v23.8Z" class="g0_3"/>
<path fill-rule="evenodd" d="M137.5,980.1h660V956.2h-660v23.9Z" class="g0_3"/>
<path fill-rule="evenodd" d="M137.5,1123.1h660v-143h-660v143Z" class="g0_3"/>
<path fill-rule="evenodd" d="M137.5,1146.9h660v-23.8h-660v23.8Z" class="g0_3"/>
</svg>