<?xml version="1.0" encoding="UTF-8" standalone="no"?>
<!DOCTYPE svg PUBLIC "-//W3C//DTD SVG 1.1//EN"
"http://www.w3.org/Graphics/SVG/1.1/DTD/svg11.dtd">
<svg viewBox="0 0 935 1210" version="1.1" xmlns="http://www.w3.org/2000/svg" xmlns:xlink="http://www.w3.org/1999/xlink">
<defs>
<style type="text/css"><![CDATA[
.g0_177{
fill: #FFFFFF;
}
]]></style>
</defs>
<path fill-rule="evenodd" d="M138,159.8H797.5V110H138v49.8Z" class="g0_177"/>
<path fill-rule="evenodd" d="M138,184.7H797.5V159.8H138v24.9Z" class="g0_177"/>
<path fill-rule="evenodd" d="M164.7,209.6H797.5V184.7H164.7v24.9Z" class="g0_177"/>
<path fill-rule="evenodd" d="M138.3,259.4H797.5V209.6H138.3v49.8Z" class="g0_177"/>
<path fill-rule="evenodd" d="M138.6,284.8H797.5V259.4H138.6v25.4Z" class="g0_177"/>
<path fill-rule="evenodd" d="M166.1,309.7H797.5V284.8H166.1v24.9Z" class="g0_177"/>
<path fill-rule="evenodd" d="M166.1,334.9H797.5V309.7H166.1v25.2Z" class="g0_177"/>
<path fill-rule="evenodd" d="M138.3,359.8H797.5V334.9H138.3v24.9Z" class="g0_177"/>
<path fill-rule="evenodd" d="M165,384.7H797.5V359.8H165v24.9Z" class="g0_177"/>
<path fill-rule="evenodd" d="M138,459.4H797.5V384.7H138v74.7Z" class="g0_177"/>
<path fill-rule="evenodd" d="M165.8,484.3H797.5V459.4H165.8v24.9Z" class="g0_177"/>
<path fill-rule="evenodd" d="M138,534.1H797.5V484.3H138v49.8Z" class="g0_177"/>
<path fill-rule="evenodd" d="M137.5,583.9h660V534.1h-660v49.8Z" class="g0_177"/>
<path fill-rule="evenodd" d="M166.5,608.8h631V583.9h-631v24.9Z" class="g0_177"/>
<path fill-rule="evenodd" d="M165.8,633.7H797.5V608.8H165.8v24.9Z" class="g0_177"/>
<path fill-rule="evenodd" d="M138,658.6H797.5V633.7H138v24.9Z" class="g0_177"/>
<path fill-rule="evenodd" d="M138.6,683.5H797.5V658.6H138.6v24.9Z" class="g0_177"/>
<path fill-rule="evenodd" d="M166.8,708.4H797.5V683.5H166.8v24.9Z" class="g0_177"/>
<path fill-rule="evenodd" d="M138.6,758.2H797.5V708.4H138.6v49.8Z" class="g0_177"/>
<path fill-rule="evenodd" d="M137.5,808.5h660V758.2h-660v50.3Z" class="g0_177"/>
<path fill-rule="evenodd" d="M137.5,883.2h660V808.5h-660v74.7Z" class="g0_177"/>
<path fill-rule="evenodd" d="M137.5,933h660V883.2h-660V933Z" class="g0_177"/>
<path fill-rule="evenodd" d="M137.5,957.9h660V933h-660v24.9Z" class="g0_177"/>
<path fill-rule="evenodd" d="M137.5,1008h660V957.9h-660V1008Z" class="g0_177"/>
<path fill-rule="evenodd" d="M137.5,1032.9h660V1008h-660v24.9Z" class="g0_177"/>
<path fill-rule="evenodd" d="M137.5,1057.8h660v-24.9h-660v24.9Z" class="g0_177"/>
<path fill-rule="evenodd" d="M137.5,1082.7h660v-24.9h-660v24.9Z" class="g0_177"/>
<path fill-rule="evenodd" d="M137.5,1133h660v-50.3h-660V1133Z" class="g0_177"/>
</svg>