<?xml version="1.0" encoding="UTF-8" standalone="no"?>
<!DOCTYPE svg PUBLIC "-//W3C//DTD SVG 1.1//EN"
"http://www.w3.org/Graphics/SVG/1.1/DTD/svg11.dtd">
<svg viewBox="0 0 935 1210" version="1.1" xmlns="http://www.w3.org/2000/svg" xmlns:xlink="http://www.w3.org/1999/xlink">
<defs>
<style type="text/css"><![CDATA[
.g0_73{
fill: #FFFFFF;
}
]]></style>
</defs>
<path fill-rule="evenodd" d="M137.5,184.7h660V110h-660v74.7Z" class="g0_73"/>
<path fill-rule="evenodd" d="M137.5,234.5h660V184.7h-660v49.8Z" class="g0_73"/>
<path fill-rule="evenodd" d="M137.5,359h660V234.5h-660V359Z" class="g0_73"/>
<path fill-rule="evenodd" d="M137.5,383.9h660V359h-660v24.9Z" class="g0_73"/>
<path fill-rule="evenodd" d="M137.5,458.6h660V383.9h-660v74.7Z" class="g0_73"/>
<path fill-rule="evenodd" d="M137.5,508.4h660V458.6h-660v49.8Z" class="g0_73"/>
<path fill-rule="evenodd" d="M137.5,558.2h660V508.4h-660v49.8Z" class="g0_73"/>
<path fill-rule="evenodd" d="M137.5,608.1h660V558.2h-660v49.9Z" class="g0_73"/>
<path fill-rule="evenodd" d="M137.5,657.9h660V608.1h-660v49.8Z" class="g0_73"/>
<path fill-rule="evenodd" d="M137.5,707.7h660V657.9h-660v49.8Z" class="g0_73"/>
<path fill-rule="evenodd" d="M137.5,782.4h660V707.7h-660v74.7Z" class="g0_73"/>
<path fill-rule="evenodd" d="M137.5,857.1h660V782.4h-660v74.7Z" class="g0_73"/>
<path fill-rule="evenodd" d="M137.5,906.9h660V857.1h-660v49.8Z" class="g0_73"/>
<path fill-rule="evenodd" d="M165,926.3H797.5V906.9H165v19.4Z" class="g0_73"/>
<path fill-rule="evenodd" d="M138.3,976.1H797.5V926.3H138.3v49.8Z" class="g0_73"/>
<path fill-rule="evenodd" d="M137.5,1001h660V976.1h-660V1001Z" class="g0_73"/>
<path fill-rule="evenodd" d="M137.5,1026.2h660V1001h-660v25.2Z" class="g0_73"/>
<path fill-rule="evenodd" d="M137.5,1051.1h660v-24.9h-660v24.9Z" class="g0_73"/>
<path fill-rule="evenodd" d="M137.5,1100.9h660v-49.8h-660v49.8Z" class="g0_73"/>
<path fill-rule="evenodd" d="M137.5,1125.8h660v-24.9h-660v24.9Z" class="g0_73"/>
<path fill-rule="evenodd" d="M137.5,1150.7h660v-24.9h-660v24.9Z" class="g0_73"/>
</svg>