<?xml version="1.0" encoding="UTF-8" standalone="no"?>
<!DOCTYPE svg PUBLIC "-//W3C//DTD SVG 1.1//EN"
"http://www.w3.org/Graphics/SVG/1.1/DTD/svg11.dtd">
<svg viewBox="0 0 935 1210" version="1.1" xmlns="http://www.w3.org/2000/svg" xmlns:xlink="http://www.w3.org/1999/xlink">
<defs>
<style type="text/css"><![CDATA[
.g0_46{
fill: #FFFFFF;
}
]]></style>
</defs>
<path fill-rule="evenodd" d="M137.5,134.9h660V110h-660v24.9Z" class="g0_46"/>
<path fill-rule="evenodd" d="M138,284.3H797.5V134.9H138V284.3Z" class="g0_46"/>
<path fill-rule="evenodd" d="M166.5,309.2h631V284.3h-631v24.9Z" class="g0_46"/>
<path fill-rule="evenodd" d="M138.3,359H797.5V309.2H138.3V359Z" class="g0_46"/>
<path fill-rule="evenodd" d="M166.5,383.9h631V359h-631v24.9Z" class="g0_46"/>
<path fill-rule="evenodd" d="M137.5,458.6h660V383.9h-660v74.7Z" class="g0_46"/>
<path fill-rule="evenodd" d="M165.5,484.3h632V458.6h-632v25.7Z" class="g0_46"/>
<path fill-rule="evenodd" d="M138,509.2H797.5V484.3H138v24.9Z" class="g0_46"/>
<path fill-rule="evenodd" d="M165.5,534.6h632V509.2h-632v25.4Z" class="g0_46"/>
<path fill-rule="evenodd" d="M137.5,584.7h660V534.6h-660v50.1Z" class="g0_46"/>
<path fill-rule="evenodd" d="M137.5,609.6h660V584.7h-660v24.9Z" class="g0_46"/>
<path fill-rule="evenodd" d="M137.5,634.5h660V609.6h-660v24.9Z" class="g0_46"/>
<path fill-rule="evenodd" d="M138.3,684.3H797.5V634.5H138.3v49.8Z" class="g0_46"/>
<path fill-rule="evenodd" d="M138.3,734.6H797.5V684.3H138.3v50.3Z" class="g0_46"/>
<path fill-rule="evenodd" d="M138.6,759.5H797.5V734.6H138.6v24.9Z" class="g0_46"/>
<path fill-rule="evenodd" d="M165.5,784.4h632V759.5h-632v24.9Z" class="g0_46"/>
<path fill-rule="evenodd" d="M166.1,809.3H797.5V784.4H166.1v24.9Z" class="g0_46"/>
<path fill-rule="evenodd" d="M138.6,834.2H797.5V809.3H138.6v24.9Z" class="g0_46"/>
<path fill-rule="evenodd" d="M139,859.1H797.5V834.2H139v24.9Z" class="g0_46"/>
<path fill-rule="evenodd" d="M166.5,884h631V859.1h-631V884Z" class="g0_46"/>
<path fill-rule="evenodd" d="M166.5,908.9h631V884h-631v24.9Z" class="g0_46"/>
<path fill-rule="evenodd" d="M166.1,933.8H797.5V908.9H166.1v24.9Z" class="g0_46"/>
<path fill-rule="evenodd" d="M166.1,958.7H797.5V933.8H166.1v24.9Z" class="g0_46"/>
<path fill-rule="evenodd" d="M137.5,1008.5h660V958.7h-660v49.8Z" class="g0_46"/>
<path fill-rule="evenodd" d="M138,1083.2H797.5v-74.7H138v74.7Z" class="g0_46"/>
<path fill-rule="evenodd" d="M137.5,1133h660v-49.8h-660V1133Z" class="g0_46"/>
</svg>