<?xml version="1.0" encoding="UTF-8" standalone="no"?>
<!DOCTYPE svg PUBLIC "-//W3C//DTD SVG 1.1//EN"
"http://www.w3.org/Graphics/SVG/1.1/DTD/svg11.dtd">
<svg viewBox="0 0 935 1210" version="1.1" xmlns="http://www.w3.org/2000/svg" xmlns:xlink="http://www.w3.org/1999/xlink">
<defs>
<style type="text/css"><![CDATA[
.g0_90{
fill: #FFFFFF;
}
]]></style>
</defs>
<path fill-rule="evenodd" d="M137.5,159.8h660V110h-660v49.8Z" class="g0_90"/>
<path fill-rule="evenodd" d="M137.5,209.6h660V159.8h-660v49.8Z" class="g0_90"/>
<path fill-rule="evenodd" d="M137.5,235h660V209.6h-660V235Z" class="g0_90"/>
<path fill-rule="evenodd" d="M137.5,334.6h660V235h-660v99.6Z" class="g0_90"/>
<path fill-rule="evenodd" d="M137.5,359.8h660V334.6h-660v25.2Z" class="g0_90"/>
<path fill-rule="evenodd" d="M137.5,484.3h660V359.8h-660V484.3Z" class="g0_90"/>
<path fill-rule="evenodd" d="M137.5,534.1h660V484.3h-660v49.8Z" class="g0_90"/>
<path fill-rule="evenodd" d="M137.5,583.9h660V534.1h-660v49.8Z" class="g0_90"/>
<path fill-rule="evenodd" d="M137.5,633.7h660V583.9h-660v49.8Z" class="g0_90"/>
<path fill-rule="evenodd" d="M137.5,683.5h660V633.7h-660v49.8Z" class="g0_90"/>
<path fill-rule="evenodd" d="M137.5,708.4h660V683.5h-660v24.9Z" class="g0_90"/>
<path fill-rule="evenodd" d="M137.5,733.3h660V708.4h-660v24.9Z" class="g0_90"/>
<path fill-rule="evenodd" d="M137.5,758.7h660V733.3h-660v25.4Z" class="g0_90"/>
<path fill-rule="evenodd" d="M137.5,808.5h660V758.7h-660v49.8Z" class="g0_90"/>
<path fill-rule="evenodd" d="M137.5,858.3h660V808.5h-660v49.8Z" class="g0_90"/>
<path fill-rule="evenodd" d="M137.5,883.2h660V858.3h-660v24.9Z" class="g0_90"/>
<path fill-rule="evenodd" d="M137.5,933h660V883.2h-660V933Z" class="g0_90"/>
<path fill-rule="evenodd" d="M137.5,982.8h660V933h-660v49.8Z" class="g0_90"/>
<path fill-rule="evenodd" d="M137.5,1032.6h660V982.8h-660v49.8Z" class="g0_90"/>
<path fill-rule="evenodd" d="M137.5,1057.5h660v-24.9h-660v24.9Z" class="g0_90"/>
<path fill-rule="evenodd" d="M137.5,1107.3h660v-49.8h-660v49.8Z" class="g0_90"/>
<path fill-rule="evenodd" d="M137.5,1132.2h660v-24.9h-660v24.9Z" class="g0_90"/>
</svg>