<?xml version="1.0" encoding="UTF-8" standalone="no"?>
<!DOCTYPE svg PUBLIC "-//W3C//DTD SVG 1.1//EN"
"http://www.w3.org/Graphics/SVG/1.1/DTD/svg11.dtd">
<svg viewBox="0 0 935 1210" version="1.1" xmlns="http://www.w3.org/2000/svg" xmlns:xlink="http://www.w3.org/1999/xlink">
<defs>
<style type="text/css"><![CDATA[
.g0_55{
fill: #FFFFFF;
}
]]></style>
</defs>
<path fill-rule="evenodd" d="M137.5,134.9h660V110h-660v24.9Z" class="g0_55"/>
<path fill-rule="evenodd" d="M137.5,184.7h660V134.9h-660v49.8Z" class="g0_55"/>
<path fill-rule="evenodd" d="M137.5,284.3h660V184.7h-660v99.6Z" class="g0_55"/>
<path fill-rule="evenodd" d="M137.5,359h660V284.3h-660V359Z" class="g0_55"/>
<path fill-rule="evenodd" d="M137.5,408.8h660V359h-660v49.8Z" class="g0_55"/>
<path fill-rule="evenodd" d="M137.5,459.1h660V408.8h-660v50.3Z" class="g0_55"/>
<path fill-rule="evenodd" d="M137.5,508.9h660V459.1h-660v49.8Z" class="g0_55"/>
<path fill-rule="evenodd" d="M137.5,533.8h660V508.9h-660v24.9Z" class="g0_55"/>
<path fill-rule="evenodd" d="M137.5,608.5h660V533.8h-660v74.7Z" class="g0_55"/>
<path fill-rule="evenodd" d="M137.5,633.4h660V608.5h-660v24.9Z" class="g0_55"/>
<path fill-rule="evenodd" d="M137.5,658.3h660V633.4h-660v24.9Z" class="g0_55"/>
<path fill-rule="evenodd" d="M137.5,683.2h660V658.3h-660v24.9Z" class="g0_55"/>
<path fill-rule="evenodd" d="M137.5,708.1h660V683.2h-660v24.9Z" class="g0_55"/>
<path fill-rule="evenodd" d="M137.5,733h660V708.1h-660V733Z" class="g0_55"/>
<path fill-rule="evenodd" d="M137.5,757.9h660V733h-660v24.9Z" class="g0_55"/>
<path fill-rule="evenodd" d="M137.5,807.7h660V757.9h-660v49.8Z" class="g0_55"/>
<path fill-rule="evenodd" d="M137.5,832.6h660V807.7h-660v24.9Z" class="g0_55"/>
<path fill-rule="evenodd" d="M137.5,907.7h660V832.6h-660v75.1Z" class="g0_55"/>
<path fill-rule="evenodd" d="M137.5,932.6h660V907.7h-660v24.9Z" class="g0_55"/>
<path fill-rule="evenodd" d="M137.5,982.4h660V932.6h-660v49.8Z" class="g0_55"/>
<path fill-rule="evenodd" d="M137.5,1007.3h660V982.4h-660v24.9Z" class="g0_55"/>
<path fill-rule="evenodd" d="M137.5,1032.2h660v-24.9h-660v24.9Z" class="g0_55"/>
<path fill-rule="evenodd" d="M137.5,1082h660v-49.8h-660V1082Z" class="g0_55"/>
<path fill-rule="evenodd" d="M137.5,1106.9h660V1082h-660v24.9Z" class="g0_55"/>
<path fill-rule="evenodd" d="M137.5,1131.8h660v-24.9h-660v24.9Z" class="g0_55"/>
</svg>