<?xml version="1.0" encoding="UTF-8" standalone="no"?>
<!DOCTYPE svg PUBLIC "-//W3C//DTD SVG 1.1//EN"
"http://www.w3.org/Graphics/SVG/1.1/DTD/svg11.dtd">
<svg viewBox="0 0 935 1210" version="1.1" xmlns="http://www.w3.org/2000/svg" xmlns:xlink="http://www.w3.org/1999/xlink">
<defs>
<style type="text/css"><![CDATA[
.g0_33{
fill: #FFFFFF;
}
]]></style>
</defs>
<path fill-rule="evenodd" d="M138.6,134.9H797.5V110H138.6v24.9Z" class="g0_33"/>
<path fill-rule="evenodd" d="M166.5,159.8h631V134.9h-631v24.9Z" class="g0_33"/>
<path fill-rule="evenodd" d="M138.3,234.5H797.5V159.8H138.3v74.7Z" class="g0_33"/>
<path fill-rule="evenodd" d="M165.5,259.4h632V234.5h-632v24.9Z" class="g0_33"/>
<path fill-rule="evenodd" d="M138.6,383.9H797.5V259.4H138.6V383.9Z" class="g0_33"/>
<path fill-rule="evenodd" d="M137.5,433.7h660V383.9h-660v49.8Z" class="g0_33"/>
<path fill-rule="evenodd" d="M165,458.6H797.5V433.7H165v24.9Z" class="g0_33"/>
<path fill-rule="evenodd" d="M138,483.5H797.5V458.6H138v24.9Z" class="g0_33"/>
<path fill-rule="evenodd" d="M138,508.4H797.5V483.5H138v24.9Z" class="g0_33"/>
<path fill-rule="evenodd" d="M138.3,558.2H797.5V508.4H138.3v49.8Z" class="g0_33"/>
<path fill-rule="evenodd" d="M137.5,608.1h660V558.2h-660v49.9Z" class="g0_33"/>
<path fill-rule="evenodd" d="M137.5,657.9h660V608.1h-660v49.8Z" class="g0_33"/>
<path fill-rule="evenodd" d="M165.8,682.8H797.5V657.9H165.8v24.9Z" class="g0_33"/>
<path fill-rule="evenodd" d="M137.5,732.6h660V682.8h-660v49.8Z" class="g0_33"/>
<path fill-rule="evenodd" d="M166.1,757.5H797.5V732.6H166.1v24.9Z" class="g0_33"/>
<path fill-rule="evenodd" d="M137.5,857.1h660V757.5h-660v99.6Z" class="g0_33"/>
<path fill-rule="evenodd" d="M137.5,931.8h660V857.1h-660v74.7Z" class="g0_33"/>
<path fill-rule="evenodd" d="M166.5,956.7h631V931.8h-631v24.9Z" class="g0_33"/>
<path fill-rule="evenodd" d="M137.5,1031.4h660V956.7h-660v74.7Z" class="g0_33"/>
<path fill-rule="evenodd" d="M138.6,1056.3H797.5v-24.9H138.6v24.9Z" class="g0_33"/>
<path fill-rule="evenodd" d="M138,1106.1H797.5v-49.8H138v49.8Z" class="g0_33"/>
<path fill-rule="evenodd" d="M138.3,1131H797.5v-24.9H138.3V1131Z" class="g0_33"/>
</svg>