<?xml version="1.0" encoding="UTF-8" standalone="no"?>
<!DOCTYPE svg PUBLIC "-//W3C//DTD SVG 1.1//EN"
"http://www.w3.org/Graphics/SVG/1.1/DTD/svg11.dtd">
<svg viewBox="0 0 935 1210" version="1.1" xmlns="http://www.w3.org/2000/svg" xmlns:xlink="http://www.w3.org/1999/xlink">
<defs>
<style type="text/css"><![CDATA[
.g0_30{
fill: #FFFFFF;
}
]]></style>
</defs>
<path fill-rule="evenodd" d="M138.6,134.9H797.5V110H138.6v24.9Z" class="g0_30"/>
<path fill-rule="evenodd" d="M165,159.8H797.5V134.9H165v24.9Z" class="g0_30"/>
<path fill-rule="evenodd" d="M139,209.6H797.5V159.8H139v49.8Z" class="g0_30"/>
<path fill-rule="evenodd" d="M166.1,234.5H797.5V209.6H166.1v24.9Z" class="g0_30"/>
<path fill-rule="evenodd" d="M140.1,259.4H797.5V234.5H140.1v24.9Z" class="g0_30"/>
<path fill-rule="evenodd" d="M165.5,284.3h632V259.4h-632v24.9Z" class="g0_30"/>
<path fill-rule="evenodd" d="M139.3,334.1H797.5V284.3H139.3v49.8Z" class="g0_30"/>
<path fill-rule="evenodd" d="M137.5,351.8h660V334.1h-660v17.7Z" class="g0_30"/>
<path fill-rule="evenodd" d="M137.5,369.4h660V351.8h-660v17.6Z" class="g0_30"/>
<path fill-rule="evenodd" d="M137.5,529.1h660V369.4h-660V529.1Z" class="g0_30"/>
<path fill-rule="evenodd" d="M138.3,578.9H797.5V529.1H138.3v49.8Z" class="g0_30"/>
<path fill-rule="evenodd" d="M138,603.8H797.5V578.9H138v24.9Z" class="g0_30"/>
<path fill-rule="evenodd" d="M166.5,628.7h631V603.8h-631v24.9Z" class="g0_30"/>
<path fill-rule="evenodd" d="M138,703.4H797.5V628.7H138v74.7Z" class="g0_30"/>
<path fill-rule="evenodd" d="M138.3,753.2H797.5V703.4H138.3v49.8Z" class="g0_30"/>
<path fill-rule="evenodd" d="M138.3,803H797.5V753.2H138.3V803Z" class="g0_30"/>
<path fill-rule="evenodd" d="M165.5,827.9h632V803h-632v24.9Z" class="g0_30"/>
<path fill-rule="evenodd" d="M137.5,877.7h660V827.9h-660v49.8Z" class="g0_30"/>
<path fill-rule="evenodd" d="M166.1,902.6H797.5V877.7H166.1v24.9Z" class="g0_30"/>
<path fill-rule="evenodd" d="M166.1,927.5H797.5V902.6H166.1v24.9Z" class="g0_30"/>
<path fill-rule="evenodd" d="M138,977.3H797.5V927.5H138v49.8Z" class="g0_30"/>
<path fill-rule="evenodd" d="M138.3,1027.1H797.5V977.3H138.3v49.8Z" class="g0_30"/>
<path fill-rule="evenodd" d="M166.1,1052H797.5v-24.9H166.1V1052Z" class="g0_30"/>
<path fill-rule="evenodd" d="M165.5,1076.9h632V1052h-632v24.9Z" class="g0_30"/>
<path fill-rule="evenodd" d="M138.3,1151.6H797.5v-74.7H138.3v74.7Z" class="g0_30"/>
</svg>