<?xml version="1.0" encoding="UTF-8" standalone="no"?>
<!DOCTYPE svg PUBLIC "-//W3C//DTD SVG 1.1//EN"
"http://www.w3.org/Graphics/SVG/1.1/DTD/svg11.dtd">
<svg viewBox="0 0 935 1210" version="1.1" xmlns="http://www.w3.org/2000/svg" xmlns:xlink="http://www.w3.org/1999/xlink">
<defs>
<style type="text/css"><![CDATA[
.g0_161{
fill: #FFFFFF;
}
]]></style>
</defs>
<path fill-rule="evenodd" d="M138,159.8H797.5V110H138v49.8Z" class="g0_161"/>
<path fill-rule="evenodd" d="M138,184.7H797.5V159.8H138v24.9Z" class="g0_161"/>
<path fill-rule="evenodd" d="M138,234.5H797.5V184.7H138v49.8Z" class="g0_161"/>
<path fill-rule="evenodd" d="M138,259.9H797.5V234.5H138v25.4Z" class="g0_161"/>
<path fill-rule="evenodd" d="M138,284.8H797.5V259.9H138v24.9Z" class="g0_161"/>
<path fill-rule="evenodd" d="M138,334.6H797.5V284.8H138v49.8Z" class="g0_161"/>
<path fill-rule="evenodd" d="M138,359.5H797.5V334.6H138v24.9Z" class="g0_161"/>
<path fill-rule="evenodd" d="M138,384.4H797.5V359.5H138v24.9Z" class="g0_161"/>
<path fill-rule="evenodd" d="M138,484H797.5V384.4H138V484Z" class="g0_161"/>
<path fill-rule="evenodd" d="M138,508.9H797.5V484H138v24.9Z" class="g0_161"/>
<path fill-rule="evenodd" d="M138,533.8H797.5V508.9H138v24.9Z" class="g0_161"/>
<path fill-rule="evenodd" d="M138,558.7H797.5V533.8H138v24.9Z" class="g0_161"/>
<path fill-rule="evenodd" d="M138,633.4H797.5V558.7H138v74.7Z" class="g0_161"/>
<path fill-rule="evenodd" d="M138,733H797.5V633.4H138V733Z" class="g0_161"/>
<path fill-rule="evenodd" d="M138,757.9H797.5V733H138v24.9Z" class="g0_161"/>
<path fill-rule="evenodd" d="M138,832.6H797.5V757.9H138v74.7Z" class="g0_161"/>
<path fill-rule="evenodd" d="M138,857.8H797.5V832.6H138v25.2Z" class="g0_161"/>
<path fill-rule="evenodd" d="M138,907.7H797.5V857.8H138v49.9Z" class="g0_161"/>
<path fill-rule="evenodd" d="M138,932.6H797.5V907.7H138v24.9Z" class="g0_161"/>
<path fill-rule="evenodd" d="M138,957.5H797.5V932.6H138v24.9Z" class="g0_161"/>
<path fill-rule="evenodd" d="M138,982.4H797.5V957.5H138v24.9Z" class="g0_161"/>
<path fill-rule="evenodd" d="M138,1057.1H797.5V982.4H138v74.7Z" class="g0_161"/>
<path fill-rule="evenodd" d="M138,1082H797.5v-24.9H138V1082Z" class="g0_161"/>
<path fill-rule="evenodd" d="M138,1132.5H797.5V1082H138v50.5Z" class="g0_161"/>
</svg>