<?xml version="1.0" encoding="UTF-8" standalone="no"?>
<!DOCTYPE svg PUBLIC "-//W3C//DTD SVG 1.1//EN"
"http://www.w3.org/Graphics/SVG/1.1/DTD/svg11.dtd">
<svg viewBox="0 0 935 1210" version="1.1" xmlns="http://www.w3.org/2000/svg" xmlns:xlink="http://www.w3.org/1999/xlink">
<defs>
<style type="text/css"><![CDATA[
.g0_75{
fill: #FFFFFF;
}
]]></style>
</defs>
<path fill-rule="evenodd" d="M137.5,134.9h660V110h-660v24.9Z" class="g0_75"/>
<path fill-rule="evenodd" d="M137.5,159.8h660V134.9h-660v24.9Z" class="g0_75"/>
<path fill-rule="evenodd" d="M137.5,184.7h660V159.8h-660v24.9Z" class="g0_75"/>
<path fill-rule="evenodd" d="M137.5,209.6h660V184.7h-660v24.9Z" class="g0_75"/>
<path fill-rule="evenodd" d="M137.5,284.3h660V209.6h-660v74.7Z" class="g0_75"/>
<path fill-rule="evenodd" d="M137.5,334.1h660V284.3h-660v49.8Z" class="g0_75"/>
<path fill-rule="evenodd" d="M137.5,483.5h660V334.1h-660V483.5Z" class="g0_75"/>
<path fill-rule="evenodd" d="M137.5,508.4h660V483.5h-660v24.9Z" class="g0_75"/>
<path fill-rule="evenodd" d="M137.5,558.2h660V508.4h-660v49.8Z" class="g0_75"/>
<path fill-rule="evenodd" d="M137.5,583.2h660V558.3h-660v24.9Z" class="g0_75"/>
<path fill-rule="evenodd" d="M137.5,657.9h660V583.2h-660v74.7Z" class="g0_75"/>
<path fill-rule="evenodd" d="M137.5,682.8h660V657.9h-660v24.9Z" class="g0_75"/>
<path fill-rule="evenodd" d="M137.5,707.7h660V682.8h-660v24.9Z" class="g0_75"/>
<path fill-rule="evenodd" d="M137.5,757.5h660V707.7h-660v49.8Z" class="g0_75"/>
<path fill-rule="evenodd" d="M137.5,807.3h660V757.5h-660v49.8Z" class="g0_75"/>
<path fill-rule="evenodd" d="M137.5,832.2h660V807.3h-660v24.9Z" class="g0_75"/>
<path fill-rule="evenodd" d="M137.5,857.1h660V832.2h-660v24.9Z" class="g0_75"/>
<path fill-rule="evenodd" d="M137.5,882h660V857.1h-660V882Z" class="g0_75"/>
<path fill-rule="evenodd" d="M137.5,906.9h660V882h-660v24.9Z" class="g0_75"/>
<path fill-rule="evenodd" d="M137.5,931.8h660V906.9h-660v24.9Z" class="g0_75"/>
<path fill-rule="evenodd" d="M137.5,956.7h660V931.8h-660v24.9Z" class="g0_75"/>
<path fill-rule="evenodd" d="M137.5,981.6h660V956.7h-660v24.9Z" class="g0_75"/>
<path fill-rule="evenodd" d="M137.5,1006.5h660V981.6h-660v24.9Z" class="g0_75"/>
<path fill-rule="evenodd" d="M137.5,1049.1h660v-42.6h-660v42.6Z" class="g0_75"/>
<path fill-rule="evenodd" d="M137.5,1123.8h660v-74.7h-660v74.7Z" class="g0_75"/>
<path fill-rule="evenodd" d="M137.5,1148.7h660v-24.9h-660v24.9Z" class="g0_75"/>
</svg>