<?xml version="1.0" encoding="UTF-8" standalone="no"?>
<!DOCTYPE svg PUBLIC "-//W3C//DTD SVG 1.1//EN"
"http://www.w3.org/Graphics/SVG/1.1/DTD/svg11.dtd">
<svg viewBox="0 0 935 1210" version="1.1" xmlns="http://www.w3.org/2000/svg" xmlns:xlink="http://www.w3.org/1999/xlink">
<defs>
<style type="text/css"><![CDATA[
.g0_159{
fill: #FFFFFF;
}
.g1_159{
}
]]></style>
</defs>
<path fill-rule="evenodd" d="M137.5,159.8h660V110h-660v49.8Z" class="g0_159"/>
<path fill-rule="evenodd" d="M137.5,184.7h660V159.8h-660v24.9Z" class="g0_159"/>
<path fill-rule="evenodd" d="M137.5,210.1h660V184.7h-660v25.4Z" class="g0_159"/>
<path fill-rule="evenodd" d="M137.5,259.9h660V210.1h-660v49.8Z" class="g0_159"/>
<path fill-rule="evenodd" d="M137.5,284.8h660V259.9h-660v24.9Z" class="g0_159"/>
<path fill-rule="evenodd" d="M137.5,359.5h660V284.8h-660v74.7Z" class="g0_159"/>
<path fill-rule="evenodd" d="M137.5,384.4h660V359.5h-660v24.9Z" class="g0_159"/>
<path fill-rule="evenodd" d="M137.5,434.2h660V384.4h-660v49.8Z" class="g0_159"/>
<path fill-rule="evenodd" d="M191.4,459.1H797.5V434.2H191.4v24.9Z" class="g0_159"/>
<path fill-rule="evenodd" d="M191.4,484H797.5V459.1H191.4V484Z" class="g0_159"/>
<path fill-rule="evenodd" d="M191.4,511.2H797.5V484H191.4v27.2Z" class="g0_159"/>
<path fill-rule="evenodd" d="M191.4,536.1H797.5V511.2H191.4v24.9Z" class="g0_159"/>
<path fill-rule="evenodd" d="M191.4,561H797.5V536.1H191.4V561Z" class="g0_159"/>
<path fill-rule="evenodd" d="M191.4,585.9H797.5V561H191.4v24.9Z" class="g0_159"/>
<path fill-rule="evenodd" d="M137.5,610.8h660V585.9h-660v24.9Z" class="g0_159"/>
<path fill-rule="evenodd" d="M137.5,635.7h660V610.8h-660v24.9Z" class="g0_159"/>
<path fill-rule="evenodd" d="M137.5,660.6h660V635.7h-660v24.9Z" class="g0_159"/>
<path fill-rule="evenodd" d="M137.5,685.5h660V660.6h-660v24.9Z" class="g0_159"/>
<path fill-rule="evenodd" d="M137.5,760.2h660V685.5h-660v74.7Z" class="g0_159"/>
<path fill-rule="evenodd" d="M138,810H797.5V760.2H138V810Z" class="g0_159"/>
<path fill-rule="evenodd" d="M138,934.5H797.5V810H138V934.5Z" class="g0_159"/>
<path fill-rule="evenodd" d="M138,1009.3H797.5V934.5H138v74.8Z" class="g0_159"/>
<path fill-rule="evenodd" d="M138,1034.2H797.5v-24.9H138v24.9Z" class="g0_159"/>
<path fill-rule="evenodd" d="M138,1059.1H797.5v-24.9H138v24.9Z" class="g0_159"/>
<path fill-rule="evenodd" d="M138,1084H797.5v-24.9H138V1084Z" class="g0_159"/>
<path fill-rule="evenodd" d="M138,1108.9H797.5V1084H138v24.9Z" class="g0_159"/>
<path fill-rule="evenodd" d="M138,1133.8H797.5v-24.9H138v24.9Z" class="g0_159"/>
<path fill-rule="evenodd" d="M191.4,511.2H797.5v-.6H191.4v.6Z" class="g1_159"/>
</svg>