<?xml version="1.0" encoding="UTF-8" standalone="no"?>
<!DOCTYPE svg PUBLIC "-//W3C//DTD SVG 1.1//EN"
"http://www.w3.org/Graphics/SVG/1.1/DTD/svg11.dtd">
<svg viewBox="0 0 935 1210" version="1.1" xmlns="http://www.w3.org/2000/svg" xmlns:xlink="http://www.w3.org/1999/xlink">
<defs>
<style type="text/css"><![CDATA[
.g0_68{
fill: #FFFFFF;
}
]]></style>
</defs>
<path fill-rule="evenodd" d="M138,209.6H797.5V110H138v99.6Z" class="g0_68"/>
<path fill-rule="evenodd" d="M138,259.4H797.5V209.6H138v49.8Z" class="g0_68"/>
<path fill-rule="evenodd" d="M138,309.2H797.5V259.4H138v49.8Z" class="g0_68"/>
<path fill-rule="evenodd" d="M138,334.1H797.5V309.2H138v24.9Z" class="g0_68"/>
<path fill-rule="evenodd" d="M138,359H797.5V334.1H138V359Z" class="g0_68"/>
<path fill-rule="evenodd" d="M138,408.8H797.5V359H138v49.8Z" class="g0_68"/>
<path fill-rule="evenodd" d="M138,433.7H797.5V408.8H138v24.9Z" class="g0_68"/>
<path fill-rule="evenodd" d="M138,483.5H797.5V433.7H138v49.8Z" class="g0_68"/>
<path fill-rule="evenodd" d="M138,508.4H797.5V483.5H138v24.9Z" class="g0_68"/>
<path fill-rule="evenodd" d="M138,558.2H797.5V508.4H138v49.8Z" class="g0_68"/>
<path fill-rule="evenodd" d="M137.5,583.2h660V558.3h-660v24.9Z" class="g0_68"/>
<path fill-rule="evenodd" d="M165.8,608.1H797.5V583.2H165.8v24.9Z" class="g0_68"/>
<path fill-rule="evenodd" d="M138,633H797.5V608.1H138V633Z" class="g0_68"/>
<path fill-rule="evenodd" d="M165.8,657.9H797.5V633H165.8v24.9Z" class="g0_68"/>
<path fill-rule="evenodd" d="M165.8,682.8H797.5V657.9H165.8v24.9Z" class="g0_68"/>
<path fill-rule="evenodd" d="M137.5,707.7h660V682.8h-660v24.9Z" class="g0_68"/>
<path fill-rule="evenodd" d="M137.5,807.3h660V707.7h-660v99.6Z" class="g0_68"/>
<path fill-rule="evenodd" d="M137.5,857.1h660V807.3h-660v49.8Z" class="g0_68"/>
<path fill-rule="evenodd" d="M137.5,882h660V857.1h-660V882Z" class="g0_68"/>
<path fill-rule="evenodd" d="M137.5,906.9h660V882h-660v24.9Z" class="g0_68"/>
<path fill-rule="evenodd" d="M137.5,931.8h660V906.9h-660v24.9Z" class="g0_68"/>
<path fill-rule="evenodd" d="M137.5,981.6h660V931.8h-660v49.8Z" class="g0_68"/>
<path fill-rule="evenodd" d="M137.5,1006.5h660V981.6h-660v24.9Z" class="g0_68"/>
<path fill-rule="evenodd" d="M137.5,1106.1h660v-99.6h-660v99.6Z" class="g0_68"/>
<path fill-rule="evenodd" d="M137.5,1131.5h660v-25.4h-660v25.4Z" class="g0_68"/>
</svg>