<?xml version="1.0" encoding="UTF-8" standalone="no"?>
<!DOCTYPE svg PUBLIC "-//W3C//DTD SVG 1.1//EN"
"http://www.w3.org/Graphics/SVG/1.1/DTD/svg11.dtd">
<svg viewBox="0 0 935 1210" version="1.1" xmlns="http://www.w3.org/2000/svg" xmlns:xlink="http://www.w3.org/1999/xlink">
<defs>
<style type="text/css"><![CDATA[
.g0_120{
fill: #FFFFFF;
}
]]></style>
</defs>
<path fill-rule="evenodd" d="M137.5,184.7h660V110h-660v74.7Z" class="g0_120"/>
<path fill-rule="evenodd" d="M137.5,234.5h660V184.7h-660v49.8Z" class="g0_120"/>
<path fill-rule="evenodd" d="M137.5,334.1h660V234.5h-660v99.6Z" class="g0_120"/>
<path fill-rule="evenodd" d="M137.5,359h660V334.1h-660V359Z" class="g0_120"/>
<path fill-rule="evenodd" d="M137.5,383.9h660V359h-660v24.9Z" class="g0_120"/>
<path fill-rule="evenodd" d="M137.5,483.5h660V383.9h-660v99.6Z" class="g0_120"/>
<path fill-rule="evenodd" d="M137.5,508.4h660V483.5h-660v24.9Z" class="g0_120"/>
<path fill-rule="evenodd" d="M137.5,533.3h660V508.4h-660v24.9Z" class="g0_120"/>
<path fill-rule="evenodd" d="M137.5,558.2h660V533.3h-660v24.9Z" class="g0_120"/>
<path fill-rule="evenodd" d="M137.5,583.2h660V558.3h-660v24.9Z" class="g0_120"/>
<path fill-rule="evenodd" d="M137.5,608.1h660V583.2h-660v24.9Z" class="g0_120"/>
<path fill-rule="evenodd" d="M137.5,633h660V608.1h-660V633Z" class="g0_120"/>
<path fill-rule="evenodd" d="M137.5,658.3h660V633h-660v25.3Z" class="g0_120"/>
<path fill-rule="evenodd" d="M137.5,683.2h660V658.3h-660v24.9Z" class="g0_120"/>
<path fill-rule="evenodd" d="M137.5,733h660V683.2h-660V733Z" class="g0_120"/>
<path fill-rule="evenodd" d="M137.5,782.8h660V733h-660v49.8Z" class="g0_120"/>
<path fill-rule="evenodd" d="M137.5,807.7h660V782.8h-660v24.9Z" class="g0_120"/>
<path fill-rule="evenodd" d="M137.5,832.6h660V807.7h-660v24.9Z" class="g0_120"/>
<path fill-rule="evenodd" d="M137.5,857.5h660V832.6h-660v24.9Z" class="g0_120"/>
<path fill-rule="evenodd" d="M137.5,907.3h660V857.5h-660v49.8Z" class="g0_120"/>
<path fill-rule="evenodd" d="M137.5,932.3h660v-25h-660v25Z" class="g0_120"/>
<path fill-rule="evenodd" d="M137.5,957.2h660V932.3h-660v24.9Z" class="g0_120"/>
<path fill-rule="evenodd" d="M137.5,1031.9h660V957.2h-660v74.7Z" class="g0_120"/>
<path fill-rule="evenodd" d="M137.5,1106.6h660v-74.7h-660v74.7Z" class="g0_120"/>
<path fill-rule="evenodd" d="M137.5,1131.8h660v-25.2h-660v25.2Z" class="g0_120"/>
</svg>