<?xml version="1.0" encoding="UTF-8" standalone="no"?>
<!DOCTYPE svg PUBLIC "-//W3C//DTD SVG 1.1//EN"
"http://www.w3.org/Graphics/SVG/1.1/DTD/svg11.dtd">
<svg viewBox="0 0 935 1210" version="1.1" xmlns="http://www.w3.org/2000/svg" xmlns:xlink="http://www.w3.org/1999/xlink">
<defs>
<style type="text/css"><![CDATA[
.g0_95{
fill: #FFFFFF;
}
.g1_95{
}
]]></style>
</defs>
<path fill-rule="evenodd" d="M137.5,134.9h660V110h-660v24.9Z" class="g0_95"/>
<path fill-rule="evenodd" d="M137.5,209.6h660V134.9h-660v74.7Z" class="g0_95"/>
<path fill-rule="evenodd" d="M137.5,234.5h660V209.6h-660v24.9Z" class="g0_95"/>
<path fill-rule="evenodd" d="M138.3,303.6H797.5V234.5H138.3v69.1Z" class="g0_95"/>
<path fill-rule="evenodd" d="M138.3,325.9H797.5V303.6H138.3v22.3Z" class="g0_95"/>
<path fill-rule="evenodd" d="M138.3,348.3H797.5V325.9H138.3v22.4Z" class="g0_95"/>
<path fill-rule="evenodd" d="M138.3,371.1H797.5V348.3H138.3v22.8Z" class="g0_95"/>
<path fill-rule="evenodd" d="M138.3,393.9H797.5V371.1H138.3v22.8Z" class="g0_95"/>
<path fill-rule="evenodd" d="M138.3,416.8H797.5V393.9H138.3v22.9Z" class="g0_95"/>
<path fill-rule="evenodd" d="M138.3,439.5H797.5V416.8H138.3v22.7Z" class="g0_95"/>
<path fill-rule="evenodd" d="M138.3,467.7H797.5V439.5H138.3v28.2Z" class="g0_95"/>
<path fill-rule="evenodd" d="M137.5,515.8h660V467.7h-660v48.1Z" class="g0_95"/>
<path fill-rule="evenodd" d="M137.5,565.6h660V515.8h-660v49.8Z" class="g0_95"/>
<path fill-rule="evenodd" d="M137.5,590.5h660V565.6h-660v24.9Z" class="g0_95"/>
<path fill-rule="evenodd" d="M137.5,615.4h660V590.5h-660v24.9Z" class="g0_95"/>
<path fill-rule="evenodd" d="M137.5,665.2h660V615.4h-660v49.8Z" class="g0_95"/>
<path fill-rule="evenodd" d="M137.5,690.1h660V665.2h-660v24.9Z" class="g0_95"/>
<path fill-rule="evenodd" d="M137.5,715h660V690.1h-660V715Z" class="g0_95"/>
<path fill-rule="evenodd" d="M137.5,742.2h660V715h-660v27.2Z" class="g0_95"/>
<path fill-rule="evenodd" d="M137.5,767.1h660V742.2h-660v24.9Z" class="g0_95"/>
<path fill-rule="evenodd" d="M137.5,792h660V767.1h-660V792Z" class="g0_95"/>
<path fill-rule="evenodd" d="M137.5,816.9h660V792h-660v24.9Z" class="g0_95"/>
<path fill-rule="evenodd" d="M137.5,841.8h660V816.9h-660v24.9Z" class="g0_95"/>
<path fill-rule="evenodd" d="M141.9,866.7H797.5V841.8H141.9v24.9Z" class="g0_95"/>
<path fill-rule="evenodd" d="M141.9,891.6H797.5V866.7H141.9v24.9Z" class="g0_95"/>
<path fill-rule="evenodd" d="M141.9,916.5H797.5V891.6H141.9v24.9Z" class="g0_95"/>
<path fill-rule="evenodd" d="M137.5,941.4h660V916.5h-660v24.9Z" class="g0_95"/>
<path fill-rule="evenodd" d="M137.5,1016.1h660V941.4h-660v74.7Z" class="g0_95"/>
<path fill-rule="evenodd" d="M137.5,1090.8h660v-74.7h-660v74.7Z" class="g0_95"/>
<path fill-rule="evenodd" d="M137.5,1115.7h660v-24.9h-660v24.9Z" class="g0_95"/>
<path fill-rule="evenodd" d="M137.5,1140.6h660v-24.9h-660v24.9Z" class="g0_95"/>
<path fill-rule="evenodd" d="M137.5,742.2h660v-.6h-660v.6Z" class="g1_95"/>
</svg>