<?xml version="1.0" encoding="UTF-8" standalone="no"?>
<!DOCTYPE svg PUBLIC "-//W3C//DTD SVG 1.1//EN"
"http://www.w3.org/Graphics/SVG/1.1/DTD/svg11.dtd">
<svg viewBox="0 0 935 1210" version="1.1" xmlns="http://www.w3.org/2000/svg" xmlns:xlink="http://www.w3.org/1999/xlink">
<defs>
<style type="text/css"><![CDATA[
.g0_92{
fill: #FFFFFF;
}
]]></style>
</defs>
<path fill-rule="evenodd" d="M137.5,134.9h660V110h-660v24.9Z" class="g0_92"/>
<path fill-rule="evenodd" d="M137.5,159.8h660V134.9h-660v24.9Z" class="g0_92"/>
<path fill-rule="evenodd" d="M137.5,184.7h660V159.8h-660v24.9Z" class="g0_92"/>
<path fill-rule="evenodd" d="M137.5,259.4h660V184.7h-660v74.7Z" class="g0_92"/>
<path fill-rule="evenodd" d="M137.5,334.1h660V259.4h-660v74.7Z" class="g0_92"/>
<path fill-rule="evenodd" d="M137.5,359h660V334.1h-660V359Z" class="g0_92"/>
<path fill-rule="evenodd" d="M137.5,433.7h660V359h-660v74.7Z" class="g0_92"/>
<path fill-rule="evenodd" d="M137.5,458.6h660V433.7h-660v24.9Z" class="g0_92"/>
<path fill-rule="evenodd" d="M137.5,533.3h660V458.6h-660v74.7Z" class="g0_92"/>
<path fill-rule="evenodd" d="M137.5,583.2h660V533.3h-660v49.9Z" class="g0_92"/>
<path fill-rule="evenodd" d="M137.5,657.9h660V583.2h-660v74.7Z" class="g0_92"/>
<path fill-rule="evenodd" d="M137.5,682.8h660V657.9h-660v24.9Z" class="g0_92"/>
<path fill-rule="evenodd" d="M137.5,732.6h660V682.8h-660v49.8Z" class="g0_92"/>
<path fill-rule="evenodd" d="M137.5,757.5h660V732.6h-660v24.9Z" class="g0_92"/>
<path fill-rule="evenodd" d="M137.5,782.8h660V757.5h-660v25.3Z" class="g0_92"/>
<path fill-rule="evenodd" d="M137.5,807.7h660V782.8h-660v24.9Z" class="g0_92"/>
<path fill-rule="evenodd" d="M137.5,833.4h660V807.7h-660v25.7Z" class="g0_92"/>
<path fill-rule="evenodd" d="M137.5,858.3h660V833.4h-660v24.9Z" class="g0_92"/>
<path fill-rule="evenodd" d="M137.5,883.2h660V858.3h-660v24.9Z" class="g0_92"/>
<path fill-rule="evenodd" d="M137.5,908.4h660V883.2h-660v25.2Z" class="g0_92"/>
<path fill-rule="evenodd" d="M137.5,933.3h660V908.4h-660v24.9Z" class="g0_92"/>
<path fill-rule="evenodd" d="M137.5,958.2h660V933.3h-660v24.9Z" class="g0_92"/>
<path fill-rule="evenodd" d="M137.5,983.6h660V958.2h-660v25.4Z" class="g0_92"/>
<path fill-rule="evenodd" d="M137.5,1008.8h660V983.6h-660v25.2Z" class="g0_92"/>
<path fill-rule="evenodd" d="M137.5,1083.5h660v-74.7h-660v74.7Z" class="g0_92"/>
<path fill-rule="evenodd" d="M137.5,1108.4h660v-24.9h-660v24.9Z" class="g0_92"/>
<path fill-rule="evenodd" d="M137.5,1133.3h660v-24.9h-660v24.9Z" class="g0_92"/>
</svg>