<?xml version="1.0" encoding="UTF-8" standalone="no"?>
<!DOCTYPE svg PUBLIC "-//W3C//DTD SVG 1.1//EN"
"http://www.w3.org/Graphics/SVG/1.1/DTD/svg11.dtd">
<svg viewBox="0 0 935 1210" version="1.1" xmlns="http://www.w3.org/2000/svg" xmlns:xlink="http://www.w3.org/1999/xlink">
<defs>
<style type="text/css"><![CDATA[
.g0_119{
fill: #FFFFFF;
}
]]></style>
</defs>
<path fill-rule="evenodd" d="M137.5,134.9h660V110h-660v24.9Z" class="g0_119"/>
<path fill-rule="evenodd" d="M137.5,184.7h660V134.9h-660v49.8Z" class="g0_119"/>
<path fill-rule="evenodd" d="M137.5,210.1h660V184.7h-660v25.4Z" class="g0_119"/>
<path fill-rule="evenodd" d="M137.5,309.7h660V210.1h-660v99.6Z" class="g0_119"/>
<path fill-rule="evenodd" d="M137.5,359.5h660V309.7h-660v49.8Z" class="g0_119"/>
<path fill-rule="evenodd" d="M137.5,384.4h660V359.5h-660v24.9Z" class="g0_119"/>
<path fill-rule="evenodd" d="M137.5,434.2h660V384.4h-660v49.8Z" class="g0_119"/>
<path fill-rule="evenodd" d="M137.5,459.1h660V434.2h-660v24.9Z" class="g0_119"/>
<path fill-rule="evenodd" d="M137.5,484h660V459.1h-660V484Z" class="g0_119"/>
<path fill-rule="evenodd" d="M137.5,558.7h660V484h-660v74.7Z" class="g0_119"/>
<path fill-rule="evenodd" d="M137.5,583.6h660V558.7h-660v24.9Z" class="g0_119"/>
<path fill-rule="evenodd" d="M137.5,608.5h660V583.6h-660v24.9Z" class="g0_119"/>
<path fill-rule="evenodd" d="M137.5,658.6h660V608.5h-660v50.1Z" class="g0_119"/>
<path fill-rule="evenodd" d="M137.5,683.5h660V658.6h-660v24.9Z" class="g0_119"/>
<path fill-rule="evenodd" d="M137.5,708.4h660V683.5h-660v24.9Z" class="g0_119"/>
<path fill-rule="evenodd" d="M137.5,758.2h660V708.4h-660v49.8Z" class="g0_119"/>
<path fill-rule="evenodd" d="M137.5,808h660V758.2h-660V808Z" class="g0_119"/>
<path fill-rule="evenodd" d="M137.5,832.9h660V808h-660v24.9Z" class="g0_119"/>
<path fill-rule="evenodd" d="M137.5,933h660V832.9h-660V933Z" class="g0_119"/>
<path fill-rule="evenodd" d="M137.5,982.8h660V933h-660v49.8Z" class="g0_119"/>
<path fill-rule="evenodd" d="M137.5,1007.7h660V982.8h-660v24.9Z" class="g0_119"/>
<path fill-rule="evenodd" d="M137.5,1132.2h660V1007.7h-660v124.5Z" class="g0_119"/>
</svg>