<?xml version="1.0" encoding="UTF-8" standalone="no"?>
<!DOCTYPE svg PUBLIC "-//W3C//DTD SVG 1.1//EN"
"http://www.w3.org/Graphics/SVG/1.1/DTD/svg11.dtd">
<svg viewBox="0 0 935 1210" version="1.1" xmlns="http://www.w3.org/2000/svg" xmlns:xlink="http://www.w3.org/1999/xlink">
<defs>
<style type="text/css"><![CDATA[
.g0_81{
fill: #FFFFFF;
}
]]></style>
</defs>
<path fill-rule="evenodd" d="M138,134.9H797.5V110H138v24.9Z" class="g0_81"/>
<path fill-rule="evenodd" d="M138,159.8H797.5V134.9H138v24.9Z" class="g0_81"/>
<path fill-rule="evenodd" d="M138,184.7H797.5V159.8H138v24.9Z" class="g0_81"/>
<path fill-rule="evenodd" d="M138,209.6H797.5V184.7H138v24.9Z" class="g0_81"/>
<path fill-rule="evenodd" d="M138,259.4H797.5V209.6H138v49.8Z" class="g0_81"/>
<path fill-rule="evenodd" d="M138,284.3H797.5V259.4H138v24.9Z" class="g0_81"/>
<path fill-rule="evenodd" d="M138,408.8H797.5V284.3H138V408.8Z" class="g0_81"/>
<path fill-rule="evenodd" d="M138,433.7H797.5V408.8H138v24.9Z" class="g0_81"/>
<path fill-rule="evenodd" d="M138,458.6H797.5V433.7H138v24.9Z" class="g0_81"/>
<path fill-rule="evenodd" d="M138,483.5H797.5V458.6H138v24.9Z" class="g0_81"/>
<path fill-rule="evenodd" d="M138,508.4H797.5V483.5H138v24.9Z" class="g0_81"/>
<path fill-rule="evenodd" d="M138,558.2H797.5V508.4H138v49.8Z" class="g0_81"/>
<path fill-rule="evenodd" d="M138,608.1H797.5V558.2H138v49.9Z" class="g0_81"/>
<path fill-rule="evenodd" d="M138,682.8H797.5V608.1H138v74.7Z" class="g0_81"/>
<path fill-rule="evenodd" d="M138,708.1H797.5V682.8H138v25.3Z" class="g0_81"/>
<path fill-rule="evenodd" d="M138,757.9H797.5V708.1H138v49.8Z" class="g0_81"/>
<path fill-rule="evenodd" d="M138,832.6H797.5V757.9H138v74.7Z" class="g0_81"/>
<path fill-rule="evenodd" d="M138,882.4H797.5V832.6H138v49.8Z" class="g0_81"/>
<path fill-rule="evenodd" d="M138,907.3H797.5V882.4H138v24.9Z" class="g0_81"/>
<path fill-rule="evenodd" d="M138,957.2H797.5V907.3H138v49.9Z" class="g0_81"/>
<path fill-rule="evenodd" d="M138,982.1H797.5V957.2H138v24.9Z" class="g0_81"/>
<path fill-rule="evenodd" d="M138,1056.8H797.5V982.1H138v74.7Z" class="g0_81"/>
<path fill-rule="evenodd" d="M138,1081.7H797.5v-24.9H138v24.9Z" class="g0_81"/>
<path fill-rule="evenodd" d="M138,1131.5H797.5v-49.8H138v49.8Z" class="g0_81"/>
</svg>