<?xml version="1.0" encoding="UTF-8" standalone="no"?>
<!DOCTYPE svg PUBLIC "-//W3C//DTD SVG 1.1//EN"
"http://www.w3.org/Graphics/SVG/1.1/DTD/svg11.dtd">
<svg viewBox="0 0 935 1210" version="1.1" xmlns="http://www.w3.org/2000/svg" xmlns:xlink="http://www.w3.org/1999/xlink">
<defs>
<style type="text/css"><![CDATA[
.g0_110{
fill: #FFFFFF;
}
.g1_110{
}
]]></style>
</defs>
<path fill-rule="evenodd" d="M138,159.8H797.5V110H138v49.8Z" class="g0_110"/>
<path fill-rule="evenodd" d="M138,284.3H797.5V159.8H138V284.3Z" class="g0_110"/>
<path fill-rule="evenodd" d="M138,309.2H797.5V284.3H138v24.9Z" class="g0_110"/>
<path fill-rule="evenodd" d="M138,334.1H797.5V309.2H138v24.9Z" class="g0_110"/>
<path fill-rule="evenodd" d="M138,408.8H797.5V334.1H138v74.7Z" class="g0_110"/>
<path fill-rule="evenodd" d="M138,433.7H797.5V408.8H138v24.9Z" class="g0_110"/>
<path fill-rule="evenodd" d="M138,458.6H797.5V433.7H138v24.9Z" class="g0_110"/>
<path fill-rule="evenodd" d="M138,485.8H797.5V458.6H138v27.2Z" class="g0_110"/>
<path fill-rule="evenodd" d="M138,510.7H797.5V485.8H138v24.9Z" class="g0_110"/>
<path fill-rule="evenodd" d="M138,535.6H797.5V510.7H138v24.9Z" class="g0_110"/>
<path fill-rule="evenodd" d="M138,560.5H797.5V535.6H138v24.9Z" class="g0_110"/>
<path fill-rule="evenodd" d="M137.5,583.3h660V560.5h-660v22.8Z" class="g0_110"/>
<path fill-rule="evenodd" d="M137.5,608.2h660V583.3h-660v24.9Z" class="g0_110"/>
<path fill-rule="evenodd" d="M137.5,633.1h660V608.2h-660v24.9Z" class="g0_110"/>
<path fill-rule="evenodd" d="M137.5,658h660V633.1h-660V658Z" class="g0_110"/>
<path fill-rule="evenodd" d="M137.5,732.7h660V658h-660v74.7Z" class="g0_110"/>
<path fill-rule="evenodd" d="M138,783H797.5V732.7H138V783Z" class="g0_110"/>
<path fill-rule="evenodd" d="M138,807.9H797.5V783H138v24.9Z" class="g0_110"/>
<path fill-rule="evenodd" d="M138,832.8H797.5V807.9H138v24.9Z" class="g0_110"/>
<path fill-rule="evenodd" d="M138,932.4H797.5V832.8H138v99.6Z" class="g0_110"/>
<path fill-rule="evenodd" d="M138,1007.1H797.5V932.4H138v74.7Z" class="g0_110"/>
<path fill-rule="evenodd" d="M138,1032H797.5v-24.9H138V1032Z" class="g0_110"/>
<path fill-rule="evenodd" d="M138,1056.9H797.5V1032H138v24.9Z" class="g0_110"/>
<path fill-rule="evenodd" d="M138,1081.8H797.5v-24.9H138v24.9Z" class="g0_110"/>
<path fill-rule="evenodd" d="M138,1131.9H797.5v-50.1H138v50.1Z" class="g0_110"/>
<path fill-rule="evenodd" d="M138,485.8H797.5v-.6H138v.6Z" class="g1_110"/>
</svg>