<?xml version="1.0" encoding="UTF-8" standalone="no"?>
<!DOCTYPE svg PUBLIC "-//W3C//DTD SVG 1.1//EN"
"http://www.w3.org/Graphics/SVG/1.1/DTD/svg11.dtd">
<svg viewBox="0 0 935 1210" version="1.1" xmlns="http://www.w3.org/2000/svg" xmlns:xlink="http://www.w3.org/1999/xlink">
<defs>
<style type="text/css"><![CDATA[
.g0_141{
fill: #FFFFFF;
}
.g1_141{
}
]]></style>
</defs>
<path fill-rule="evenodd" d="M137.5,134.9h660V110h-660v24.9Z" class="g0_141"/>
<path fill-rule="evenodd" d="M137.5,159.8h660V134.9h-660v24.9Z" class="g0_141"/>
<path fill-rule="evenodd" d="M137.5,209.6h660V159.8h-660v49.8Z" class="g0_141"/>
<path fill-rule="evenodd" d="M137.5,259.4h660V209.6h-660v49.8Z" class="g0_141"/>
<path fill-rule="evenodd" d="M137.5,284.3h660V259.4h-660v24.9Z" class="g0_141"/>
<path fill-rule="evenodd" d="M137.5,309.2h660V284.3h-660v24.9Z" class="g0_141"/>
<path fill-rule="evenodd" d="M137.5,334.1h660V309.2h-660v24.9Z" class="g0_141"/>
<path fill-rule="evenodd" d="M137.5,383.9h660V334.1h-660v49.8Z" class="g0_141"/>
<path fill-rule="evenodd" d="M137.5,408.8h660V383.9h-660v24.9Z" class="g0_141"/>
<path fill-rule="evenodd" d="M137.5,433.7h660V408.8h-660v24.9Z" class="g0_141"/>
<path fill-rule="evenodd" d="M137.5,558.2h660V433.7h-660V558.2Z" class="g0_141"/>
<path fill-rule="evenodd" d="M137.5,583.2h660V558.3h-660v24.9Z" class="g0_141"/>
<path fill-rule="evenodd" d="M137.5,608.1h660V583.2h-660v24.9Z" class="g0_141"/>
<path fill-rule="evenodd" d="M137.5,633h660V608.1h-660V633Z" class="g0_141"/>
<path fill-rule="evenodd" d="M137.5,657.9h660V633h-660v24.9Z" class="g0_141"/>
<path fill-rule="evenodd" d="M137.5,682.8h660V657.9h-660v24.9Z" class="g0_141"/>
<path fill-rule="evenodd" d="M137.5,710h660V682.8h-660V710Z" class="g0_141"/>
<path fill-rule="evenodd" d="M137.5,734.9h660V710h-660v24.9Z" class="g0_141"/>
<path fill-rule="evenodd" d="M137.5,759.8h660V734.9h-660v24.9Z" class="g0_141"/>
<path fill-rule="evenodd" d="M137.5,784.7h660V759.8h-660v24.9Z" class="g0_141"/>
<path fill-rule="evenodd" d="M137.5,811.4h660V784.7h-660v26.7Z" class="g0_141"/>
<path fill-rule="evenodd" d="M137.5,836.3h660V811.4h-660v24.9Z" class="g0_141"/>
<path fill-rule="evenodd" d="M137.5,861.2h660V836.3h-660v24.9Z" class="g0_141"/>
<path fill-rule="evenodd" d="M137.5,886.1h660V861.2h-660v24.9Z" class="g0_141"/>
<path fill-rule="evenodd" d="M137.5,935.9h660V886.1h-660v49.8Z" class="g0_141"/>
<path fill-rule="evenodd" d="M137.5,960.8h660V935.9h-660v24.9Z" class="g0_141"/>
<path fill-rule="evenodd" d="M137.5,1010.6h660V960.8h-660v49.8Z" class="g0_141"/>
<path fill-rule="evenodd" d="M137.5,1035.5h660v-24.9h-660v24.9Z" class="g0_141"/>
<path fill-rule="evenodd" d="M137.5,1060.4h660v-24.9h-660v24.9Z" class="g0_141"/>
<path fill-rule="evenodd" d="M137.5,1085.3h660v-24.9h-660v24.9Z" class="g0_141"/>
<path fill-rule="evenodd" d="M137.5,1110.2h660v-24.9h-660v24.9Z" class="g0_141"/>
<path fill-rule="evenodd" d="M137.5,1135.1h660v-24.9h-660v24.9Z" class="g0_141"/>
<path fill-rule="evenodd" d="M137.5,710h660v-.7h-660v.7Z" class="g1_141"/>
</svg>