<?xml version="1.0" encoding="UTF-8" standalone="no"?>
<!DOCTYPE svg PUBLIC "-//W3C//DTD SVG 1.1//EN"
"http://www.w3.org/Graphics/SVG/1.1/DTD/svg11.dtd">
<svg viewBox="0 0 935 1210" version="1.1" xmlns="http://www.w3.org/2000/svg" xmlns:xlink="http://www.w3.org/1999/xlink">
<defs>
<style type="text/css"><![CDATA[
.g0_108{
fill: #FFFFFF;
}
]]></style>
</defs>
<path fill-rule="evenodd" d="M137.5,209.6h660V110h-660v99.6Z" class="g0_108"/>
<path fill-rule="evenodd" d="M137.5,234.5h660V209.6h-660v24.9Z" class="g0_108"/>
<path fill-rule="evenodd" d="M137.5,284.3h660V234.5h-660v49.8Z" class="g0_108"/>
<path fill-rule="evenodd" d="M137.5,359h660V284.3h-660V359Z" class="g0_108"/>
<path fill-rule="evenodd" d="M137.5,383.9h660V359h-660v24.9Z" class="g0_108"/>
<path fill-rule="evenodd" d="M137.5,458.6h660V383.9h-660v74.7Z" class="g0_108"/>
<path fill-rule="evenodd" d="M137.5,483.5h660V458.6h-660v24.9Z" class="g0_108"/>
<path fill-rule="evenodd" d="M137.5,533.3h660V483.5h-660v49.8Z" class="g0_108"/>
<path fill-rule="evenodd" d="M137.5,558.2h660V533.3h-660v24.9Z" class="g0_108"/>
<path fill-rule="evenodd" d="M137.5,608.1h660V558.2h-660v49.9Z" class="g0_108"/>
<path fill-rule="evenodd" d="M137.5,657.9h660V608.1h-660v49.8Z" class="g0_108"/>
<path fill-rule="evenodd" d="M137.5,682.8h660V657.9h-660v24.9Z" class="g0_108"/>
<path fill-rule="evenodd" d="M137.5,732.6h660V682.8h-660v49.8Z" class="g0_108"/>
<path fill-rule="evenodd" d="M137.5,757.9h660V732.6h-660v25.3Z" class="g0_108"/>
<path fill-rule="evenodd" d="M137.5,782.8h660V757.9h-660v24.9Z" class="g0_108"/>
<path fill-rule="evenodd" d="M137.5,832.6h660V782.8h-660v49.8Z" class="g0_108"/>
<path fill-rule="evenodd" d="M137.5,857.5h660V832.6h-660v24.9Z" class="g0_108"/>
<path fill-rule="evenodd" d="M137.5,882.4h660V857.5h-660v24.9Z" class="g0_108"/>
<path fill-rule="evenodd" d="M137.5,907.3h660V882.4h-660v24.9Z" class="g0_108"/>
<path fill-rule="evenodd" d="M137.5,1007h660V907.3h-660V1007Z" class="g0_108"/>
<path fill-rule="evenodd" d="M137.5,1056.8h660V1007h-660v49.8Z" class="g0_108"/>
<path fill-rule="evenodd" d="M137.5,1081.7h660v-24.9h-660v24.9Z" class="g0_108"/>
<path fill-rule="evenodd" d="M138,1131.8H797.5v-50.1H138v50.1Z" class="g0_108"/>
</svg>