<?xml version="1.0" encoding="UTF-8" standalone="no"?>
<!DOCTYPE svg PUBLIC "-//W3C//DTD SVG 1.1//EN"
"http://www.w3.org/Graphics/SVG/1.1/DTD/svg11.dtd">
<svg viewBox="0 0 935 1210" version="1.1" xmlns="http://www.w3.org/2000/svg" xmlns:xlink="http://www.w3.org/1999/xlink">
<defs>
<style type="text/css"><![CDATA[
.g0_94{
fill: #FFFFFF;
}
]]></style>
</defs>
<path fill-rule="evenodd" d="M137.5,159.8h660V110h-660v49.8Z" class="g0_94"/>
<path fill-rule="evenodd" d="M137.5,209.6h660V159.8h-660v49.8Z" class="g0_94"/>
<path fill-rule="evenodd" d="M137.5,284.3h660V209.6h-660v74.7Z" class="g0_94"/>
<path fill-rule="evenodd" d="M137.5,309.2h660V284.3h-660v24.9Z" class="g0_94"/>
<path fill-rule="evenodd" d="M137.5,359h660V309.2h-660V359Z" class="g0_94"/>
<path fill-rule="evenodd" d="M137.5,408.8h660V359h-660v49.8Z" class="g0_94"/>
<path fill-rule="evenodd" d="M137.5,483.5h660V408.8h-660v74.7Z" class="g0_94"/>
<path fill-rule="evenodd" d="M137.5,508.4h660V483.5h-660v24.9Z" class="g0_94"/>
<path fill-rule="evenodd" d="M137.5,633h660V508.4h-660V633Z" class="g0_94"/>
<path fill-rule="evenodd" d="M137.5,657.9h660V633h-660v24.9Z" class="g0_94"/>
<path fill-rule="evenodd" d="M137.5,707.7h660V657.9h-660v49.8Z" class="g0_94"/>
<path fill-rule="evenodd" d="M137.5,732.6h660V707.7h-660v24.9Z" class="g0_94"/>
<path fill-rule="evenodd" d="M137.5,757.5h660V732.6h-660v24.9Z" class="g0_94"/>
<path fill-rule="evenodd" d="M137.5,782.4h660V757.5h-660v24.9Z" class="g0_94"/>
<path fill-rule="evenodd" d="M137.5,832.6h660V782.4h-660v50.2Z" class="g0_94"/>
<path fill-rule="evenodd" d="M137.5,882.4h660V832.6h-660v49.8Z" class="g0_94"/>
<path fill-rule="evenodd" d="M137.5,957.2h660V882.4h-660v74.8Z" class="g0_94"/>
<path fill-rule="evenodd" d="M137.5,982.1h660V957.2h-660v24.9Z" class="g0_94"/>
<path fill-rule="evenodd" d="M137.5,1007h660V982.1h-660V1007Z" class="g0_94"/>
<path fill-rule="evenodd" d="M137.5,1031.9h660V1007h-660v24.9Z" class="g0_94"/>
<path fill-rule="evenodd" d="M137.5,1056.8h660v-24.9h-660v24.9Z" class="g0_94"/>
<path fill-rule="evenodd" d="M137.5,1131.5h660v-74.7h-660v74.7Z" class="g0_94"/>
</svg>