<?xml version="1.0" encoding="UTF-8" standalone="no"?>
<!DOCTYPE svg PUBLIC "-//W3C//DTD SVG 1.1//EN"
"http://www.w3.org/Graphics/SVG/1.1/DTD/svg11.dtd">
<svg viewBox="0 0 935 1210" version="1.1" xmlns="http://www.w3.org/2000/svg" xmlns:xlink="http://www.w3.org/1999/xlink">
<defs>
<style type="text/css"><![CDATA[
.g0_60{
fill: #FFFFFF;
}
]]></style>
</defs>
<path fill-rule="evenodd" d="M137.5,134.9h660V110h-660v24.9Z" class="g0_60"/>
<path fill-rule="evenodd" d="M137.5,159.8h660V134.9h-660v24.9Z" class="g0_60"/>
<path fill-rule="evenodd" d="M137.5,209.6h660V159.8h-660v49.8Z" class="g0_60"/>
<path fill-rule="evenodd" d="M137.5,234.5h660V209.6h-660v24.9Z" class="g0_60"/>
<path fill-rule="evenodd" d="M137.5,259.4h660V234.5h-660v24.9Z" class="g0_60"/>
<path fill-rule="evenodd" d="M137.5,284.3h660V259.4h-660v24.9Z" class="g0_60"/>
<path fill-rule="evenodd" d="M137.5,359h660V284.3h-660V359Z" class="g0_60"/>
<path fill-rule="evenodd" d="M137.5,408.8h660V359h-660v49.8Z" class="g0_60"/>
<path fill-rule="evenodd" d="M137.5,558.2h660V408.8h-660V558.2Z" class="g0_60"/>
<path fill-rule="evenodd" d="M137.5,583.2h660V558.3h-660v24.9Z" class="g0_60"/>
<path fill-rule="evenodd" d="M137.5,608.1h660V583.2h-660v24.9Z" class="g0_60"/>
<path fill-rule="evenodd" d="M137.5,633h660V608.1h-660V633Z" class="g0_60"/>
<path fill-rule="evenodd" d="M137.5,657.9h660V633h-660v24.9Z" class="g0_60"/>
<path fill-rule="evenodd" d="M137.5,757.5h660V657.9h-660v99.6Z" class="g0_60"/>
<path fill-rule="evenodd" d="M137.5,782.4h660V757.5h-660v24.9Z" class="g0_60"/>
<path fill-rule="evenodd" d="M137.5,931.8h660V782.4h-660V931.8Z" class="g0_60"/>
<path fill-rule="evenodd" d="M137.5,1131h660V931.8h-660V1131Z" class="g0_60"/>
</svg>