<?xml version="1.0" encoding="UTF-8" standalone="no"?>
<!DOCTYPE svg PUBLIC "-//W3C//DTD SVG 1.1//EN"
"http://www.w3.org/Graphics/SVG/1.1/DTD/svg11.dtd">
<svg viewBox="0 0 935 1210" version="1.1" xmlns="http://www.w3.org/2000/svg" xmlns:xlink="http://www.w3.org/1999/xlink">
<defs>
<style type="text/css"><![CDATA[
.g0_66{
fill: #FFFFFF;
}
.g1_66{
}
]]></style>
</defs>
<path fill-rule="evenodd" d="M137.5,134.9h660V110h-660v24.9Z" class="g0_66"/>
<path fill-rule="evenodd" d="M137.5,159.8h660V134.9h-660v24.9Z" class="g0_66"/>
<path fill-rule="evenodd" d="M137.5,184.7h660V159.8h-660v24.9Z" class="g0_66"/>
<path fill-rule="evenodd" d="M137.5,209.6h660V184.7h-660v24.9Z" class="g0_66"/>
<path fill-rule="evenodd" d="M137.5,259.4h660V209.6h-660v49.8Z" class="g0_66"/>
<path fill-rule="evenodd" d="M137.5,284.3h660V259.4h-660v24.9Z" class="g0_66"/>
<path fill-rule="evenodd" d="M137.5,309.2h660V284.3h-660v24.9Z" class="g0_66"/>
<path fill-rule="evenodd" d="M137.5,359h660V309.2h-660V359Z" class="g0_66"/>
<path fill-rule="evenodd" d="M137.5,383.9h660V359h-660v24.9Z" class="g0_66"/>
<path fill-rule="evenodd" d="M137.5,433.7h660V383.9h-660v49.8Z" class="g0_66"/>
<path fill-rule="evenodd" d="M137.5,458.6h660V433.7h-660v24.9Z" class="g0_66"/>
<path fill-rule="evenodd" d="M137.5,483.5h660V458.6h-660v24.9Z" class="g0_66"/>
<path fill-rule="evenodd" d="M137.5,510.7h660V483.5h-660v27.2Z" class="g0_66"/>
<path fill-rule="evenodd" d="M137.5,535.6h660V510.7h-660v24.9Z" class="g0_66"/>
<path fill-rule="evenodd" d="M137.5,560.5h660V535.6h-660v24.9Z" class="g0_66"/>
<path fill-rule="evenodd" d="M137.5,585.4h660V560.5h-660v24.9Z" class="g0_66"/>
<path fill-rule="evenodd" d="M137.5,610.8h660V585.4h-660v25.4Z" class="g0_66"/>
<path fill-rule="evenodd" d="M163.9,635.7H797.5V610.8H163.9v24.9Z" class="g0_66"/>
<path fill-rule="evenodd" d="M163.9,660.6H797.5V635.7H163.9v24.9Z" class="g0_66"/>
<path fill-rule="evenodd" d="M163.9,685.5H797.5V660.6H163.9v24.9Z" class="g0_66"/>
<path fill-rule="evenodd" d="M137.5,710.4h660V685.5h-660v24.9Z" class="g0_66"/>
<path fill-rule="evenodd" d="M138,785.1H797.5V710.4H138v74.7Z" class="g0_66"/>
<path fill-rule="evenodd" d="M138,810H797.5V785.1H138V810Z" class="g0_66"/>
<path fill-rule="evenodd" d="M138,884.7H797.5V810H138v74.7Z" class="g0_66"/>
<path fill-rule="evenodd" d="M138,984.3H797.5V884.7H138v99.6Z" class="g0_66"/>
<path fill-rule="evenodd" d="M138,1084H797.5V984.3H138V1084Z" class="g0_66"/>
<path fill-rule="evenodd" d="M138,1133.8H797.5V1084H138v49.8Z" class="g0_66"/>
<path fill-rule="evenodd" d="M137.5,510.7h660v-.6h-660v.6Z" class="g1_66"/>
</svg>