<?xml version="1.0" encoding="UTF-8" standalone="no"?>
<!DOCTYPE svg PUBLIC "-//W3C//DTD SVG 1.1//EN"
"http://www.w3.org/Graphics/SVG/1.1/DTD/svg11.dtd">
<svg viewBox="0 0 935 1210" version="1.1" xmlns="http://www.w3.org/2000/svg" xmlns:xlink="http://www.w3.org/1999/xlink">
<defs>
<style type="text/css"><![CDATA[
.g0_109{
fill: #FFFFFF;
}
]]></style>
</defs>
<path fill-rule="evenodd" d="M138,184.7H797.5V110H138v74.7Z" class="g0_109"/>
<path fill-rule="evenodd" d="M138,209.6H797.5V184.7H138v24.9Z" class="g0_109"/>
<path fill-rule="evenodd" d="M138,234.5H797.5V209.6H138v24.9Z" class="g0_109"/>
<path fill-rule="evenodd" d="M138,259.4H797.5V234.5H138v24.9Z" class="g0_109"/>
<path fill-rule="evenodd" d="M138,284.3H797.5V259.4H138v24.9Z" class="g0_109"/>
<path fill-rule="evenodd" d="M138,384.4H797.5V284.3H138V384.4Z" class="g0_109"/>
<path fill-rule="evenodd" d="M138,434.2H797.5V384.4H138v49.8Z" class="g0_109"/>
<path fill-rule="evenodd" d="M138,459.1H797.5V434.2H138v24.9Z" class="g0_109"/>
<path fill-rule="evenodd" d="M138,558.7H797.5V459.1H138v99.6Z" class="g0_109"/>
<path fill-rule="evenodd" d="M138,608.5H797.5V558.7H138v49.8Z" class="g0_109"/>
<path fill-rule="evenodd" d="M138,658.3H797.5V608.5H138v49.8Z" class="g0_109"/>
<path fill-rule="evenodd" d="M138,708.1H797.5V658.3H138v49.8Z" class="g0_109"/>
<path fill-rule="evenodd" d="M138,757.9H797.5V708.1H138v49.8Z" class="g0_109"/>
<path fill-rule="evenodd" d="M138,782.8H797.5V757.9H138v24.9Z" class="g0_109"/>
<path fill-rule="evenodd" d="M138,808H797.5V782.8H138V808Z" class="g0_109"/>
<path fill-rule="evenodd" d="M138,907.7H797.5V808H138v99.7Z" class="g0_109"/>
<path fill-rule="evenodd" d="M138,957.5H797.5V907.7H138v49.8Z" class="g0_109"/>
<path fill-rule="evenodd" d="M138,1007.3H797.5V957.5H138v49.8Z" class="g0_109"/>
<path fill-rule="evenodd" d="M138,1032.2H797.5v-24.9H138v24.9Z" class="g0_109"/>
<path fill-rule="evenodd" d="M138,1082H797.5v-49.8H138V1082Z" class="g0_109"/>
<path fill-rule="evenodd" d="M138,1131.8H797.5V1082H138v49.8Z" class="g0_109"/>
</svg>