<?xml version="1.0" encoding="UTF-8" standalone="no"?>
<!DOCTYPE svg PUBLIC "-//W3C//DTD SVG 1.1//EN"
"http://www.w3.org/Graphics/SVG/1.1/DTD/svg11.dtd">
<svg viewBox="0 0 935 1210" version="1.1" xmlns="http://www.w3.org/2000/svg" xmlns:xlink="http://www.w3.org/1999/xlink">
<defs>
<style type="text/css"><![CDATA[
.g0_63{
fill: #FFFFFF;
}
]]></style>
</defs>
<path fill-rule="evenodd" d="M137.5,134.9h660V110h-660v24.9Z" class="g0_63"/>
<path fill-rule="evenodd" d="M137.5,184.7h660V134.9h-660v49.8Z" class="g0_63"/>
<path fill-rule="evenodd" d="M137.5,259.4h660V184.7h-660v74.7Z" class="g0_63"/>
<path fill-rule="evenodd" d="M137.5,284.3h660V259.4h-660v24.9Z" class="g0_63"/>
<path fill-rule="evenodd" d="M137.5,309.2h660V284.3h-660v24.9Z" class="g0_63"/>
<path fill-rule="evenodd" d="M137.5,334.1h660V309.2h-660v24.9Z" class="g0_63"/>
<path fill-rule="evenodd" d="M137.5,359h660V334.1h-660V359Z" class="g0_63"/>
<path fill-rule="evenodd" d="M137.5,408.8h660V359h-660v49.8Z" class="g0_63"/>
<path fill-rule="evenodd" d="M137.5,434.2h660V408.8h-660v25.4Z" class="g0_63"/>
<path fill-rule="evenodd" d="M137.5,508.9h660V434.2h-660v74.7Z" class="g0_63"/>
<path fill-rule="evenodd" d="M137.5,558.7h660V508.9h-660v49.8Z" class="g0_63"/>
<path fill-rule="evenodd" d="M137.5,658.3h660V558.7h-660v99.6Z" class="g0_63"/>
<path fill-rule="evenodd" d="M137.5,683.2h660V658.3h-660v24.9Z" class="g0_63"/>
<path fill-rule="evenodd" d="M137.5,708.1h660V683.2h-660v24.9Z" class="g0_63"/>
<path fill-rule="evenodd" d="M137.5,733h660V708.1h-660V733Z" class="g0_63"/>
<path fill-rule="evenodd" d="M137.5,757.9h660V733h-660v24.9Z" class="g0_63"/>
<path fill-rule="evenodd" d="M137.5,807.7h660V757.9h-660v49.8Z" class="g0_63"/>
<path fill-rule="evenodd" d="M137.5,832.6h660V807.7h-660v24.9Z" class="g0_63"/>
<path fill-rule="evenodd" d="M137.5,882.4h660V832.6h-660v49.8Z" class="g0_63"/>
<path fill-rule="evenodd" d="M137.5,932.3h660V882.4h-660v49.9Z" class="g0_63"/>
<path fill-rule="evenodd" d="M137.5,957.2h660V932.3h-660v24.9Z" class="g0_63"/>
<path fill-rule="evenodd" d="M137.5,1081.7h660V957.2h-660v124.5Z" class="g0_63"/>
<path fill-rule="evenodd" d="M137.5,1106.6h660v-24.9h-660v24.9Z" class="g0_63"/>
<path fill-rule="evenodd" d="M137.5,1131.5h660v-24.9h-660v24.9Z" class="g0_63"/>
</svg>