<?xml version="1.0" encoding="UTF-8" standalone="no"?>
<!DOCTYPE svg PUBLIC "-//W3C//DTD SVG 1.1//EN"
"http://www.w3.org/Graphics/SVG/1.1/DTD/svg11.dtd">
<svg viewBox="0 0 935 1210" version="1.1" xmlns="http://www.w3.org/2000/svg" xmlns:xlink="http://www.w3.org/1999/xlink">
<defs>
<style type="text/css"><![CDATA[
.g0_104{
fill: #FFFFFF;
}
]]></style>
</defs>
<path fill-rule="evenodd" d="M137.5,134.9h660V110h-660v24.9Z" class="g0_104"/>
<path fill-rule="evenodd" d="M137.5,160.3h660V134.9h-660v25.4Z" class="g0_104"/>
<path fill-rule="evenodd" d="M137.5,210.1h660V160.3h-660v49.8Z" class="g0_104"/>
<path fill-rule="evenodd" d="M137.5,235h660V210.1h-660V235Z" class="g0_104"/>
<path fill-rule="evenodd" d="M137.5,259.9h660V235h-660v24.9Z" class="g0_104"/>
<path fill-rule="evenodd" d="M137.5,309.7h660V259.9h-660v49.8Z" class="g0_104"/>
<path fill-rule="evenodd" d="M137.5,334.6h660V309.7h-660v24.9Z" class="g0_104"/>
<path fill-rule="evenodd" d="M137.5,359.5h660V334.6h-660v24.9Z" class="g0_104"/>
<path fill-rule="evenodd" d="M137.5,384.4h660V359.5h-660v24.9Z" class="g0_104"/>
<path fill-rule="evenodd" d="M137.5,484h660V384.4h-660V484Z" class="g0_104"/>
<path fill-rule="evenodd" d="M137.5,583.6h660V484h-660v99.6Z" class="g0_104"/>
<path fill-rule="evenodd" d="M137.5,633.4h660V583.6h-660v49.8Z" class="g0_104"/>
<path fill-rule="evenodd" d="M137.5,658.6h660V633.4h-660v25.2Z" class="g0_104"/>
<path fill-rule="evenodd" d="M137.5,683.5h660V658.6h-660v24.9Z" class="g0_104"/>
<path fill-rule="evenodd" d="M137.5,733.3h660V683.5h-660v49.8Z" class="g0_104"/>
<path fill-rule="evenodd" d="M137.5,783.1h660V733.3h-660v49.8Z" class="g0_104"/>
<path fill-rule="evenodd" d="M137.5,832.9h660V783.1h-660v49.8Z" class="g0_104"/>
<path fill-rule="evenodd" d="M137.5,882.8h660V832.9h-660v49.9Z" class="g0_104"/>
<path fill-rule="evenodd" d="M137.5,907.7h660V882.8h-660v24.9Z" class="g0_104"/>
<path fill-rule="evenodd" d="M137.5,932.6h660V907.7h-660v24.9Z" class="g0_104"/>
<path fill-rule="evenodd" d="M137.5,982.4h660V932.6h-660v49.8Z" class="g0_104"/>
<path fill-rule="evenodd" d="M137.5,1032.2h660V982.4h-660v49.8Z" class="g0_104"/>
<path fill-rule="evenodd" d="M137.5,1057.1h660v-24.9h-660v24.9Z" class="g0_104"/>
<path fill-rule="evenodd" d="M137.5,1082h660v-24.9h-660V1082Z" class="g0_104"/>
<path fill-rule="evenodd" d="M137.5,1106.9h660V1082h-660v24.9Z" class="g0_104"/>
<path fill-rule="evenodd" d="M137.5,1131.8h660v-24.9h-660v24.9Z" class="g0_104"/>
</svg>