<?xml version="1.0" encoding="UTF-8" standalone="no"?>
<!DOCTYPE svg PUBLIC "-//W3C//DTD SVG 1.1//EN"
"http://www.w3.org/Graphics/SVG/1.1/DTD/svg11.dtd">
<svg viewBox="0 0 935 1210" version="1.1" xmlns="http://www.w3.org/2000/svg" xmlns:xlink="http://www.w3.org/1999/xlink">
<defs>
<style type="text/css"><![CDATA[
.g0_87{
fill: #FFFFFF;
}
]]></style>
</defs>
<path fill-rule="evenodd" d="M137.5,209.6h660V110h-660v99.6Z" class="g0_87"/>
<path fill-rule="evenodd" d="M137.5,235h660V209.6h-660V235Z" class="g0_87"/>
<path fill-rule="evenodd" d="M137.5,259.9h660V235h-660v24.9Z" class="g0_87"/>
<path fill-rule="evenodd" d="M137.5,284.8h660V259.9h-660v24.9Z" class="g0_87"/>
<path fill-rule="evenodd" d="M137.5,309.7h660V284.8h-660v24.9Z" class="g0_87"/>
<path fill-rule="evenodd" d="M137.5,334.6h660V309.7h-660v24.9Z" class="g0_87"/>
<path fill-rule="evenodd" d="M137.5,359.5h660V334.6h-660v24.9Z" class="g0_87"/>
<path fill-rule="evenodd" d="M137.5,409.3h660V359.5h-660v49.8Z" class="g0_87"/>
<path fill-rule="evenodd" d="M137.5,459.1h660V409.3h-660v49.8Z" class="g0_87"/>
<path fill-rule="evenodd" d="M137.5,484h660V459.1h-660V484Z" class="g0_87"/>
<path fill-rule="evenodd" d="M137.5,533.8h660V484h-660v49.8Z" class="g0_87"/>
<path fill-rule="evenodd" d="M137.5,558.7h660V533.8h-660v24.9Z" class="g0_87"/>
<path fill-rule="evenodd" d="M137.5,683.2h660V558.7h-660V683.2Z" class="g0_87"/>
<path fill-rule="evenodd" d="M137.5,757.9h660V683.2h-660v74.7Z" class="g0_87"/>
<path fill-rule="evenodd" d="M137.5,882.4h660V757.9h-660V882.4Z" class="g0_87"/>
<path fill-rule="evenodd" d="M137.5,907.3h660V882.4h-660v24.9Z" class="g0_87"/>
<path fill-rule="evenodd" d="M137.5,932.3h660v-25h-660v25Z" class="g0_87"/>
<path fill-rule="evenodd" d="M137.5,957.2h660V932.3h-660v24.9Z" class="g0_87"/>
<path fill-rule="evenodd" d="M137.5,982.1h660V957.2h-660v24.9Z" class="g0_87"/>
<path fill-rule="evenodd" d="M137.5,1007h660V982.1h-660V1007Z" class="g0_87"/>
<path fill-rule="evenodd" d="M137.5,1056.8h660V1007h-660v49.8Z" class="g0_87"/>
<path fill-rule="evenodd" d="M137.5,1081.7h660v-24.9h-660v24.9Z" class="g0_87"/>
<path fill-rule="evenodd" d="M137.5,1106.6h660v-24.9h-660v24.9Z" class="g0_87"/>
<path fill-rule="evenodd" d="M137.5,1131.5h660v-24.9h-660v24.9Z" class="g0_87"/>
</svg>