<?xml version="1.0" encoding="UTF-8" standalone="no"?>
<!DOCTYPE svg PUBLIC "-//W3C//DTD SVG 1.1//EN"
"http://www.w3.org/Graphics/SVG/1.1/DTD/svg11.dtd">
<svg viewBox="0 0 935 1210" version="1.1" xmlns="http://www.w3.org/2000/svg" xmlns:xlink="http://www.w3.org/1999/xlink">
<defs>
<style type="text/css"><![CDATA[
.g0_69{
fill: #FFFFFF;
}
]]></style>
</defs>
<path fill-rule="evenodd" d="M137.5,184.7h660V110h-660v74.7Z" class="g0_69"/>
<path fill-rule="evenodd" d="M137.5,209.6h660V184.7h-660v24.9Z" class="g0_69"/>
<path fill-rule="evenodd" d="M137.5,235h660V209.6h-660V235Z" class="g0_69"/>
<path fill-rule="evenodd" d="M137.5,284.8h660V235h-660v49.8Z" class="g0_69"/>
<path fill-rule="evenodd" d="M137.5,309.7h660V284.8h-660v24.9Z" class="g0_69"/>
<path fill-rule="evenodd" d="M137.5,334.9h660V309.7h-660v25.2Z" class="g0_69"/>
<path fill-rule="evenodd" d="M137.5,384.7h660V334.9h-660v49.8Z" class="g0_69"/>
<path fill-rule="evenodd" d="M137.5,459.4h660V384.7h-660v74.7Z" class="g0_69"/>
<path fill-rule="evenodd" d="M137.5,484.3h660V459.4h-660v24.9Z" class="g0_69"/>
<path fill-rule="evenodd" d="M137.5,534.1h660V484.3h-660v49.8Z" class="g0_69"/>
<path fill-rule="evenodd" d="M137.5,559h660V534.1h-660V559Z" class="g0_69"/>
<path fill-rule="evenodd" d="M137.5,683.5h660V559h-660V683.5Z" class="g0_69"/>
<path fill-rule="evenodd" d="M137.5,733.3h660V683.5h-660v49.8Z" class="g0_69"/>
<path fill-rule="evenodd" d="M137.5,758.2h660V733.3h-660v24.9Z" class="g0_69"/>
<path fill-rule="evenodd" d="M137.5,808h660V758.2h-660V808Z" class="g0_69"/>
<path fill-rule="evenodd" d="M137.5,832.9h660V808h-660v24.9Z" class="g0_69"/>
<path fill-rule="evenodd" d="M137.5,857.8h660V832.9h-660v24.9Z" class="g0_69"/>
<path fill-rule="evenodd" d="M137.5,882.8h660v-25h-660v25Z" class="g0_69"/>
<path fill-rule="evenodd" d="M137.5,907.7h660V882.8h-660v24.9Z" class="g0_69"/>
<path fill-rule="evenodd" d="M137.5,932.6h660V907.7h-660v24.9Z" class="g0_69"/>
<path fill-rule="evenodd" d="M137.5,982.4h660V932.6h-660v49.8Z" class="g0_69"/>
<path fill-rule="evenodd" d="M137.5,1007.3h660V982.4h-660v24.9Z" class="g0_69"/>
<path fill-rule="evenodd" d="M138.3,1032.2H797.5v-24.9H138.3v24.9Z" class="g0_69"/>
<path fill-rule="evenodd" d="M166.1,1057.1H797.5v-24.9H166.1v24.9Z" class="g0_69"/>
<path fill-rule="evenodd" d="M166.1,1082H797.5v-24.9H166.1V1082Z" class="g0_69"/>
<path fill-rule="evenodd" d="M165,1106.9H797.5V1082H165v24.9Z" class="g0_69"/>
<path fill-rule="evenodd" d="M166.5,1131.8h631v-24.9h-631v24.9Z" class="g0_69"/>
</svg>