<?xml version="1.0" encoding="UTF-8" standalone="no"?>
<!DOCTYPE svg PUBLIC "-//W3C//DTD SVG 1.1//EN"
"http://www.w3.org/Graphics/SVG/1.1/DTD/svg11.dtd">
<svg viewBox="0 0 935 1210" version="1.1" xmlns="http://www.w3.org/2000/svg" xmlns:xlink="http://www.w3.org/1999/xlink">
<defs>
<style type="text/css"><![CDATA[
.g0_35{
fill: #FFFFFF;
}
]]></style>
</defs>
<path fill-rule="evenodd" d="M166.1,134.9H797.5V110H166.1v24.9Z" class="g0_35"/>
<path fill-rule="evenodd" d="M137.5,184.7h660V134.9h-660v49.8Z" class="g0_35"/>
<path fill-rule="evenodd" d="M165,209.6H797.5V184.7H165v24.9Z" class="g0_35"/>
<path fill-rule="evenodd" d="M138.3,234.5H797.5V209.6H138.3v24.9Z" class="g0_35"/>
<path fill-rule="evenodd" d="M138,309.2H797.5V234.5H138v74.7Z" class="g0_35"/>
<path fill-rule="evenodd" d="M166.5,334.1h631V309.2h-631v24.9Z" class="g0_35"/>
<path fill-rule="evenodd" d="M138,408.8H797.5V334.1H138v74.7Z" class="g0_35"/>
<path fill-rule="evenodd" d="M138,458.6H797.5V408.8H138v49.8Z" class="g0_35"/>
<path fill-rule="evenodd" d="M166.5,483.5h631V458.6h-631v24.9Z" class="g0_35"/>
<path fill-rule="evenodd" d="M138,508.9H797.5V483.5H138v25.4Z" class="g0_35"/>
<path fill-rule="evenodd" d="M138.3,558.7H797.5V508.9H138.3v49.8Z" class="g0_35"/>
<path fill-rule="evenodd" d="M166.5,583.6h631V558.7h-631v24.9Z" class="g0_35"/>
<path fill-rule="evenodd" d="M137.5,683.5h660V583.6h-660v99.9Z" class="g0_35"/>
<path fill-rule="evenodd" d="M165,708.4H797.5V683.5H165v24.9Z" class="g0_35"/>
<path fill-rule="evenodd" d="M137.5,758.2h660V708.4h-660v49.8Z" class="g0_35"/>
<path fill-rule="evenodd" d="M138.3,808H797.5V758.2H138.3V808Z" class="g0_35"/>
<path fill-rule="evenodd" d="M166.1,832.9H797.5V808H166.1v24.9Z" class="g0_35"/>
<path fill-rule="evenodd" d="M138.3,857.8H797.5V832.9H138.3v24.9Z" class="g0_35"/>
<path fill-rule="evenodd" d="M138,882.8H797.5v-25H138v25Z" class="g0_35"/>
<path fill-rule="evenodd" d="M137.5,932.6h660V882.7h-660v49.9Z" class="g0_35"/>
<path fill-rule="evenodd" d="M166.5,957.5h631V932.6h-631v24.9Z" class="g0_35"/>
<path fill-rule="evenodd" d="M138,1007.3H797.5V957.5H138v49.8Z" class="g0_35"/>
<path fill-rule="evenodd" d="M166.1,1032.2H797.5v-24.9H166.1v24.9Z" class="g0_35"/>
<path fill-rule="evenodd" d="M165.8,1057.1H797.5v-24.9H165.8v24.9Z" class="g0_35"/>
<path fill-rule="evenodd" d="M165.8,1082H797.5v-24.9H165.8V1082Z" class="g0_35"/>
<path fill-rule="evenodd" d="M137.5,1106.9h660V1082h-660v24.9Z" class="g0_35"/>
<path fill-rule="evenodd" d="M137.5,1131.8h660v-24.9h-660v24.9Z" class="g0_35"/>
</svg>