<?xml version="1.0" encoding="UTF-8" standalone="no"?>
<!DOCTYPE svg PUBLIC "-//W3C//DTD SVG 1.1//EN"
"http://www.w3.org/Graphics/SVG/1.1/DTD/svg11.dtd">
<svg viewBox="0 0 935 1210" version="1.1" xmlns="http://www.w3.org/2000/svg" xmlns:xlink="http://www.w3.org/1999/xlink">
<defs>
<style type="text/css"><![CDATA[
.g0_57{
fill: #FFFFFF;
}
]]></style>
</defs>
<path fill-rule="evenodd" d="M138,134.9H797.5V110H138v24.9Z" class="g0_57"/>
<path fill-rule="evenodd" d="M137.5,259.4h660V134.9h-660V259.4Z" class="g0_57"/>
<path fill-rule="evenodd" d="M137.5,334.1h660V259.4h-660v74.7Z" class="g0_57"/>
<path fill-rule="evenodd" d="M137.5,408.8h660V334.1h-660v74.7Z" class="g0_57"/>
<path fill-rule="evenodd" d="M138,433.7H797.5V408.8H138v24.9Z" class="g0_57"/>
<path fill-rule="evenodd" d="M138,458.6H797.5V433.7H138v24.9Z" class="g0_57"/>
<path fill-rule="evenodd" d="M138,508.4H797.5V458.6H138v49.8Z" class="g0_57"/>
<path fill-rule="evenodd" d="M138,657.9H797.5V508.4H138V657.9Z" class="g0_57"/>
<path fill-rule="evenodd" d="M138,832.2H797.5V657.9H138V832.2Z" class="g0_57"/>
<path fill-rule="evenodd" d="M138,931.8H797.5V832.2H138v99.6Z" class="g0_57"/>
<path fill-rule="evenodd" d="M137.5,1031.9h660V931.8h-660v100.1Z" class="g0_57"/>
<path fill-rule="evenodd" d="M137.5,1106.6h660v-74.7h-660v74.7Z" class="g0_57"/>
<path fill-rule="evenodd" d="M137.5,1131.5h660v-24.9h-660v24.9Z" class="g0_57"/>
</svg>