<?xml version="1.0" encoding="UTF-8" standalone="no"?>
<!DOCTYPE svg PUBLIC "-//W3C//DTD SVG 1.1//EN"
"http://www.w3.org/Graphics/SVG/1.1/DTD/svg11.dtd">
<svg viewBox="0 0 935 1210" version="1.1" xmlns="http://www.w3.org/2000/svg" xmlns:xlink="http://www.w3.org/1999/xlink">
<defs>
<style type="text/css"><![CDATA[
.g0_173{
fill: #FFFFFF;
}
]]></style>
</defs>
<path fill-rule="evenodd" d="M137.5,159.8h660V110h-660v49.8Z" class="g0_173"/>
<path fill-rule="evenodd" d="M137.5,209.6h660V159.8h-660v49.8Z" class="g0_173"/>
<path fill-rule="evenodd" d="M137.5,259.4h660V209.6h-660v49.8Z" class="g0_173"/>
<path fill-rule="evenodd" d="M137.5,284.3h660V259.4h-660v24.9Z" class="g0_173"/>
<path fill-rule="evenodd" d="M137.5,309.2h660V284.3h-660v24.9Z" class="g0_173"/>
<path fill-rule="evenodd" d="M137.5,334.1h660V309.2h-660v24.9Z" class="g0_173"/>
<path fill-rule="evenodd" d="M137.5,383.9h660V334.1h-660v49.8Z" class="g0_173"/>
<path fill-rule="evenodd" d="M137.5,408.8h660V383.9h-660v24.9Z" class="g0_173"/>
<path fill-rule="evenodd" d="M137.5,433.7h660V408.8h-660v24.9Z" class="g0_173"/>
<path fill-rule="evenodd" d="M137.5,483.5h660V433.7h-660v49.8Z" class="g0_173"/>
<path fill-rule="evenodd" d="M137.5,508.4h660V483.5h-660v24.9Z" class="g0_173"/>
<path fill-rule="evenodd" d="M137.5,533.3h660V508.4h-660v24.9Z" class="g0_173"/>
<path fill-rule="evenodd" d="M137.5,608.1h660V533.3h-660v74.8Z" class="g0_173"/>
<path fill-rule="evenodd" d="M137.5,657.9h660V608.1h-660v49.8Z" class="g0_173"/>
<path fill-rule="evenodd" d="M137.5,682.8h660V657.9h-660v24.9Z" class="g0_173"/>
<path fill-rule="evenodd" d="M137.5,732.6h660V682.8h-660v49.8Z" class="g0_173"/>
<path fill-rule="evenodd" d="M137.5,757.5h660V732.6h-660v24.9Z" class="g0_173"/>
<path fill-rule="evenodd" d="M137.5,782.4h660V757.5h-660v24.9Z" class="g0_173"/>
<path fill-rule="evenodd" d="M137.5,832.2h660V782.4h-660v49.8Z" class="g0_173"/>
<path fill-rule="evenodd" d="M137.5,882h660V832.2h-660V882Z" class="g0_173"/>
<path fill-rule="evenodd" d="M138.3,951H797.5V882H138.3v69Z" class="g0_173"/>
<path fill-rule="evenodd" d="M138.3,973.3H797.5V951H138.3v22.3Z" class="g0_173"/>
<path fill-rule="evenodd" d="M138.3,995.8H797.5V973.3H138.3v22.5Z" class="g0_173"/>
<path fill-rule="evenodd" d="M138.3,1018.6H797.5V995.8H138.3v22.8Z" class="g0_173"/>
<path fill-rule="evenodd" d="M138.3,1041.3H797.5v-22.7H138.3v22.7Z" class="g0_173"/>
<path fill-rule="evenodd" d="M138.3,1064.3H797.5v-23H138.3v23Z" class="g0_173"/>
<path fill-rule="evenodd" d="M138.3,1087H797.5v-22.7H138.3V1087Z" class="g0_173"/>
<path fill-rule="evenodd" d="M138.3,1115.1H797.5V1087H138.3v28.1Z" class="g0_173"/>
</svg>