<?xml version="1.0" encoding="UTF-8" standalone="no"?>
<!DOCTYPE svg PUBLIC "-//W3C//DTD SVG 1.1//EN"
"http://www.w3.org/Graphics/SVG/1.1/DTD/svg11.dtd">
<svg viewBox="0 0 935 1210" version="1.1" xmlns="http://www.w3.org/2000/svg" xmlns:xlink="http://www.w3.org/1999/xlink">
<defs>
<style type="text/css"><![CDATA[
.g0_58{
fill: #FFFFFF;
}
]]></style>
</defs>
<path fill-rule="evenodd" d="M137.5,159.8h660V110h-660v49.8Z" class="g0_58"/>
<path fill-rule="evenodd" d="M138,209.6H797.5V159.8H138v49.8Z" class="g0_58"/>
<path fill-rule="evenodd" d="M138,259.4H797.5V209.6H138v49.8Z" class="g0_58"/>
<path fill-rule="evenodd" d="M137.5,284.3h660V259.4h-660v24.9Z" class="g0_58"/>
<path fill-rule="evenodd" d="M137.5,309.2h660V284.3h-660v24.9Z" class="g0_58"/>
<path fill-rule="evenodd" d="M137.5,383.9h660V309.2h-660v74.7Z" class="g0_58"/>
<path fill-rule="evenodd" d="M137.5,433.7h660V383.9h-660v49.8Z" class="g0_58"/>
<path fill-rule="evenodd" d="M137.5,459.1h660V433.7h-660v25.4Z" class="g0_58"/>
<path fill-rule="evenodd" d="M137.5,509.2h660V459.1h-660v50.1Z" class="g0_58"/>
<path fill-rule="evenodd" d="M137.5,534.1h660V509.2h-660v24.9Z" class="g0_58"/>
<path fill-rule="evenodd" d="M137.5,633.7h660V534.1h-660v99.6Z" class="g0_58"/>
<path fill-rule="evenodd" d="M137.5,683.5h660V633.7h-660v49.8Z" class="g0_58"/>
<path fill-rule="evenodd" d="M137.5,733.3h660V683.5h-660v49.8Z" class="g0_58"/>
<path fill-rule="evenodd" d="M137.5,783.1h660V733.3h-660v49.8Z" class="g0_58"/>
<path fill-rule="evenodd" d="M137.5,882.8h660V783.1h-660v99.7Z" class="g0_58"/>
<path fill-rule="evenodd" d="M137.5,932.6h660V882.7h-660v49.9Z" class="g0_58"/>
<path fill-rule="evenodd" d="M137.5,957.5h660V932.6h-660v24.9Z" class="g0_58"/>
<path fill-rule="evenodd" d="M137.5,1007.3h660V957.5h-660v49.8Z" class="g0_58"/>
<path fill-rule="evenodd" d="M137.5,1032.2h660v-24.9h-660v24.9Z" class="g0_58"/>
<path fill-rule="evenodd" d="M137.5,1082h660v-49.8h-660V1082Z" class="g0_58"/>
<path fill-rule="evenodd" d="M137.5,1106.9h660V1082h-660v24.9Z" class="g0_58"/>
<path fill-rule="evenodd" d="M137.5,1131.8h660v-24.9h-660v24.9Z" class="g0_58"/>
</svg>