<?xml version="1.0" encoding="UTF-8" standalone="no"?>
<!DOCTYPE svg PUBLIC "-//W3C//DTD SVG 1.1//EN"
"http://www.w3.org/Graphics/SVG/1.1/DTD/svg11.dtd">
<svg viewBox="0 0 935 1210" version="1.1" xmlns="http://www.w3.org/2000/svg" xmlns:xlink="http://www.w3.org/1999/xlink">
<defs>
<style type="text/css"><![CDATA[
.g0_25{
fill: #FFFFFF;
}
]]></style>
</defs>
<path fill-rule="evenodd" d="M137.5,134.9h660V110h-660v24.9Z" class="g0_25"/>
<path fill-rule="evenodd" d="M165.8,159.8H797.5V134.9H165.8v24.9Z" class="g0_25"/>
<path fill-rule="evenodd" d="M138,209.6H797.5V159.8H138v49.8Z" class="g0_25"/>
<path fill-rule="evenodd" d="M138.3,259.4H797.5V209.6H138.3v49.8Z" class="g0_25"/>
<path fill-rule="evenodd" d="M138.3,359H797.5V259.4H138.3V359Z" class="g0_25"/>
<path fill-rule="evenodd" d="M138.6,433.7H797.5V359H138.6v74.7Z" class="g0_25"/>
<path fill-rule="evenodd" d="M139,483.5H797.5V433.7H139v49.8Z" class="g0_25"/>
<path fill-rule="evenodd" d="M139,508.4H797.5V483.5H139v24.9Z" class="g0_25"/>
<path fill-rule="evenodd" d="M165.8,533.3H797.5V508.4H165.8v24.9Z" class="g0_25"/>
<path fill-rule="evenodd" d="M165.8,558.2H797.5V533.3H165.8v24.9Z" class="g0_25"/>
<path fill-rule="evenodd" d="M139,633H797.5V558.2H139V633Z" class="g0_25"/>
<path fill-rule="evenodd" d="M138,682.8H797.5V633H138v49.8Z" class="g0_25"/>
<path fill-rule="evenodd" d="M137.5,757.5h660V682.8h-660v74.7Z" class="g0_25"/>
<path fill-rule="evenodd" d="M165.5,782.4h632V757.5h-632v24.9Z" class="g0_25"/>
<path fill-rule="evenodd" d="M138.3,807.3H797.5V782.4H138.3v24.9Z" class="g0_25"/>
<path fill-rule="evenodd" d="M137.5,931.8h660V807.3h-660V931.8Z" class="g0_25"/>
<path fill-rule="evenodd" d="M165,957.2H797.5V931.8H165v25.4Z" class="g0_25"/>
<path fill-rule="evenodd" d="M138.6,982.1H797.5V957.2H138.6v24.9Z" class="g0_25"/>
<path fill-rule="evenodd" d="M138,1056.8H797.5V982.1H138v74.7Z" class="g0_25"/>
<path fill-rule="evenodd" d="M139,1106.6H797.5v-49.8H139v49.8Z" class="g0_25"/>
<path fill-rule="evenodd" d="M167.6,1131.5H797.5v-24.9H167.6v24.9Z" class="g0_25"/>
</svg>