<?xml version="1.0" encoding="UTF-8" standalone="no"?>
<!DOCTYPE svg PUBLIC "-//W3C//DTD SVG 1.1//EN"
"http://www.w3.org/Graphics/SVG/1.1/DTD/svg11.dtd">
<svg viewBox="0 0 935 1210" version="1.1" xmlns="http://www.w3.org/2000/svg" xmlns:xlink="http://www.w3.org/1999/xlink">
<defs>
<style type="text/css"><![CDATA[
.g0_134{
fill: #FFFFFF;
}
]]></style>
</defs>
<path fill-rule="evenodd" d="M137.5,134.9h660V110h-660v24.9Z" class="g0_134"/>
<path fill-rule="evenodd" d="M137.5,159.8h660V134.9h-660v24.9Z" class="g0_134"/>
<path fill-rule="evenodd" d="M137.5,209.6h660V159.8h-660v49.8Z" class="g0_134"/>
<path fill-rule="evenodd" d="M137.5,234.5h660V209.6h-660v24.9Z" class="g0_134"/>
<path fill-rule="evenodd" d="M137.5,259.4h660V234.5h-660v24.9Z" class="g0_134"/>
<path fill-rule="evenodd" d="M137.5,309.2h660V259.4h-660v49.8Z" class="g0_134"/>
<path fill-rule="evenodd" d="M137.5,334.1h660V309.2h-660v24.9Z" class="g0_134"/>
<path fill-rule="evenodd" d="M137.5,383.9h660V334.1h-660v49.8Z" class="g0_134"/>
<path fill-rule="evenodd" d="M137.5,433.7h660V383.9h-660v49.8Z" class="g0_134"/>
<path fill-rule="evenodd" d="M137.5,458.6h660V433.7h-660v24.9Z" class="g0_134"/>
<path fill-rule="evenodd" d="M137.5,483.5h660V458.6h-660v24.9Z" class="g0_134"/>
<path fill-rule="evenodd" d="M137.5,608.1h660V483.5h-660V608.1Z" class="g0_134"/>
<path fill-rule="evenodd" d="M137.5,682.8h660V608.1h-660v74.7Z" class="g0_134"/>
<path fill-rule="evenodd" d="M137.5,732.6h660V682.8h-660v49.8Z" class="g0_134"/>
<path fill-rule="evenodd" d="M137.5,807.3h660V732.6h-660v74.7Z" class="g0_134"/>
<path fill-rule="evenodd" d="M137.5,882h660V807.3h-660V882Z" class="g0_134"/>
<path fill-rule="evenodd" d="M138,1006.5H797.5V882H138v124.5Z" class="g0_134"/>
<path fill-rule="evenodd" d="M137.5,1031.4h660v-24.9h-660v24.9Z" class="g0_134"/>
<path fill-rule="evenodd" d="M137.5,1056.3h660v-24.9h-660v24.9Z" class="g0_134"/>
<path fill-rule="evenodd" d="M137.5,1106.1h660v-49.8h-660v49.8Z" class="g0_134"/>
<path fill-rule="evenodd" d="M137.5,1131h660v-24.9h-660V1131Z" class="g0_134"/>
</svg>