<?xml version="1.0" encoding="UTF-8" standalone="no"?>
<!DOCTYPE svg PUBLIC "-//W3C//DTD SVG 1.1//EN"
"http://www.w3.org/Graphics/SVG/1.1/DTD/svg11.dtd">
<svg viewBox="0 0 935 1210" version="1.1" xmlns="http://www.w3.org/2000/svg" xmlns:xlink="http://www.w3.org/1999/xlink">
<defs>
<style type="text/css"><![CDATA[
.g0_175{
fill: #FFFFFF;
}
.g1_175{
}
]]></style>
</defs>
<path fill-rule="evenodd" d="M137.5,134.9h660V110h-660v24.9Z" class="g0_175"/>
<path fill-rule="evenodd" d="M137.5,159.8h660V134.9h-660v24.9Z" class="g0_175"/>
<path fill-rule="evenodd" d="M137.5,209.6h660V159.8h-660v49.8Z" class="g0_175"/>
<path fill-rule="evenodd" d="M137.5,234.5h660V209.6h-660v24.9Z" class="g0_175"/>
<path fill-rule="evenodd" d="M137.5,284.3h660V234.5h-660v49.8Z" class="g0_175"/>
<path fill-rule="evenodd" d="M137.5,309.2h660V284.3h-660v24.9Z" class="g0_175"/>
<path fill-rule="evenodd" d="M137.5,359h660V309.2h-660V359Z" class="g0_175"/>
<path fill-rule="evenodd" d="M137.5,383.9h660V359h-660v24.9Z" class="g0_175"/>
<path fill-rule="evenodd" d="M137.5,433.7h660V383.9h-660v49.8Z" class="g0_175"/>
<path fill-rule="evenodd" d="M137.5,458.6h660V433.7h-660v24.9Z" class="g0_175"/>
<path fill-rule="evenodd" d="M137.5,483.5h660V458.6h-660v24.9Z" class="g0_175"/>
<path fill-rule="evenodd" d="M137.5,533.3h660V483.5h-660v49.8Z" class="g0_175"/>
<path fill-rule="evenodd" d="M137.5,558.2h660V533.3h-660v24.9Z" class="g0_175"/>
<path fill-rule="evenodd" d="M137.5,583.2h660V558.3h-660v24.9Z" class="g0_175"/>
<path fill-rule="evenodd" d="M137.5,610.3h660V583.2h-660v27.1Z" class="g0_175"/>
<path fill-rule="evenodd" d="M137.5,635.2h660V610.3h-660v24.9Z" class="g0_175"/>
<path fill-rule="evenodd" d="M137.5,660.2h660V635.3h-660v24.9Z" class="g0_175"/>
<path fill-rule="evenodd" d="M137.5,685.1h660V660.2h-660v24.9Z" class="g0_175"/>
<path fill-rule="evenodd" d="M137.5,710h660V685.1h-660V710Z" class="g0_175"/>
<path fill-rule="evenodd" d="M137.5,734.9h660V710h-660v24.9Z" class="g0_175"/>
<path fill-rule="evenodd" d="M137.5,759.8h660V734.9h-660v24.9Z" class="g0_175"/>
<path fill-rule="evenodd" d="M137.5,784.7h660V759.8h-660v24.9Z" class="g0_175"/>
<path fill-rule="evenodd" d="M137.5,884.3h660V784.7h-660v99.6Z" class="g0_175"/>
<path fill-rule="evenodd" d="M138,934.8H797.5V884.3H138v50.5Z" class="g0_175"/>
<path fill-rule="evenodd" d="M137.5,1009.6h660V934.8h-660v74.8Z" class="g0_175"/>
<path fill-rule="evenodd" d="M137.5,1034.5h660v-24.9h-660v24.9Z" class="g0_175"/>
<path fill-rule="evenodd" d="M137.5,1134.1h660v-99.6h-660v99.6Z" class="g0_175"/>
<path fill-rule="evenodd" d="M137.5,610.3h660v-.6h-660v.6Z" class="g1_175"/>
</svg>