<?xml version="1.0" encoding="UTF-8" standalone="no"?>
<!DOCTYPE svg PUBLIC "-//W3C//DTD SVG 1.1//EN"
"http://www.w3.org/Graphics/SVG/1.1/DTD/svg11.dtd">
<svg viewBox="0 0 935 1210" version="1.1" xmlns="http://www.w3.org/2000/svg" xmlns:xlink="http://www.w3.org/1999/xlink">
<defs>
<style type="text/css"><![CDATA[
.g0_105{
fill: #FFFFFF;
}
]]></style>
</defs>
<path fill-rule="evenodd" d="M137.5,134.9h660V110h-660v24.9Z" class="g0_105"/>
<path fill-rule="evenodd" d="M137.5,159.8h660V134.9h-660v24.9Z" class="g0_105"/>
<path fill-rule="evenodd" d="M137.5,234.5h660V159.8h-660v74.7Z" class="g0_105"/>
<path fill-rule="evenodd" d="M137.5,284.3h660V234.5h-660v49.8Z" class="g0_105"/>
<path fill-rule="evenodd" d="M137.5,334.1h660V284.3h-660v49.8Z" class="g0_105"/>
<path fill-rule="evenodd" d="M137.5,458.6h660V334.1h-660V458.6Z" class="g0_105"/>
<path fill-rule="evenodd" d="M137.5,508.4h660V458.6h-660v49.8Z" class="g0_105"/>
<path fill-rule="evenodd" d="M137.5,583.2h660V508.4h-660v74.8Z" class="g0_105"/>
<path fill-rule="evenodd" d="M137.5,608.1h660V583.2h-660v24.9Z" class="g0_105"/>
<path fill-rule="evenodd" d="M137.5,683.2h660V608.1h-660v75.1Z" class="g0_105"/>
<path fill-rule="evenodd" d="M137.5,708.1h660V683.2h-660v24.9Z" class="g0_105"/>
<path fill-rule="evenodd" d="M137.5,757.9h660V708.1h-660v49.8Z" class="g0_105"/>
<path fill-rule="evenodd" d="M137.5,808h660V757.9h-660V808Z" class="g0_105"/>
<path fill-rule="evenodd" d="M137.5,857.8h660V808h-660v49.8Z" class="g0_105"/>
<path fill-rule="evenodd" d="M137.5,907.7h660V857.8h-660v49.9Z" class="g0_105"/>
<path fill-rule="evenodd" d="M137.5,957.5h660V907.7h-660v49.8Z" class="g0_105"/>
<path fill-rule="evenodd" d="M137.5,982.4h660V957.5h-660v24.9Z" class="g0_105"/>
<path fill-rule="evenodd" d="M137.5,1032.2h660V982.4h-660v49.8Z" class="g0_105"/>
<path fill-rule="evenodd" d="M137.5,1106.9h660v-74.7h-660v74.7Z" class="g0_105"/>
<path fill-rule="evenodd" d="M137.5,1131.8h660v-24.9h-660v24.9Z" class="g0_105"/>
</svg>