<?xml version="1.0" encoding="UTF-8" standalone="no"?>
<!DOCTYPE svg PUBLIC "-//W3C//DTD SVG 1.1//EN"
"http://www.w3.org/Graphics/SVG/1.1/DTD/svg11.dtd">
<svg viewBox="0 0 935 1210" version="1.1" xmlns="http://www.w3.org/2000/svg" xmlns:xlink="http://www.w3.org/1999/xlink">
<defs>
<style type="text/css"><![CDATA[
.g0_106{
fill: #FFFFFF;
}
.g1_106{
}
]]></style>
</defs>
<path fill-rule="evenodd" d="M137.5,159.8h660V110h-660v49.8Z" class="g0_106"/>
<path fill-rule="evenodd" d="M137.5,284.3h660V159.8h-660V284.3Z" class="g0_106"/>
<path fill-rule="evenodd" d="M137.5,334.1h660V284.3h-660v49.8Z" class="g0_106"/>
<path fill-rule="evenodd" d="M137.5,359.5h660V334.1h-660v25.4Z" class="g0_106"/>
<path fill-rule="evenodd" d="M137.5,459.4h660V359.5h-660v99.9Z" class="g0_106"/>
<path fill-rule="evenodd" d="M137.5,509.2h660V459.4h-660v49.8Z" class="g0_106"/>
<path fill-rule="evenodd" d="M137.5,534.1h660V509.2h-660v24.9Z" class="g0_106"/>
<path fill-rule="evenodd" d="M137.5,609.3h660V534.1h-660v75.2Z" class="g0_106"/>
<path fill-rule="evenodd" d="M137.5,659.1h660V609.3h-660v49.8Z" class="g0_106"/>
<path fill-rule="evenodd" d="M137.5,684h660V659.1h-660V684Z" class="g0_106"/>
<path fill-rule="evenodd" d="M137.5,733.8h660V684h-660v49.8Z" class="g0_106"/>
<path fill-rule="evenodd" d="M137.5,783.6h660V733.8h-660v49.8Z" class="g0_106"/>
<path fill-rule="evenodd" d="M137.5,833.4h660V783.6h-660v49.8Z" class="g0_106"/>
<path fill-rule="evenodd" d="M137.5,883.2h660V833.4h-660v49.8Z" class="g0_106"/>
<path fill-rule="evenodd" d="M137.5,933h660V883.2h-660V933Z" class="g0_106"/>
<path fill-rule="evenodd" d="M137.5,983.1h660V933h-660v50.1Z" class="g0_106"/>
<path fill-rule="evenodd" d="M137.5,1008h660V983.1h-660V1008Z" class="g0_106"/>
<path fill-rule="evenodd" d="M137.5,1057.8h660V1008h-660v49.8Z" class="g0_106"/>
<path fill-rule="evenodd" d="M137.5,1082.7h660v-24.9h-660v24.9Z" class="g0_106"/>
<path fill-rule="evenodd" d="M137.5,1107.6h660v-24.9h-660v24.9Z" class="g0_106"/>
<path fill-rule="evenodd" d="M137.5,1134.8h660v-27.2h-660v27.2Z" class="g0_106"/>
<path fill-rule="evenodd" d="M137.5,1134.8h660v-.6h-660v.6Z" class="g1_106"/>
</svg>