<?xml version="1.0" encoding="UTF-8" standalone="no"?>
<!DOCTYPE svg PUBLIC "-//W3C//DTD SVG 1.1//EN"
"http://www.w3.org/Graphics/SVG/1.1/DTD/svg11.dtd">
<svg viewBox="0 0 935 1210" version="1.1" xmlns="http://www.w3.org/2000/svg" xmlns:xlink="http://www.w3.org/1999/xlink">
<defs>
<style type="text/css"><![CDATA[
.g0_26{
fill: #FFFFFF;
}
]]></style>
</defs>
<path fill-rule="evenodd" d="M137.5,159.8h660V110h-660v49.8Z" class="g0_26"/>
<path fill-rule="evenodd" d="M137.5,209.6h660V159.8h-660v49.8Z" class="g0_26"/>
<path fill-rule="evenodd" d="M166.1,234.5H797.5V209.6H166.1v24.9Z" class="g0_26"/>
<path fill-rule="evenodd" d="M138,259.4H797.5V234.5H138v24.9Z" class="g0_26"/>
<path fill-rule="evenodd" d="M138.6,284.3H797.5V259.4H138.6v24.9Z" class="g0_26"/>
<path fill-rule="evenodd" d="M166.1,309.2H797.5V284.3H166.1v24.9Z" class="g0_26"/>
<path fill-rule="evenodd" d="M139,433.7H797.5V309.2H139V433.7Z" class="g0_26"/>
<path fill-rule="evenodd" d="M139,483.5H797.5V433.7H139v49.8Z" class="g0_26"/>
<path fill-rule="evenodd" d="M166.1,508.4H797.5V483.5H166.1v24.9Z" class="g0_26"/>
<path fill-rule="evenodd" d="M166.1,533.3H797.5V508.4H166.1v24.9Z" class="g0_26"/>
<path fill-rule="evenodd" d="M138.3,583.2H797.5V533.3H138.3v49.9Z" class="g0_26"/>
<path fill-rule="evenodd" d="M139.3,633H797.5V583.2H139.3V633Z" class="g0_26"/>
<path fill-rule="evenodd" d="M165,658.3H797.5V633H165v25.3Z" class="g0_26"/>
<path fill-rule="evenodd" d="M137.5,683.5h660V658.3h-660v25.2Z" class="g0_26"/>
<path fill-rule="evenodd" d="M137.5,733.3h660V683.5h-660v49.8Z" class="g0_26"/>
<path fill-rule="evenodd" d="M137.5,783.1h660V733.3h-660v49.8Z" class="g0_26"/>
<path fill-rule="evenodd" d="M138,932.6H797.5V783.1H138V932.6Z" class="g0_26"/>
<path fill-rule="evenodd" d="M137.5,1007.3h660V932.6h-660v74.7Z" class="g0_26"/>
<path fill-rule="evenodd" d="M138,1057.1H797.5v-49.8H138v49.8Z" class="g0_26"/>
<path fill-rule="evenodd" d="M165.8,1082.4H797.5v-25.3H165.8v25.3Z" class="g0_26"/>
<path fill-rule="evenodd" d="M138,1107.3H797.5v-24.9H138v24.9Z" class="g0_26"/>
<path fill-rule="evenodd" d="M166.5,1132.2h631v-24.9h-631v24.9Z" class="g0_26"/>
</svg>