<?xml version="1.0" encoding="UTF-8" standalone="no"?>
<!DOCTYPE svg PUBLIC "-//W3C//DTD SVG 1.1//EN"
"http://www.w3.org/Graphics/SVG/1.1/DTD/svg11.dtd">
<svg viewBox="0 0 935 1210" version="1.1" xmlns="http://www.w3.org/2000/svg" xmlns:xlink="http://www.w3.org/1999/xlink">
<defs>
<style type="text/css"><![CDATA[
.g0_151{
fill: #FFFFFF;
}
]]></style>
</defs>
<path fill-rule="evenodd" d="M137.5,159.8h660V110h-660v49.8Z" class="g0_151"/>
<path fill-rule="evenodd" d="M137.5,184.7h660V159.8h-660v24.9Z" class="g0_151"/>
<path fill-rule="evenodd" d="M137.5,234.5h660V184.7h-660v49.8Z" class="g0_151"/>
<path fill-rule="evenodd" d="M137.5,259.4h660V234.5h-660v24.9Z" class="g0_151"/>
<path fill-rule="evenodd" d="M137.5,284.3h660V259.4h-660v24.9Z" class="g0_151"/>
<path fill-rule="evenodd" d="M137.5,334.1h660V284.3h-660v49.8Z" class="g0_151"/>
<path fill-rule="evenodd" d="M137.5,383.9h660V334.1h-660v49.8Z" class="g0_151"/>
<path fill-rule="evenodd" d="M137.5,433.7h660V383.9h-660v49.8Z" class="g0_151"/>
<path fill-rule="evenodd" d="M137.5,458.6h660V433.7h-660v24.9Z" class="g0_151"/>
<path fill-rule="evenodd" d="M137.5,483.5h660V458.6h-660v24.9Z" class="g0_151"/>
<path fill-rule="evenodd" d="M137.5,533.3h660V483.5h-660v49.8Z" class="g0_151"/>
<path fill-rule="evenodd" d="M137.5,583.2h660V533.3h-660v49.9Z" class="g0_151"/>
<path fill-rule="evenodd" d="M137.5,633h660V583.2h-660V633Z" class="g0_151"/>
<path fill-rule="evenodd" d="M137.5,707.7h660V633h-660v74.7Z" class="g0_151"/>
<path fill-rule="evenodd" d="M137.5,732.6h660V707.7h-660v24.9Z" class="g0_151"/>
<path fill-rule="evenodd" d="M137.5,757.5h660V732.6h-660v24.9Z" class="g0_151"/>
<path fill-rule="evenodd" d="M137.5,782.4h660V757.5h-660v24.9Z" class="g0_151"/>
<path fill-rule="evenodd" d="M137.5,857.1h660V782.4h-660v74.7Z" class="g0_151"/>
<path fill-rule="evenodd" d="M137.5,882h660V857.1h-660V882Z" class="g0_151"/>
<path fill-rule="evenodd" d="M137.5,931.8h660V882h-660v49.8Z" class="g0_151"/>
<path fill-rule="evenodd" d="M137.5,956.7h660V931.8h-660v24.9Z" class="g0_151"/>
<path fill-rule="evenodd" d="M137.5,981.6h660V956.7h-660v24.9Z" class="g0_151"/>
<path fill-rule="evenodd" d="M137.5,1006.5h660V981.6h-660v24.9Z" class="g0_151"/>
<path fill-rule="evenodd" d="M137.5,1056.8h660v-50.3h-660v50.3Z" class="g0_151"/>
<path fill-rule="evenodd" d="M137.5,1106.6h660v-49.8h-660v49.8Z" class="g0_151"/>
<path fill-rule="evenodd" d="M137.5,1131.5h660v-24.9h-660v24.9Z" class="g0_151"/>
</svg>