<?xml version="1.0" encoding="UTF-8" standalone="no"?>
<!DOCTYPE svg PUBLIC "-//W3C//DTD SVG 1.1//EN"
"http://www.w3.org/Graphics/SVG/1.1/DTD/svg11.dtd">
<svg viewBox="0 0 935 1210" version="1.1" xmlns="http://www.w3.org/2000/svg" xmlns:xlink="http://www.w3.org/1999/xlink">
<defs>
<style type="text/css"><![CDATA[
.g0_182{
fill: #FFFFFF;
}
]]></style>
</defs>
<path fill-rule="evenodd" d="M138,159.8H797.5V110H138v49.8Z" class="g0_182"/>
<path fill-rule="evenodd" d="M138,458.6H797.5V159.8H138V458.6Z" class="g0_182"/>
<path fill-rule="evenodd" d="M138,483.5H797.5V458.6H138v24.9Z" class="g0_182"/>
<path fill-rule="evenodd" d="M138,533.3H797.5V483.5H138v49.8Z" class="g0_182"/>
<path fill-rule="evenodd" d="M138,583.2H797.5V533.3H138v49.9Z" class="g0_182"/>
<path fill-rule="evenodd" d="M138,633H797.5V583.2H138V633Z" class="g0_182"/>
<path fill-rule="evenodd" d="M138,683.2H797.5V633H138v50.2Z" class="g0_182"/>
<path fill-rule="evenodd" d="M138,708.1H797.5V683.2H138v24.9Z" class="g0_182"/>
<path fill-rule="evenodd" d="M138,757.9H797.5V708.1H138v49.8Z" class="g0_182"/>
<path fill-rule="evenodd" d="M138,782.8H797.5V757.9H138v24.9Z" class="g0_182"/>
<path fill-rule="evenodd" d="M138,882.8H797.5v-100H138v100Z" class="g0_182"/>
<path fill-rule="evenodd" d="M138,907.7H797.5V882.8H138v24.9Z" class="g0_182"/>
<path fill-rule="evenodd" d="M138,957.5H797.5V907.7H138v49.8Z" class="g0_182"/>
<path fill-rule="evenodd" d="M138,982.4H797.5V957.5H138v24.9Z" class="g0_182"/>
<path fill-rule="evenodd" d="M138,1007.3H797.5V982.4H138v24.9Z" class="g0_182"/>
<path fill-rule="evenodd" d="M138,1032.2H797.5v-24.9H138v24.9Z" class="g0_182"/>
<path fill-rule="evenodd" d="M138,1057.1H797.5v-24.9H138v24.9Z" class="g0_182"/>
<path fill-rule="evenodd" d="M138,1106.9H797.5v-49.8H138v49.8Z" class="g0_182"/>
<path fill-rule="evenodd" d="M138,1131.8H797.5v-24.9H138v24.9Z" class="g0_182"/>
</svg>