<?xml version="1.0" encoding="UTF-8" standalone="no"?>
<!DOCTYPE svg PUBLIC "-//W3C//DTD SVG 1.1//EN"
"http://www.w3.org/Graphics/SVG/1.1/DTD/svg11.dtd">
<svg viewBox="0 0 935 1210" version="1.1" xmlns="http://www.w3.org/2000/svg" xmlns:xlink="http://www.w3.org/1999/xlink">
<defs>
<style type="text/css"><![CDATA[
.g0_172{
fill: #FFFFFF;
}
]]></style>
</defs>
<path fill-rule="evenodd" d="M137.5,184.7h660V110h-660v74.7Z" class="g0_172"/>
<path fill-rule="evenodd" d="M137.5,202.4h660V184.7h-660v17.7Z" class="g0_172"/>
<path fill-rule="evenodd" d="M137.5,220h660V202.4h-660V220Z" class="g0_172"/>
<path fill-rule="evenodd" d="M138,244.9H797.5V220H138v24.9Z" class="g0_172"/>
<path fill-rule="evenodd" d="M137.5,319.6h660V244.9h-660v74.7Z" class="g0_172"/>
<path fill-rule="evenodd" d="M137.5,344.5h660V319.6h-660v24.9Z" class="g0_172"/>
<path fill-rule="evenodd" d="M137.5,394.3h660V344.5h-660v49.8Z" class="g0_172"/>
<path fill-rule="evenodd" d="M137.5,419.2h660V394.3h-660v24.9Z" class="g0_172"/>
<path fill-rule="evenodd" d="M137.5,568.6h660V419.2h-660V568.6Z" class="g0_172"/>
<path fill-rule="evenodd" d="M137.5,643.3h660V568.6h-660v74.7Z" class="g0_172"/>
<path fill-rule="evenodd" d="M137.5,693.2h660V643.3h-660v49.9Z" class="g0_172"/>
<path fill-rule="evenodd" d="M137.5,718.1h660V693.2h-660v24.9Z" class="g0_172"/>
<path fill-rule="evenodd" d="M137.5,743h660V718.1h-660V743Z" class="g0_172"/>
<path fill-rule="evenodd" d="M137.5,817.7h660V743h-660v74.7Z" class="g0_172"/>
<path fill-rule="evenodd" d="M137.5,842.6h660V817.7h-660v24.9Z" class="g0_172"/>
<path fill-rule="evenodd" d="M137.5,892.4h660V842.6h-660v49.8Z" class="g0_172"/>
<path fill-rule="evenodd" d="M137.5,917.3h660V892.4h-660v24.9Z" class="g0_172"/>
<path fill-rule="evenodd" d="M137.5,967.1h660V917.3h-660v49.8Z" class="g0_172"/>
<path fill-rule="evenodd" d="M137.5,1016.9h660V967.1h-660v49.8Z" class="g0_172"/>
<path fill-rule="evenodd" d="M137.5,1041.8h660v-24.9h-660v24.9Z" class="g0_172"/>
<path fill-rule="evenodd" d="M137.5,1091.6h660v-49.8h-660v49.8Z" class="g0_172"/>
<path fill-rule="evenodd" d="M137.5,1116.5h660v-24.9h-660v24.9Z" class="g0_172"/>
<path fill-rule="evenodd" d="M137.5,1141.4h660v-24.9h-660v24.9Z" class="g0_172"/>
</svg>