<?xml version="1.0" encoding="UTF-8" standalone="no"?>
<!DOCTYPE svg PUBLIC "-//W3C//DTD SVG 1.1//EN"
"http://www.w3.org/Graphics/SVG/1.1/DTD/svg11.dtd">
<svg viewBox="0 0 935 1210" version="1.1" xmlns="http://www.w3.org/2000/svg" xmlns:xlink="http://www.w3.org/1999/xlink">
<defs>
<style type="text/css"><![CDATA[
.g0_166{
fill: #FFFFFF;
}
]]></style>
</defs>
<path fill-rule="evenodd" d="M138,134.9H797.5V110H138v24.9Z" class="g0_166"/>
<path fill-rule="evenodd" d="M193,159.8H797.5V134.9H193v24.9Z" class="g0_166"/>
<path fill-rule="evenodd" d="M193,184.7H797.5V159.8H193v24.9Z" class="g0_166"/>
<path fill-rule="evenodd" d="M193,209.6H797.5V184.7H193v24.9Z" class="g0_166"/>
<path fill-rule="evenodd" d="M137.5,284.3h660V209.6h-660v74.7Z" class="g0_166"/>
<path fill-rule="evenodd" d="M137.5,359.5h660V284.3h-660v75.2Z" class="g0_166"/>
<path fill-rule="evenodd" d="M137.5,409.3h660V359.5h-660v49.8Z" class="g0_166"/>
<path fill-rule="evenodd" d="M137.5,658.6h660V409.3h-660V658.6Z" class="g0_166"/>
<path fill-rule="evenodd" d="M137.5,708.4h660V658.6h-660v49.8Z" class="g0_166"/>
<path fill-rule="evenodd" d="M137.5,857.8h660V708.4h-660V857.8Z" class="g0_166"/>
<path fill-rule="evenodd" d="M137.5,907.7h660V857.8h-660v49.9Z" class="g0_166"/>
<path fill-rule="evenodd" d="M137.5,1032.2h660V907.7h-660v124.5Z" class="g0_166"/>
<path fill-rule="evenodd" d="M137.5,1131.8h660v-99.6h-660v99.6Z" class="g0_166"/>
</svg>