<?xml version="1.0" encoding="UTF-8" standalone="no"?>
<!DOCTYPE svg PUBLIC "-//W3C//DTD SVG 1.1//EN"
"http://www.w3.org/Graphics/SVG/1.1/DTD/svg11.dtd">
<svg viewBox="0 0 935 1210" version="1.1" xmlns="http://www.w3.org/2000/svg" xmlns:xlink="http://www.w3.org/1999/xlink">
<defs>
<style type="text/css"><![CDATA[
.g0_18{
fill: #FFFFFF;
}
]]></style>
</defs>
<path fill-rule="evenodd" d="M166.1,134.9H797.5V110H166.1v24.9Z" class="g0_18"/>
<path fill-rule="evenodd" d="M137.5,259.4h660V134.9h-660V259.4Z" class="g0_18"/>
<path fill-rule="evenodd" d="M137.5,284.3h660V259.4h-660v24.9Z" class="g0_18"/>
<path fill-rule="evenodd" d="M137.5,359h660V284.3h-660V359Z" class="g0_18"/>
<path fill-rule="evenodd" d="M137.5,458.6h660V359h-660v99.6Z" class="g0_18"/>
<path fill-rule="evenodd" d="M137.5,508.4h660V458.6h-660v49.8Z" class="g0_18"/>
<path fill-rule="evenodd" d="M137.5,533.3h660V508.4h-660v24.9Z" class="g0_18"/>
<path fill-rule="evenodd" d="M137.5,558.2h660V533.3h-660v24.9Z" class="g0_18"/>
<path fill-rule="evenodd" d="M137.5,608.1h660V558.2h-660v49.9Z" class="g0_18"/>
<path fill-rule="evenodd" d="M137.5,757.5h660V608.1h-660V757.5Z" class="g0_18"/>
<path fill-rule="evenodd" d="M165.5,782.4h632V757.5h-632v24.9Z" class="g0_18"/>
<path fill-rule="evenodd" d="M137.5,832.2h660V782.4h-660v49.8Z" class="g0_18"/>
<path fill-rule="evenodd" d="M166.1,857.1H797.5V832.2H166.1v24.9Z" class="g0_18"/>
<path fill-rule="evenodd" d="M138,906.9H797.5V857.1H138v49.8Z" class="g0_18"/>
<path fill-rule="evenodd" d="M138,931.8H797.5V906.9H138v24.9Z" class="g0_18"/>
<path fill-rule="evenodd" d="M138,956.7H797.5V931.8H138v24.9Z" class="g0_18"/>
<path fill-rule="evenodd" d="M165.5,981.6h632V956.7h-632v24.9Z" class="g0_18"/>
<path fill-rule="evenodd" d="M166.5,1006.5h631V981.6h-631v24.9Z" class="g0_18"/>
<path fill-rule="evenodd" d="M166.5,1031.4h631v-24.9h-631v24.9Z" class="g0_18"/>
<path fill-rule="evenodd" d="M165.5,1056.8h632v-25.4h-632v25.4Z" class="g0_18"/>
<path fill-rule="evenodd" d="M138,1106.6H797.5v-49.8H138v49.8Z" class="g0_18"/>
<path fill-rule="evenodd" d="M138,1131.5H797.5v-24.9H138v24.9Z" class="g0_18"/>
</svg>