<?xml version="1.0" encoding="UTF-8" standalone="no"?>
<!DOCTYPE svg PUBLIC "-//W3C//DTD SVG 1.1//EN"
"http://www.w3.org/Graphics/SVG/1.1/DTD/svg11.dtd">
<svg viewBox="0 0 935 1210" version="1.1" xmlns="http://www.w3.org/2000/svg" xmlns:xlink="http://www.w3.org/1999/xlink">
<defs>
<style type="text/css"><![CDATA[
.g0_31{
fill: #FFFFFF;
}
]]></style>
</defs>
<path fill-rule="evenodd" d="M138.3,134.9H797.5V110H138.3v24.9Z" class="g0_31"/>
<path fill-rule="evenodd" d="M138.6,184.7H797.5V134.9H138.6v49.8Z" class="g0_31"/>
<path fill-rule="evenodd" d="M138.6,209.6H797.5V184.7H138.6v24.9Z" class="g0_31"/>
<path fill-rule="evenodd" d="M138.6,259.4H797.5V209.6H138.6v49.8Z" class="g0_31"/>
<path fill-rule="evenodd" d="M166.5,284.3h631V259.4h-631v24.9Z" class="g0_31"/>
<path fill-rule="evenodd" d="M165.5,309.2h632V284.3h-632v24.9Z" class="g0_31"/>
<path fill-rule="evenodd" d="M139,334.1H797.5V309.2H139v24.9Z" class="g0_31"/>
<path fill-rule="evenodd" d="M139,408.8H797.5V334.1H139v74.7Z" class="g0_31"/>
<path fill-rule="evenodd" d="M137.5,483.5h660V408.8h-660v74.7Z" class="g0_31"/>
<path fill-rule="evenodd" d="M138,533.3H797.5V483.5H138v49.8Z" class="g0_31"/>
<path fill-rule="evenodd" d="M138,558.2H797.5V533.3H138v24.9Z" class="g0_31"/>
<path fill-rule="evenodd" d="M138,583.2H797.5V558.3H138v24.9Z" class="g0_31"/>
<path fill-rule="evenodd" d="M138,608.1H797.5V583.2H138v24.9Z" class="g0_31"/>
<path fill-rule="evenodd" d="M138,633H797.5V608.1H138V633Z" class="g0_31"/>
<path fill-rule="evenodd" d="M138,657.9H797.5V633H138v24.9Z" class="g0_31"/>
<path fill-rule="evenodd" d="M138,707.7H797.5V657.9H138v49.8Z" class="g0_31"/>
<path fill-rule="evenodd" d="M138,857.1H797.5V707.7H138V857.1Z" class="g0_31"/>
<path fill-rule="evenodd" d="M138,906.9H797.5V857.1H138v49.8Z" class="g0_31"/>
<path fill-rule="evenodd" d="M165.8,931.8H797.5V906.9H165.8v24.9Z" class="g0_31"/>
<path fill-rule="evenodd" d="M164.7,956.7H797.5V931.8H164.7v24.9Z" class="g0_31"/>
<path fill-rule="evenodd" d="M137.5,981.6h660V956.7h-660v24.9Z" class="g0_31"/>
<path fill-rule="evenodd" d="M165.8,1006.5H797.5V981.6H165.8v24.9Z" class="g0_31"/>
<path fill-rule="evenodd" d="M137.5,1031.4h660v-24.9h-660v24.9Z" class="g0_31"/>
<path fill-rule="evenodd" d="M138,1056.3H797.5v-24.9H138v24.9Z" class="g0_31"/>
<path fill-rule="evenodd" d="M165.5,1081.2h632v-24.9h-632v24.9Z" class="g0_31"/>
<path fill-rule="evenodd" d="M166.1,1106.1H797.5v-24.9H166.1v24.9Z" class="g0_31"/>
<path fill-rule="evenodd" d="M138.3,1131H797.5v-24.9H138.3V1131Z" class="g0_31"/>
</svg>