<?xml version="1.0" encoding="UTF-8" standalone="no"?>
<!DOCTYPE svg PUBLIC "-//W3C//DTD SVG 1.1//EN"
"http://www.w3.org/Graphics/SVG/1.1/DTD/svg11.dtd">
<svg viewBox="0 0 935 1210" version="1.1" xmlns="http://www.w3.org/2000/svg" xmlns:xlink="http://www.w3.org/1999/xlink">
<defs>
<style type="text/css"><![CDATA[
.g0_111{
fill: #FFFFFF;
}
]]></style>
</defs>
<path fill-rule="evenodd" d="M138,159.8H797.5V110H138v49.8Z" class="g0_111"/>
<path fill-rule="evenodd" d="M138,184.7H797.5V159.8H138v24.9Z" class="g0_111"/>
<path fill-rule="evenodd" d="M138,209.6H797.5V184.7H138v24.9Z" class="g0_111"/>
<path fill-rule="evenodd" d="M138,234.5H797.5V209.6H138v24.9Z" class="g0_111"/>
<path fill-rule="evenodd" d="M138,284.3H797.5V234.5H138v49.8Z" class="g0_111"/>
<path fill-rule="evenodd" d="M138,309.2H797.5V284.3H138v24.9Z" class="g0_111"/>
<path fill-rule="evenodd" d="M138,359H797.5V309.2H138V359Z" class="g0_111"/>
<path fill-rule="evenodd" d="M138,383.9H797.5V359H138v24.9Z" class="g0_111"/>
<path fill-rule="evenodd" d="M138,408.8H797.5V383.9H138v24.9Z" class="g0_111"/>
<path fill-rule="evenodd" d="M138,433.7H797.5V408.8H138v24.9Z" class="g0_111"/>
<path fill-rule="evenodd" d="M138,458.6H797.5V433.7H138v24.9Z" class="g0_111"/>
<path fill-rule="evenodd" d="M138,483.5H797.5V458.6H138v24.9Z" class="g0_111"/>
<path fill-rule="evenodd" d="M138,508.4H797.5V483.5H138v24.9Z" class="g0_111"/>
<path fill-rule="evenodd" d="M138,533.3H797.5V508.4H138v24.9Z" class="g0_111"/>
<path fill-rule="evenodd" d="M138,633H797.5V533.3H138V633Z" class="g0_111"/>
<path fill-rule="evenodd" d="M138,657.9H797.5V633H138v24.9Z" class="g0_111"/>
<path fill-rule="evenodd" d="M138,707.7H797.5V657.9H138v49.8Z" class="g0_111"/>
<path fill-rule="evenodd" d="M138,757.5H797.5V707.7H138v49.8Z" class="g0_111"/>
<path fill-rule="evenodd" d="M138,807.3H797.5V757.5H138v49.8Z" class="g0_111"/>
<path fill-rule="evenodd" d="M138,857.1H797.5V807.3H138v49.8Z" class="g0_111"/>
<path fill-rule="evenodd" d="M138,906.9H797.5V857.1H138v49.8Z" class="g0_111"/>
<path fill-rule="evenodd" d="M138,981.6H797.5V906.9H138v74.7Z" class="g0_111"/>
<path fill-rule="evenodd" d="M138,1006.5H797.5V981.6H138v24.9Z" class="g0_111"/>
<path fill-rule="evenodd" d="M138,1056.3H797.5v-49.8H138v49.8Z" class="g0_111"/>
<path fill-rule="evenodd" d="M138,1081.2H797.5v-24.9H138v24.9Z" class="g0_111"/>
<path fill-rule="evenodd" d="M138,1106.1H797.5v-24.9H138v24.9Z" class="g0_111"/>
<path fill-rule="evenodd" d="M138,1131H797.5v-24.9H138V1131Z" class="g0_111"/>
</svg>