<?xml version="1.0" encoding="UTF-8" standalone="no"?>
<!DOCTYPE svg PUBLIC "-//W3C//DTD SVG 1.1//EN"
"http://www.w3.org/Graphics/SVG/1.1/DTD/svg11.dtd">
<svg viewBox="0 0 935 1210" version="1.1" xmlns="http://www.w3.org/2000/svg" xmlns:xlink="http://www.w3.org/1999/xlink">
<defs>
<style type="text/css"><![CDATA[
.g0_45{
fill: #FFFFFF;
}
]]></style>
</defs>
<path fill-rule="evenodd" d="M137.5,134.9h660V110h-660v24.9Z" class="g0_45"/>
<path fill-rule="evenodd" d="M137.5,159.8h660V134.9h-660v24.9Z" class="g0_45"/>
<path fill-rule="evenodd" d="M137.5,184.7h660V159.8h-660v24.9Z" class="g0_45"/>
<path fill-rule="evenodd" d="M137.5,209.6h660V184.7h-660v24.9Z" class="g0_45"/>
<path fill-rule="evenodd" d="M138,234.5H797.5V209.6H138v24.9Z" class="g0_45"/>
<path fill-rule="evenodd" d="M138.6,259.4H797.5V234.5H138.6v24.9Z" class="g0_45"/>
<path fill-rule="evenodd" d="M166.5,284.3h631V259.4h-631v24.9Z" class="g0_45"/>
<path fill-rule="evenodd" d="M138,359H797.5V284.3H138V359Z" class="g0_45"/>
<path fill-rule="evenodd" d="M139,383.9H797.5V359H139v24.9Z" class="g0_45"/>
<path fill-rule="evenodd" d="M138.3,433.7H797.5V383.9H138.3v49.8Z" class="g0_45"/>
<path fill-rule="evenodd" d="M137.5,458.6h660V433.7h-660v24.9Z" class="g0_45"/>
<path fill-rule="evenodd" d="M137.5,483.5h660V458.6h-660v24.9Z" class="g0_45"/>
<path fill-rule="evenodd" d="M137.5,508.4h660V483.5h-660v24.9Z" class="g0_45"/>
<path fill-rule="evenodd" d="M137.5,583.2h660V508.4h-660v74.8Z" class="g0_45"/>
<path fill-rule="evenodd" d="M138,657.9H797.5V583.2H138v74.7Z" class="g0_45"/>
<path fill-rule="evenodd" d="M138.3,707.7H797.5V657.9H138.3v49.8Z" class="g0_45"/>
<path fill-rule="evenodd" d="M137.5,732.6h660V707.7h-660v24.9Z" class="g0_45"/>
<path fill-rule="evenodd" d="M138.3,782.4H797.5V732.6H138.3v49.8Z" class="g0_45"/>
<path fill-rule="evenodd" d="M138.3,832.2H797.5V782.4H138.3v49.8Z" class="g0_45"/>
<path fill-rule="evenodd" d="M137.5,857.1h660V832.2h-660v24.9Z" class="g0_45"/>
<path fill-rule="evenodd" d="M138.6,906.9H797.5V857.1H138.6v49.8Z" class="g0_45"/>
<path fill-rule="evenodd" d="M137.5,931.8h660V906.9h-660v24.9Z" class="g0_45"/>
<path fill-rule="evenodd" d="M137.5,956.7h660V931.8h-660v24.9Z" class="g0_45"/>
<path fill-rule="evenodd" d="M137.5,981.6h660V956.7h-660v24.9Z" class="g0_45"/>
<path fill-rule="evenodd" d="M138.6,1006.5H797.5V981.6H138.6v24.9Z" class="g0_45"/>
<path fill-rule="evenodd" d="M137.5,1031.4h660v-24.9h-660v24.9Z" class="g0_45"/>
<path fill-rule="evenodd" d="M137.5,1081.2h660v-49.8h-660v49.8Z" class="g0_45"/>
<path fill-rule="evenodd" d="M137.5,1106.1h660v-24.9h-660v24.9Z" class="g0_45"/>
<path fill-rule="evenodd" d="M166.5,1131.5h631v-25.4h-631v25.4Z" class="g0_45"/>
</svg>