<?xml version="1.0" encoding="UTF-8" standalone="no"?>
<!DOCTYPE svg PUBLIC "-//W3C//DTD SVG 1.1//EN"
"http://www.w3.org/Graphics/SVG/1.1/DTD/svg11.dtd">
<svg viewBox="0 0 935 1210" version="1.1" xmlns="http://www.w3.org/2000/svg" xmlns:xlink="http://www.w3.org/1999/xlink">
<defs>
<style type="text/css"><![CDATA[
.g0_138{
fill: #FFFFFF;
}
]]></style>
</defs>
<path fill-rule="evenodd" d="M137.5,134.9h660V110h-660v24.9Z" class="g0_138"/>
<path fill-rule="evenodd" d="M137.5,159.8h660V134.9h-660v24.9Z" class="g0_138"/>
<path fill-rule="evenodd" d="M137.5,184.7h660V159.8h-660v24.9Z" class="g0_138"/>
<path fill-rule="evenodd" d="M137.5,259.4h660V184.7h-660v74.7Z" class="g0_138"/>
<path fill-rule="evenodd" d="M137.5,284.3h660V259.4h-660v24.9Z" class="g0_138"/>
<path fill-rule="evenodd" d="M137.5,334.1h660V284.3h-660v49.8Z" class="g0_138"/>
<path fill-rule="evenodd" d="M137.5,359h660V334.1h-660V359Z" class="g0_138"/>
<path fill-rule="evenodd" d="M137.5,408.8h660V359h-660v49.8Z" class="g0_138"/>
<path fill-rule="evenodd" d="M137.5,458.6h660V408.8h-660v49.8Z" class="g0_138"/>
<path fill-rule="evenodd" d="M137.5,508.4h660V458.6h-660v49.8Z" class="g0_138"/>
<path fill-rule="evenodd" d="M137.5,533.3h660V508.4h-660v24.9Z" class="g0_138"/>
<path fill-rule="evenodd" d="M137.5,583.2h660V533.3h-660v49.9Z" class="g0_138"/>
<path fill-rule="evenodd" d="M137.5,608.1h660V583.2h-660v24.9Z" class="g0_138"/>
<path fill-rule="evenodd" d="M137.5,633h660V608.1h-660V633Z" class="g0_138"/>
<path fill-rule="evenodd" d="M137.5,682.8h660V633h-660v49.8Z" class="g0_138"/>
<path fill-rule="evenodd" d="M137.5,707.7h660V682.8h-660v24.9Z" class="g0_138"/>
<path fill-rule="evenodd" d="M137.5,732.6h660V707.7h-660v24.9Z" class="g0_138"/>
<path fill-rule="evenodd" d="M137.5,757.9h660V732.6h-660v25.3Z" class="g0_138"/>
<path fill-rule="evenodd" d="M137.5,857.5h660V757.9h-660v99.6Z" class="g0_138"/>
<path fill-rule="evenodd" d="M137.5,957.2h660V857.5h-660v99.7Z" class="g0_138"/>
<path fill-rule="evenodd" d="M137.5,982.4h660V957.2h-660v25.2Z" class="g0_138"/>
<path fill-rule="evenodd" d="M137.5,1007.3h660V982.4h-660v24.9Z" class="g0_138"/>
<path fill-rule="evenodd" d="M137.5,1032.2h660v-24.9h-660v24.9Z" class="g0_138"/>
<path fill-rule="evenodd" d="M137.5,1082h660v-49.8h-660V1082Z" class="g0_138"/>
<path fill-rule="evenodd" d="M137.5,1131.8h660V1082h-660v49.8Z" class="g0_138"/>
</svg>