<?xml version="1.0" encoding="UTF-8" standalone="no"?>
<!DOCTYPE svg PUBLIC "-//W3C//DTD SVG 1.1//EN"
"http://www.w3.org/Graphics/SVG/1.1/DTD/svg11.dtd">
<svg viewBox="0 0 935 1210" version="1.1" xmlns="http://www.w3.org/2000/svg" xmlns:xlink="http://www.w3.org/1999/xlink">
<defs>
<style type="text/css"><![CDATA[
.g0_129{
fill: #FFFFFF;
}
]]></style>
</defs>
<path fill-rule="evenodd" d="M138,134.9H797.5V110H138v24.9Z" class="g0_129"/>
<path fill-rule="evenodd" d="M138,259.4H797.5V134.9H138V259.4Z" class="g0_129"/>
<path fill-rule="evenodd" d="M138,284.3H797.5V259.4H138v24.9Z" class="g0_129"/>
<path fill-rule="evenodd" d="M138,383.9H797.5V284.3H138v99.6Z" class="g0_129"/>
<path fill-rule="evenodd" d="M138,558.2H797.5V383.9H138V558.2Z" class="g0_129"/>
<path fill-rule="evenodd" d="M138,633H797.5V558.2H138V633Z" class="g0_129"/>
<path fill-rule="evenodd" d="M138,657.9H797.5V633H138v24.9Z" class="g0_129"/>
<path fill-rule="evenodd" d="M138,757.5H797.5V657.9H138v99.6Z" class="g0_129"/>
<path fill-rule="evenodd" d="M138,782.4H797.5V757.5H138v24.9Z" class="g0_129"/>
<path fill-rule="evenodd" d="M138,832.2H797.5V782.4H138v49.8Z" class="g0_129"/>
<path fill-rule="evenodd" d="M138,857.1H797.5V832.2H138v24.9Z" class="g0_129"/>
<path fill-rule="evenodd" d="M138,882H797.5V857.1H138V882Z" class="g0_129"/>
<path fill-rule="evenodd" d="M138,906.9H797.5V882H138v24.9Z" class="g0_129"/>
<path fill-rule="evenodd" d="M138,1106.1H797.5V906.9H138v199.2Z" class="g0_129"/>
<path fill-rule="evenodd" d="M138,1131H797.5v-24.9H138V1131Z" class="g0_129"/>
</svg>