<?xml version="1.0" encoding="UTF-8" standalone="no"?>
<!DOCTYPE svg PUBLIC "-//W3C//DTD SVG 1.1//EN"
"http://www.w3.org/Graphics/SVG/1.1/DTD/svg11.dtd">
<svg viewBox="0 0 935 1210" version="1.1" xmlns="http://www.w3.org/2000/svg" xmlns:xlink="http://www.w3.org/1999/xlink">
<defs>
<style type="text/css"><![CDATA[
.g0_145{
fill: #FFFFFF;
}
]]></style>
</defs>
<path fill-rule="evenodd" d="M137.5,159.8h660V110h-660v49.8Z" class="g0_145"/>
<path fill-rule="evenodd" d="M137.5,209.6h660V159.8h-660v49.8Z" class="g0_145"/>
<path fill-rule="evenodd" d="M137.5,259.4h660V209.6h-660v49.8Z" class="g0_145"/>
<path fill-rule="evenodd" d="M137.5,334.1h660V259.4h-660v74.7Z" class="g0_145"/>
<path fill-rule="evenodd" d="M137.5,383.9h660V334.1h-660v49.8Z" class="g0_145"/>
<path fill-rule="evenodd" d="M137.5,483.5h660V383.9h-660v99.6Z" class="g0_145"/>
<path fill-rule="evenodd" d="M137.5,533.3h660V483.5h-660v49.8Z" class="g0_145"/>
<path fill-rule="evenodd" d="M137.5,608.1h660V533.3h-660v74.8Z" class="g0_145"/>
<path fill-rule="evenodd" d="M137.5,657.9h660V608.1h-660v49.8Z" class="g0_145"/>
<path fill-rule="evenodd" d="M137.5,707.7h660V657.9h-660v49.8Z" class="g0_145"/>
<path fill-rule="evenodd" d="M137.5,732.6h660V707.7h-660v24.9Z" class="g0_145"/>
<path fill-rule="evenodd" d="M138,807.3H797.5V732.6H138v74.7Z" class="g0_145"/>
<path fill-rule="evenodd" d="M138,906.9H797.5V807.3H138v99.6Z" class="g0_145"/>
<path fill-rule="evenodd" d="M138,981.6H797.5V906.9H138v74.7Z" class="g0_145"/>
<path fill-rule="evenodd" d="M138,1031.4H797.5V981.6H138v49.8Z" class="g0_145"/>
<path fill-rule="evenodd" d="M138,1056.3H797.5v-24.9H138v24.9Z" class="g0_145"/>
<path fill-rule="evenodd" d="M138,1106.1H797.5v-49.8H138v49.8Z" class="g0_145"/>
<path fill-rule="evenodd" d="M138,1131H797.5v-24.9H138V1131Z" class="g0_145"/>
</svg>