<?xml version="1.0" encoding="UTF-8" standalone="no"?>
<!DOCTYPE svg PUBLIC "-//W3C//DTD SVG 1.1//EN"
"http://www.w3.org/Graphics/SVG/1.1/DTD/svg11.dtd">
<svg viewBox="0 0 935 1210" version="1.1" xmlns="http://www.w3.org/2000/svg" xmlns:xlink="http://www.w3.org/1999/xlink">
<defs>
<style type="text/css"><![CDATA[
.g0_149{
fill: #FFFFFF;
}
.g1_149{
}
]]></style>
</defs>
<path fill-rule="evenodd" d="M138,159.8H797.5V110H138v49.8Z" class="g0_149"/>
<path fill-rule="evenodd" d="M138,184.7H797.5V159.8H138v24.9Z" class="g0_149"/>
<path fill-rule="evenodd" d="M138,234.5H797.5V184.7H138v49.8Z" class="g0_149"/>
<path fill-rule="evenodd" d="M138,259.4H797.5V234.5H138v24.9Z" class="g0_149"/>
<path fill-rule="evenodd" d="M138,309.7H797.5V259.4H138v50.3Z" class="g0_149"/>
<path fill-rule="evenodd" d="M138,359.5H797.5V309.7H138v49.8Z" class="g0_149"/>
<path fill-rule="evenodd" d="M138,384.4H797.5V359.5H138v24.9Z" class="g0_149"/>
<path fill-rule="evenodd" d="M138,409.3H797.5V384.4H138v24.9Z" class="g0_149"/>
<path fill-rule="evenodd" d="M138,434.2H797.5V409.3H138v24.9Z" class="g0_149"/>
<path fill-rule="evenodd" d="M138,484H797.5V434.2H138V484Z" class="g0_149"/>
<path fill-rule="evenodd" d="M138,558.7H797.5V484H138v74.7Z" class="g0_149"/>
<path fill-rule="evenodd" d="M137.5,583.6h660V558.7h-660v24.9Z" class="g0_149"/>
<path fill-rule="evenodd" d="M137.5,608.5h660V583.6h-660v24.9Z" class="g0_149"/>
<path fill-rule="evenodd" d="M137.5,635.7h660V608.5h-660v27.2Z" class="g0_149"/>
<path fill-rule="evenodd" d="M137.5,660.6h660V635.7h-660v24.9Z" class="g0_149"/>
<path fill-rule="evenodd" d="M137.5,685.5h660V660.6h-660v24.9Z" class="g0_149"/>
<path fill-rule="evenodd" d="M137.5,710.4h660V685.5h-660v24.9Z" class="g0_149"/>
<path fill-rule="evenodd" d="M137.5,735.3h660V710.4h-660v24.9Z" class="g0_149"/>
<path fill-rule="evenodd" d="M137.5,760.2h660V735.3h-660v24.9Z" class="g0_149"/>
<path fill-rule="evenodd" d="M137.5,785.1h660V760.2h-660v24.9Z" class="g0_149"/>
<path fill-rule="evenodd" d="M137.5,810h660V785.1h-660V810Z" class="g0_149"/>
<path fill-rule="evenodd" d="M137.5,834.9h660V810h-660v24.9Z" class="g0_149"/>
<path fill-rule="evenodd" d="M138,934.5H797.5V834.9H138v99.6Z" class="g0_149"/>
<path fill-rule="evenodd" d="M138,1009.3H797.5V934.5H138v74.8Z" class="g0_149"/>
<path fill-rule="evenodd" d="M138,1133.8H797.5V1009.3H138v124.5Z" class="g0_149"/>
<path fill-rule="evenodd" d="M137.5,635.7h660v-.6h-660v.6Z" class="g1_149"/>
</svg>