<?xml version="1.0" encoding="UTF-8" standalone="no"?>
<!DOCTYPE svg PUBLIC "-//W3C//DTD SVG 1.1//EN"
"http://www.w3.org/Graphics/SVG/1.1/DTD/svg11.dtd">
<svg viewBox="0 0 935 1210" version="1.1" xmlns="http://www.w3.org/2000/svg" xmlns:xlink="http://www.w3.org/1999/xlink">
<defs>
<style type="text/css"><![CDATA[
.g0_44{
fill: #FFFFFF;
}
]]></style>
</defs>
<path fill-rule="evenodd" d="M166.1,134.9H797.5V110H166.1v24.9Z" class="g0_44"/>
<path fill-rule="evenodd" d="M138.6,159.8H797.5V134.9H138.6v24.9Z" class="g0_44"/>
<path fill-rule="evenodd" d="M165,184.7H797.5V159.8H165v24.9Z" class="g0_44"/>
<path fill-rule="evenodd" d="M137.5,234.5h660V184.7h-660v49.8Z" class="g0_44"/>
<path fill-rule="evenodd" d="M137.5,359h660V234.5h-660V359Z" class="g0_44"/>
<path fill-rule="evenodd" d="M137.5,433.7h660V359h-660v74.7Z" class="g0_44"/>
<path fill-rule="evenodd" d="M165.8,458.6H797.5V433.7H165.8v24.9Z" class="g0_44"/>
<path fill-rule="evenodd" d="M138,533.3H797.5V458.6H138v74.7Z" class="g0_44"/>
<path fill-rule="evenodd" d="M138,608.1H797.5V533.3H138v74.8Z" class="g0_44"/>
<path fill-rule="evenodd" d="M138,657.9H797.5V608.1H138v49.8Z" class="g0_44"/>
<path fill-rule="evenodd" d="M166.5,682.8h631V657.9h-631v24.9Z" class="g0_44"/>
<path fill-rule="evenodd" d="M166.1,707.7H797.5V682.8H166.1v24.9Z" class="g0_44"/>
<path fill-rule="evenodd" d="M166.5,732.6h631V707.7h-631v24.9Z" class="g0_44"/>
<path fill-rule="evenodd" d="M165.5,757.5h632V732.6h-632v24.9Z" class="g0_44"/>
<path fill-rule="evenodd" d="M138.6,782.4H797.5V757.5H138.6v24.9Z" class="g0_44"/>
<path fill-rule="evenodd" d="M137.5,807.3h660V782.4h-660v24.9Z" class="g0_44"/>
<path fill-rule="evenodd" d="M137.5,857.8h660V807.3h-660v50.5Z" class="g0_44"/>
<path fill-rule="evenodd" d="M137.5,907.8h660v-50h-660v50Z" class="g0_44"/>
<path fill-rule="evenodd" d="M137.5,932.7h660V907.8h-660v24.9Z" class="g0_44"/>
<path fill-rule="evenodd" d="M137.5,982.5h660V932.7h-660v49.8Z" class="g0_44"/>
<path fill-rule="evenodd" d="M137.5,1007.4h660V982.5h-660v24.9Z" class="g0_44"/>
<path fill-rule="evenodd" d="M137.5,1057.2h660v-49.8h-660v49.8Z" class="g0_44"/>
<path fill-rule="evenodd" d="M137.5,1082.1h660v-24.9h-660v24.9Z" class="g0_44"/>
<path fill-rule="evenodd" d="M137.5,1107h660v-24.9h-660V1107Z" class="g0_44"/>
<path fill-rule="evenodd" d="M137.5,1131.9h660V1107h-660v24.9Z" class="g0_44"/>
</svg>