<?xml version="1.0" encoding="UTF-8" standalone="no"?>
<!DOCTYPE svg PUBLIC "-//W3C//DTD SVG 1.1//EN"
"http://www.w3.org/Graphics/SVG/1.1/DTD/svg11.dtd">
<svg viewBox="0 0 935 1210" version="1.1" xmlns="http://www.w3.org/2000/svg" xmlns:xlink="http://www.w3.org/1999/xlink">
<defs>
<style type="text/css"><![CDATA[
.g0_15{
fill: #FFFFFF;
}
]]></style>
</defs>
<path fill-rule="evenodd" d="M166.1,133.8H797.5V110H166.1v23.8Z" class="g0_15"/>
<path fill-rule="evenodd" d="M138,157.7H797.5V133.8H138v23.9Z" class="g0_15"/>
<path fill-rule="evenodd" d="M137.5,181.5h660V157.7h-660v23.8Z" class="g0_15"/>
<path fill-rule="evenodd" d="M166.5,205.3h631V181.5h-631v23.8Z" class="g0_15"/>
<path fill-rule="evenodd" d="M138.3,253H797.5V205.3H138.3V253Z" class="g0_15"/>
<path fill-rule="evenodd" d="M166.1,276.8H797.5V253H166.1v23.8Z" class="g0_15"/>
<path fill-rule="evenodd" d="M166.5,300.7h631V276.8h-631v23.9Z" class="g0_15"/>
<path fill-rule="evenodd" d="M138,324.5H797.5V300.7H138v23.8Z" class="g0_15"/>
<path fill-rule="evenodd" d="M138,396H797.5V324.5H138V396Z" class="g0_15"/>
<path fill-rule="evenodd" d="M138,443.7H797.5V396H138v47.7Z" class="g0_15"/>
<path fill-rule="evenodd" d="M165,467.5H797.5V443.7H165v23.8Z" class="g0_15"/>
<path fill-rule="evenodd" d="M137.5,491.3h660V467.5h-660v23.8Z" class="g0_15"/>
<path fill-rule="evenodd" d="M138.3,515.2H797.5V491.3H138.3v23.9Z" class="g0_15"/>
<path fill-rule="evenodd" d="M138.3,539H797.5V515.2H138.3V539Z" class="g0_15"/>
<path fill-rule="evenodd" d="M166.1,562.8H797.5V539H166.1v23.8Z" class="g0_15"/>
<path fill-rule="evenodd" d="M166.1,586.7H797.5V562.8H166.1v23.9Z" class="g0_15"/>
<path fill-rule="evenodd" d="M166.5,610.5h631V586.7h-631v23.8Z" class="g0_15"/>
<path fill-rule="evenodd" d="M139.3,658.2H797.5V610.5H139.3v47.7Z" class="g0_15"/>
<path fill-rule="evenodd" d="M138.3,705.8H797.5V658.2H138.3v47.6Z" class="g0_15"/>
<path fill-rule="evenodd" d="M139.3,753.5H797.5V705.8H139.3v47.7Z" class="g0_15"/>
<path fill-rule="evenodd" d="M139.3,777.3H797.5V753.5H139.3v23.8Z" class="g0_15"/>
<path fill-rule="evenodd" d="M139.3,825.5H797.5V777.3H139.3v48.2Z" class="g0_15"/>
<path fill-rule="evenodd" d="M165.8,849.3H797.5V825.5H165.8v23.8Z" class="g0_15"/>
<path fill-rule="evenodd" d="M166.5,873.1h631V849.3h-631v23.8Z" class="g0_15"/>
<path fill-rule="evenodd" d="M139.3,920.8H797.5V873.1H139.3v47.7Z" class="g0_15"/>
<path fill-rule="evenodd" d="M166.1,944.9H797.5V920.8H166.1v24.1Z" class="g0_15"/>
<path fill-rule="evenodd" d="M166.1,968.8H797.5V944.9H166.1v23.9Z" class="g0_15"/>
<path fill-rule="evenodd" d="M137.5,992.6h660V968.8h-660v23.8Z" class="g0_15"/>
<path fill-rule="evenodd" d="M137.5,1016.4h660V992.6h-660v23.8Z" class="g0_15"/>
<path fill-rule="evenodd" d="M138,1040.7H797.5v-24.3H138v24.3Z" class="g0_15"/>
<path fill-rule="evenodd" d="M166.1,1064.6H797.5v-23.9H166.1v23.9Z" class="g0_15"/>
<path fill-rule="evenodd" d="M165.5,1088.4h632v-23.8h-632v23.8Z" class="g0_15"/>
<path fill-rule="evenodd" d="M138.3,1112.2H797.5v-23.8H138.3v23.8Z" class="g0_15"/>
<path fill-rule="evenodd" d="M138,1136.1H797.5v-23.9H138v23.9Z" class="g0_15"/>
</svg>