<?xml version="1.0" encoding="UTF-8" standalone="no"?>
<!DOCTYPE svg PUBLIC "-//W3C//DTD SVG 1.1//EN"
"http://www.w3.org/Graphics/SVG/1.1/DTD/svg11.dtd">
<svg viewBox="0 0 935 1210" version="1.1" xmlns="http://www.w3.org/2000/svg" xmlns:xlink="http://www.w3.org/1999/xlink">
<defs>
<style type="text/css"><![CDATA[
.g0_76{
fill: #FFFFFF;
}
.g1_76{
}
]]></style>
</defs>
<path fill-rule="evenodd" d="M137.5,159.8h660V110h-660v49.8Z" class="g0_76"/>
<path fill-rule="evenodd" d="M137.5,209.6h660V159.8h-660v49.8Z" class="g0_76"/>
<path fill-rule="evenodd" d="M137.5,259.4h660V209.6h-660v49.8Z" class="g0_76"/>
<path fill-rule="evenodd" d="M137.5,284.3h660V259.4h-660v24.9Z" class="g0_76"/>
<path fill-rule="evenodd" d="M137.5,334.1h660V284.3h-660v49.8Z" class="g0_76"/>
<path fill-rule="evenodd" d="M137.5,359h660V334.1h-660V359Z" class="g0_76"/>
<path fill-rule="evenodd" d="M137.5,408.8h660V359h-660v49.8Z" class="g0_76"/>
<path fill-rule="evenodd" d="M137.5,458.6h660V408.8h-660v49.8Z" class="g0_76"/>
<path fill-rule="evenodd" d="M137.5,533.3h660V458.6h-660v74.7Z" class="g0_76"/>
<path fill-rule="evenodd" d="M137.5,558.2h660V533.3h-660v24.9Z" class="g0_76"/>
<path fill-rule="evenodd" d="M137.5,583.2h660V558.3h-660v24.9Z" class="g0_76"/>
<path fill-rule="evenodd" d="M137.5,633h660V583.2h-660V633Z" class="g0_76"/>
<path fill-rule="evenodd" d="M137.5,682.8h660V633h-660v49.8Z" class="g0_76"/>
<path fill-rule="evenodd" d="M137.5,707.7h660V682.8h-660v24.9Z" class="g0_76"/>
<path fill-rule="evenodd" d="M137.5,732.6h660V707.7h-660v24.9Z" class="g0_76"/>
<path fill-rule="evenodd" d="M137.5,782.8h660V732.6h-660v50.2Z" class="g0_76"/>
<path fill-rule="evenodd" d="M137.5,807.7h660V782.8h-660v24.9Z" class="g0_76"/>
<path fill-rule="evenodd" d="M137.5,832.6h660V807.7h-660v24.9Z" class="g0_76"/>
<path fill-rule="evenodd" d="M137.5,857.5h660V832.6h-660v24.9Z" class="g0_76"/>
<path fill-rule="evenodd" d="M137.5,882.4h660V857.5h-660v24.9Z" class="g0_76"/>
<path fill-rule="evenodd" d="M137.5,932.6h660V882.4h-660v50.2Z" class="g0_76"/>
<path fill-rule="evenodd" d="M137.5,982.4h660V932.6h-660v49.8Z" class="g0_76"/>
<path fill-rule="evenodd" d="M137.5,1007.3h660V982.4h-660v24.9Z" class="g0_76"/>
<path fill-rule="evenodd" d="M137.5,1032.2h660v-24.9h-660v24.9Z" class="g0_76"/>
<path fill-rule="evenodd" d="M137.5,1057.1h660v-24.9h-660v24.9Z" class="g0_76"/>
<path fill-rule="evenodd" d="M137.5,1084.3h660v-27.2h-660v27.2Z" class="g0_76"/>
<path fill-rule="evenodd" d="M137.5,1109.2h660v-24.9h-660v24.9Z" class="g0_76"/>
<path fill-rule="evenodd" d="M137.5,1134.1h660v-24.9h-660v24.9Z" class="g0_76"/>
<path fill-rule="evenodd" d="M137.5,1084.3h660v-.6h-660v.6Z" class="g1_76"/>
</svg>