<?xml version="1.0" encoding="UTF-8" standalone="no"?>
<!DOCTYPE svg PUBLIC "-//W3C//DTD SVG 1.1//EN"
"http://www.w3.org/Graphics/SVG/1.1/DTD/svg11.dtd">
<svg viewBox="0 0 935 1210" version="1.1" xmlns="http://www.w3.org/2000/svg" xmlns:xlink="http://www.w3.org/1999/xlink">
<defs>
<style type="text/css"><![CDATA[
.g0_163{
fill: #FFFFFF;
}
]]></style>
</defs>
<path fill-rule="evenodd" d="M138,159.8H797.5V110H138v49.8Z" class="g0_163"/>
<path fill-rule="evenodd" d="M138,234.5H797.5V159.8H138v74.7Z" class="g0_163"/>
<path fill-rule="evenodd" d="M138,259.4H797.5V234.5H138v24.9Z" class="g0_163"/>
<path fill-rule="evenodd" d="M138,309.2H797.5V259.4H138v49.8Z" class="g0_163"/>
<path fill-rule="evenodd" d="M138,359H797.5V309.2H138V359Z" class="g0_163"/>
<path fill-rule="evenodd" d="M138,383.9H797.5V359H138v24.9Z" class="g0_163"/>
<path fill-rule="evenodd" d="M138,408.8H797.5V383.9H138v24.9Z" class="g0_163"/>
<path fill-rule="evenodd" d="M138,433.7H797.5V408.8H138v24.9Z" class="g0_163"/>
<path fill-rule="evenodd" d="M138,458.6H797.5V433.7H138v24.9Z" class="g0_163"/>
<path fill-rule="evenodd" d="M138,508.4H797.5V458.6H138v49.8Z" class="g0_163"/>
<path fill-rule="evenodd" d="M138,533.3H797.5V508.4H138v24.9Z" class="g0_163"/>
<path fill-rule="evenodd" d="M138,558.7H797.5V533.3H138v25.4Z" class="g0_163"/>
<path fill-rule="evenodd" d="M138,583.6H797.5V558.7H138v24.9Z" class="g0_163"/>
<path fill-rule="evenodd" d="M138,633.4H797.5V583.6H138v49.8Z" class="g0_163"/>
<path fill-rule="evenodd" d="M138,807.7H797.5V633.4H138V807.7Z" class="g0_163"/>
<path fill-rule="evenodd" d="M138,832.6H797.5V807.7H138v24.9Z" class="g0_163"/>
<path fill-rule="evenodd" d="M138,882.4H797.5V832.6H138v49.8Z" class="g0_163"/>
<path fill-rule="evenodd" d="M138,907.3H797.5V882.4H138v24.9Z" class="g0_163"/>
<path fill-rule="evenodd" d="M138,932.3H797.5v-25H138v25Z" class="g0_163"/>
<path fill-rule="evenodd" d="M138,1007H797.5V932.3H138V1007Z" class="g0_163"/>
<path fill-rule="evenodd" d="M138,1056.8H797.5V1007H138v49.8Z" class="g0_163"/>
<path fill-rule="evenodd" d="M138,1081.7H797.5v-24.9H138v24.9Z" class="g0_163"/>
<path fill-rule="evenodd" d="M138,1131.5H797.5v-49.8H138v49.8Z" class="g0_163"/>
</svg>