<?xml version="1.0" encoding="UTF-8" standalone="no"?>
<!DOCTYPE svg PUBLIC "-//W3C//DTD SVG 1.1//EN"
"http://www.w3.org/Graphics/SVG/1.1/DTD/svg11.dtd">
<svg viewBox="0 0 935 1210" version="1.1" xmlns="http://www.w3.org/2000/svg" xmlns:xlink="http://www.w3.org/1999/xlink">
<defs>
<style type="text/css"><![CDATA[
.g0_8{
fill: #FFFFFF;
}
]]></style>
</defs>
<path fill-rule="evenodd" d="M137.5,157.7h660V110h-660v47.7Z" class="g0_8"/>
<path fill-rule="evenodd" d="M137.5,205.8h660V157.7h-660v48.1Z" class="g0_8"/>
<path fill-rule="evenodd" d="M137.5,229.6h660V205.8h-660v23.8Z" class="g0_8"/>
<path fill-rule="evenodd" d="M137.5,253.5h660V229.6h-660v23.9Z" class="g0_8"/>
<path fill-rule="evenodd" d="M137.5,301.1h660V253.5h-660v47.6Z" class="g0_8"/>
<path fill-rule="evenodd" d="M137.5,325.3h660V301.1h-660v24.2Z" class="g0_8"/>
<path fill-rule="evenodd" d="M137.5,372.9h660V325.3h-660v47.6Z" class="g0_8"/>
<path fill-rule="evenodd" d="M137.5,444.4h660V372.9h-660v71.5Z" class="g0_8"/>
<path fill-rule="evenodd" d="M137.5,468.3h660V444.4h-660v23.9Z" class="g0_8"/>
<path fill-rule="evenodd" d="M137.5,492.1h660V468.3h-660v23.8Z" class="g0_8"/>
<path fill-rule="evenodd" d="M137.5,539.8h660V492.1h-660v47.7Z" class="g0_8"/>
<path fill-rule="evenodd" d="M137.5,563.6h660V539.8h-660v23.8Z" class="g0_8"/>
<path fill-rule="evenodd" d="M137.5,587.4h660V563.6h-660v23.8Z" class="g0_8"/>
<path fill-rule="evenodd" d="M137.5,611.3h660V587.4h-660v23.9Z" class="g0_8"/>
<path fill-rule="evenodd" d="M137.5,635.1h660V611.3h-660v23.8Z" class="g0_8"/>
<path fill-rule="evenodd" d="M137.5,682.8h660V635.1h-660v47.7Z" class="g0_8"/>
<path fill-rule="evenodd" d="M137.5,706.6h660V682.8h-660v23.8Z" class="g0_8"/>
<path fill-rule="evenodd" d="M137.5,801.9h660V706.6h-660v95.3Z" class="g0_8"/>
<path fill-rule="evenodd" d="M137.5,825.8h660V801.9h-660v23.9Z" class="g0_8"/>
<path fill-rule="evenodd" d="M137.5,849.6h660V825.8h-660v23.8Z" class="g0_8"/>
<path fill-rule="evenodd" d="M137.5,873.4h660V849.6h-660v23.8Z" class="g0_8"/>
<path fill-rule="evenodd" d="M137.5,968.8h660V873.4h-660v95.4Z" class="g0_8"/>
<path fill-rule="evenodd" d="M137.5,992.6h660V968.8h-660v23.8Z" class="g0_8"/>
<path fill-rule="evenodd" d="M137.5,1040.3h660V992.6h-660v47.7Z" class="g0_8"/>
<path fill-rule="evenodd" d="M137.5,1064.1h660v-23.8h-660v23.8Z" class="g0_8"/>
<path fill-rule="evenodd" d="M137.5,1087.9h660v-23.8h-660v23.8Z" class="g0_8"/>
<path fill-rule="evenodd" d="M137.5,1135.6h660v-47.7h-660v47.7Z" class="g0_8"/>
</svg>