<?xml version="1.0" encoding="UTF-8" standalone="no"?>
<!DOCTYPE svg PUBLIC "-//W3C//DTD SVG 1.1//EN"
"http://www.w3.org/Graphics/SVG/1.1/DTD/svg11.dtd">
<svg viewBox="0 0 935 1210" version="1.1" xmlns="http://www.w3.org/2000/svg" xmlns:xlink="http://www.w3.org/1999/xlink">
<defs>
<style type="text/css"><![CDATA[
.g0_99{
fill: #FFFFFF;
}
.g1_99{
}
]]></style>
</defs>
<path fill-rule="evenodd" d="M137.5,134.9h660V110h-660v24.9Z" class="g0_99"/>
<path fill-rule="evenodd" d="M165,159.8H797.5V134.9H165v24.9Z" class="g0_99"/>
<path fill-rule="evenodd" d="M137.5,209.6h660V159.8h-660v49.8Z" class="g0_99"/>
<path fill-rule="evenodd" d="M165,234.5H797.5V209.6H165v24.9Z" class="g0_99"/>
<path fill-rule="evenodd" d="M138.6,259.4H797.5V234.5H138.6v24.9Z" class="g0_99"/>
<path fill-rule="evenodd" d="M165,284.3H797.5V259.4H165v24.9Z" class="g0_99"/>
<path fill-rule="evenodd" d="M165.5,309.2h632V284.3h-632v24.9Z" class="g0_99"/>
<path fill-rule="evenodd" d="M138,334.1H797.5V309.2H138v24.9Z" class="g0_99"/>
<path fill-rule="evenodd" d="M165.8,359H797.5V334.1H165.8V359Z" class="g0_99"/>
<path fill-rule="evenodd" d="M138,384.4H797.5V359H138v25.4Z" class="g0_99"/>
<path fill-rule="evenodd" d="M138,434.2H797.5V384.4H138v49.8Z" class="g0_99"/>
<path fill-rule="evenodd" d="M137.5,459.1h660V434.2h-660v24.9Z" class="g0_99"/>
<path fill-rule="evenodd" d="M138,484H797.5V459.1H138V484Z" class="g0_99"/>
<path fill-rule="evenodd" d="M165,508.9H797.5V484H165v24.9Z" class="g0_99"/>
<path fill-rule="evenodd" d="M165,533.8H797.5V508.9H165v24.9Z" class="g0_99"/>
<path fill-rule="evenodd" d="M137.5,633.4h660V533.8h-660v99.6Z" class="g0_99"/>
<path fill-rule="evenodd" d="M165.8,658.6H797.5V633.4H165.8v25.2Z" class="g0_99"/>
<path fill-rule="evenodd" d="M165.8,683.5H797.5V658.6H165.8v24.9Z" class="g0_99"/>
<path fill-rule="evenodd" d="M166.1,708.4H797.5V683.5H166.1v24.9Z" class="g0_99"/>
<path fill-rule="evenodd" d="M138,758.2H797.5V708.4H138v49.8Z" class="g0_99"/>
<path fill-rule="evenodd" d="M138,808H797.5V758.2H138V808Z" class="g0_99"/>
<path fill-rule="evenodd" d="M166.1,832.9H797.5V808H166.1v24.9Z" class="g0_99"/>
<path fill-rule="evenodd" d="M166.1,857.8H797.5V832.9H166.1v24.9Z" class="g0_99"/>
<path fill-rule="evenodd" d="M137.5,932.6h660V857.8h-660v74.8Z" class="g0_99"/>
<path fill-rule="evenodd" d="M191.4,952H797.5V932.6H191.4V952Z" class="g0_99"/>
<path fill-rule="evenodd" d="M191.4,971.2H797.5V952H191.4v19.2Z" class="g0_99"/>
<path fill-rule="evenodd" d="M191.4,992.9H797.5V971.2H191.4v21.7Z" class="g0_99"/>
<path fill-rule="evenodd" d="M191.4,1012.2H797.5V992.9H191.4v19.3Z" class="g0_99"/>
<path fill-rule="evenodd" d="M191.4,1031.6H797.5v-19.4H191.4v19.4Z" class="g0_99"/>
<path fill-rule="evenodd" d="M191.4,1050.8H797.5v-19.2H191.4v19.2Z" class="g0_99"/>
<path fill-rule="evenodd" d="M191.4,1070.2H797.5v-19.4H191.4v19.4Z" class="g0_99"/>
<path fill-rule="evenodd" d="M137.5,1094.8h660v-24.6h-660v24.6Z" class="g0_99"/>
<path fill-rule="evenodd" d="M137.5,1119.7h660v-24.9h-660v24.9Z" class="g0_99"/>
<path fill-rule="evenodd" d="M137.5,1144.6h660v-24.9h-660v24.9Z" class="g0_99"/>
<path fill-rule="evenodd" d="M191.4,992.9H797.5v-.6H191.4v.6Z" class="g1_99"/>
</svg>