<?xml version="1.0" encoding="UTF-8" standalone="no"?>
<!DOCTYPE svg PUBLIC "-//W3C//DTD SVG 1.1//EN"
"http://www.w3.org/Graphics/SVG/1.1/DTD/svg11.dtd">
<svg viewBox="0 0 935 1210" version="1.1" xmlns="http://www.w3.org/2000/svg" xmlns:xlink="http://www.w3.org/1999/xlink">
<defs>
<style type="text/css"><![CDATA[
.g0_146{
fill: #FFFFFF;
}
]]></style>
</defs>
<path fill-rule="evenodd" d="M138,209.6H797.5V110H138v99.6Z" class="g0_146"/>
<path fill-rule="evenodd" d="M138,234.5H797.5V209.6H138v24.9Z" class="g0_146"/>
<path fill-rule="evenodd" d="M138,259.4H797.5V234.5H138v24.9Z" class="g0_146"/>
<path fill-rule="evenodd" d="M138,284.8H797.5V259.4H138v25.4Z" class="g0_146"/>
<path fill-rule="evenodd" d="M138,309.7H797.5V284.8H138v24.9Z" class="g0_146"/>
<path fill-rule="evenodd" d="M138,359.5H797.5V309.7H138v49.8Z" class="g0_146"/>
<path fill-rule="evenodd" d="M138,384.4H797.5V359.5H138v24.9Z" class="g0_146"/>
<path fill-rule="evenodd" d="M138,508.9H797.5V384.4H138V508.9Z" class="g0_146"/>
<path fill-rule="evenodd" d="M138,533.8H797.5V508.9H138v24.9Z" class="g0_146"/>
<path fill-rule="evenodd" d="M138,583.6H797.5V533.8H138v49.8Z" class="g0_146"/>
<path fill-rule="evenodd" d="M138,633.4H797.5V583.6H138v49.8Z" class="g0_146"/>
<path fill-rule="evenodd" d="M138,658.3H797.5V633.4H138v24.9Z" class="g0_146"/>
<path fill-rule="evenodd" d="M138,708.1H797.5V658.3H138v49.8Z" class="g0_146"/>
<path fill-rule="evenodd" d="M138,757.9H797.5V708.1H138v49.8Z" class="g0_146"/>
<path fill-rule="evenodd" d="M138,807.7H797.5V757.9H138v49.8Z" class="g0_146"/>
<path fill-rule="evenodd" d="M138,882.4H797.5V807.7H138v74.7Z" class="g0_146"/>
<path fill-rule="evenodd" d="M138,907.3H797.5V882.4H138v24.9Z" class="g0_146"/>
<path fill-rule="evenodd" d="M138,982.1H797.5V907.3H138v74.8Z" class="g0_146"/>
<path fill-rule="evenodd" d="M138,1056.8H797.5V982.1H138v74.7Z" class="g0_146"/>
<path fill-rule="evenodd" d="M138,1081.7H797.5v-24.9H138v24.9Z" class="g0_146"/>
<path fill-rule="evenodd" d="M138,1131.5H797.5v-49.8H138v49.8Z" class="g0_146"/>
</svg>