<?xml version="1.0" encoding="UTF-8" standalone="no"?>
<!DOCTYPE svg PUBLIC "-//W3C//DTD SVG 1.1//EN"
"http://www.w3.org/Graphics/SVG/1.1/DTD/svg11.dtd">
<svg viewBox="0 0 935 1210" version="1.1" xmlns="http://www.w3.org/2000/svg" xmlns:xlink="http://www.w3.org/1999/xlink">
<defs>
<style type="text/css"><![CDATA[
.g0_82{
fill: #FFFFFF;
}
]]></style>
</defs>
<path fill-rule="evenodd" d="M138,209.6H797.5V110H138v99.6Z" class="g0_82"/>
<path fill-rule="evenodd" d="M138,234.5H797.5V209.6H138v24.9Z" class="g0_82"/>
<path fill-rule="evenodd" d="M138,309.2H797.5V234.5H138v74.7Z" class="g0_82"/>
<path fill-rule="evenodd" d="M138,408.8H797.5V309.2H138v99.6Z" class="g0_82"/>
<path fill-rule="evenodd" d="M138,458.6H797.5V408.8H138v49.8Z" class="g0_82"/>
<path fill-rule="evenodd" d="M138,508.4H797.5V458.6H138v49.8Z" class="g0_82"/>
<path fill-rule="evenodd" d="M138,533.3H797.5V508.4H138v24.9Z" class="g0_82"/>
<path fill-rule="evenodd" d="M137.5,583.6h660V533.3h-660v50.3Z" class="g0_82"/>
<path fill-rule="evenodd" d="M138,658.3H797.5V583.6H138v74.7Z" class="g0_82"/>
<path fill-rule="evenodd" d="M138,708.1H797.5V658.3H138v49.8Z" class="g0_82"/>
<path fill-rule="evenodd" d="M138,733H797.5V708.1H138V733Z" class="g0_82"/>
<path fill-rule="evenodd" d="M138,782.8H797.5V733H138v49.8Z" class="g0_82"/>
<path fill-rule="evenodd" d="M138,807.7H797.5V782.8H138v24.9Z" class="g0_82"/>
<path fill-rule="evenodd" d="M138,832.6H797.5V807.7H138v24.9Z" class="g0_82"/>
<path fill-rule="evenodd" d="M138,857.5H797.5V832.6H138v24.9Z" class="g0_82"/>
<path fill-rule="evenodd" d="M138,907.7H797.5V857.5H138v50.2Z" class="g0_82"/>
<path fill-rule="evenodd" d="M138,932.6H797.5V907.7H138v24.9Z" class="g0_82"/>
<path fill-rule="evenodd" d="M138,1007.3H797.5V932.6H138v74.7Z" class="g0_82"/>
<path fill-rule="evenodd" d="M138,1032.2H797.5v-24.9H138v24.9Z" class="g0_82"/>
<path fill-rule="evenodd" d="M138,1057.1H797.5v-24.9H138v24.9Z" class="g0_82"/>
<path fill-rule="evenodd" d="M138,1131.8H797.5v-74.7H138v74.7Z" class="g0_82"/>
</svg>