<?xml version="1.0" encoding="UTF-8" standalone="no"?>
<!DOCTYPE svg PUBLIC "-//W3C//DTD SVG 1.1//EN"
"http://www.w3.org/Graphics/SVG/1.1/DTD/svg11.dtd">
<svg viewBox="0 0 935 1210" version="1.1" xmlns="http://www.w3.org/2000/svg" xmlns:xlink="http://www.w3.org/1999/xlink">
<defs>
<style type="text/css"><![CDATA[
.g0_102{
fill: #FFFFFF;
}
]]></style>
</defs>
<path fill-rule="evenodd" d="M138,184.7H797.5V110H138v74.7Z" class="g0_102"/>
<path fill-rule="evenodd" d="M138,209.6H797.5V184.7H138v24.9Z" class="g0_102"/>
<path fill-rule="evenodd" d="M138,234.5H797.5V209.6H138v24.9Z" class="g0_102"/>
<path fill-rule="evenodd" d="M138,259.9H797.5V234.5H138v25.4Z" class="g0_102"/>
<path fill-rule="evenodd" d="M138,309.7H797.5V259.9H138v49.8Z" class="g0_102"/>
<path fill-rule="evenodd" d="M138,359.5H797.5V309.7H138v49.8Z" class="g0_102"/>
<path fill-rule="evenodd" d="M138,484.3H797.5V359.5H138V484.3Z" class="g0_102"/>
<path fill-rule="evenodd" d="M137.5,509.2h660V484.3h-660v24.9Z" class="g0_102"/>
<path fill-rule="evenodd" d="M137.5,534.1h660V509.2h-660v24.9Z" class="g0_102"/>
<path fill-rule="evenodd" d="M137.5,559h660V534.1h-660V559Z" class="g0_102"/>
<path fill-rule="evenodd" d="M137.5,583.9h660V559h-660v24.9Z" class="g0_102"/>
<path fill-rule="evenodd" d="M137.5,633.7h660V583.9h-660v49.8Z" class="g0_102"/>
<path fill-rule="evenodd" d="M137.5,658.6h660V633.7h-660v24.9Z" class="g0_102"/>
<path fill-rule="evenodd" d="M137.5,708.4h660V658.6h-660v49.8Z" class="g0_102"/>
<path fill-rule="evenodd" d="M137.5,758.2h660V708.4h-660v49.8Z" class="g0_102"/>
<path fill-rule="evenodd" d="M137.5,783.1h660V758.2h-660v24.9Z" class="g0_102"/>
<path fill-rule="evenodd" d="M137.5,808h660V783.1h-660V808Z" class="g0_102"/>
<path fill-rule="evenodd" d="M137.5,857.8h660V808h-660v49.8Z" class="g0_102"/>
<path fill-rule="evenodd" d="M137.5,932.6h660V857.8h-660v74.8Z" class="g0_102"/>
<path fill-rule="evenodd" d="M137.5,957.5h660V932.6h-660v24.9Z" class="g0_102"/>
<path fill-rule="evenodd" d="M137.5,982.4h660V957.5h-660v24.9Z" class="g0_102"/>
<path fill-rule="evenodd" d="M137.5,1007.3h660V982.4h-660v24.9Z" class="g0_102"/>
<path fill-rule="evenodd" d="M137.5,1057.1h660v-49.8h-660v49.8Z" class="g0_102"/>
<path fill-rule="evenodd" d="M137.5,1082h660v-24.9h-660V1082Z" class="g0_102"/>
<path fill-rule="evenodd" d="M137.5,1106.9h660V1082h-660v24.9Z" class="g0_102"/>
<path fill-rule="evenodd" d="M137.5,1131.8h660v-24.9h-660v24.9Z" class="g0_102"/>
</svg>