<?xml version="1.0" encoding="UTF-8" standalone="no"?>
<!DOCTYPE svg PUBLIC "-//W3C//DTD SVG 1.1//EN"
"http://www.w3.org/Graphics/SVG/1.1/DTD/svg11.dtd">
<svg viewBox="0 0 935 1210" version="1.1" xmlns="http://www.w3.org/2000/svg" xmlns:xlink="http://www.w3.org/1999/xlink">
<defs>
<style type="text/css"><![CDATA[
.g0_133{
fill: #FFFFFF;
}
]]></style>
</defs>
<path fill-rule="evenodd" d="M138.6,134.9H797.5V110H138.6v24.9Z" class="g0_133"/>
<path fill-rule="evenodd" d="M137.5,185.2h660V134.9h-660v50.3Z" class="g0_133"/>
<path fill-rule="evenodd" d="M137.5,235.3h660V185.2h-660v50.1Z" class="g0_133"/>
<path fill-rule="evenodd" d="M137.5,260.2h660V235.3h-660v24.9Z" class="g0_133"/>
<path fill-rule="evenodd" d="M137.5,285.1h660V260.2h-660v24.9Z" class="g0_133"/>
<path fill-rule="evenodd" d="M137.5,310h660V285.1h-660V310Z" class="g0_133"/>
<path fill-rule="evenodd" d="M137.5,334.9h660V310h-660v24.9Z" class="g0_133"/>
<path fill-rule="evenodd" d="M137.5,359.8h660V334.9h-660v24.9Z" class="g0_133"/>
<path fill-rule="evenodd" d="M137.5,384.7h660V359.8h-660v24.9Z" class="g0_133"/>
<path fill-rule="evenodd" d="M137.5,434.5h660V384.7h-660v49.8Z" class="g0_133"/>
<path fill-rule="evenodd" d="M137.5,484.3h660V434.5h-660v49.8Z" class="g0_133"/>
<path fill-rule="evenodd" d="M137.5,534.1h660V484.3h-660v49.8Z" class="g0_133"/>
<path fill-rule="evenodd" d="M137.5,584.7h660V534.1h-660v50.6Z" class="g0_133"/>
<path fill-rule="evenodd" d="M138.3,734.1H797.5V584.7H138.3V734.1Z" class="g0_133"/>
<path fill-rule="evenodd" d="M137.5,783.9h660V734.1h-660v49.8Z" class="g0_133"/>
<path fill-rule="evenodd" d="M137.5,809.3h660V783.9h-660v25.4Z" class="g0_133"/>
<path fill-rule="evenodd" d="M137.5,834.2h660V809.3h-660v24.9Z" class="g0_133"/>
<path fill-rule="evenodd" d="M137.5,884h660V834.2h-660V884Z" class="g0_133"/>
<path fill-rule="evenodd" d="M137.5,908.9h660V884h-660v24.9Z" class="g0_133"/>
<path fill-rule="evenodd" d="M137.5,933.8h660V908.9h-660v24.9Z" class="g0_133"/>
<path fill-rule="evenodd" d="M137.5,983.6h660V933.8h-660v49.8Z" class="g0_133"/>
<path fill-rule="evenodd" d="M137.5,1008.5h660V983.6h-660v24.9Z" class="g0_133"/>
<path fill-rule="evenodd" d="M137.5,1133.3h660V1008.5h-660v124.8Z" class="g0_133"/>
</svg>