<?xml version="1.0" encoding="UTF-8" standalone="no"?>
<!DOCTYPE svg PUBLIC "-//W3C//DTD SVG 1.1//EN"
"http://www.w3.org/Graphics/SVG/1.1/DTD/svg11.dtd">
<svg viewBox="0 0 935 1210" version="1.1" xmlns="http://www.w3.org/2000/svg" xmlns:xlink="http://www.w3.org/1999/xlink">
<defs>
<style type="text/css"><![CDATA[
.g0_180{
fill: #FFFFFF;
}
]]></style>
</defs>
<path fill-rule="evenodd" d="M138,134.9H797.5V110H138v24.9Z" class="g0_180"/>
<path fill-rule="evenodd" d="M138,159.8H797.5V134.9H138v24.9Z" class="g0_180"/>
<path fill-rule="evenodd" d="M138,209.6H797.5V159.8H138v49.8Z" class="g0_180"/>
<path fill-rule="evenodd" d="M138,259.4H797.5V209.6H138v49.8Z" class="g0_180"/>
<path fill-rule="evenodd" d="M138,309.2H797.5V259.4H138v49.8Z" class="g0_180"/>
<path fill-rule="evenodd" d="M138,334.1H797.5V309.2H138v24.9Z" class="g0_180"/>
<path fill-rule="evenodd" d="M138,359H797.5V334.1H138V359Z" class="g0_180"/>
<path fill-rule="evenodd" d="M138,408.8H797.5V359H138v49.8Z" class="g0_180"/>
<path fill-rule="evenodd" d="M138,459.1H797.5V408.8H138v50.3Z" class="g0_180"/>
<path fill-rule="evenodd" d="M138,484H797.5V459.1H138V484Z" class="g0_180"/>
<path fill-rule="evenodd" d="M138,508.9H797.5V484H138v24.9Z" class="g0_180"/>
<path fill-rule="evenodd" d="M138,533.8H797.5V508.9H138v24.9Z" class="g0_180"/>
<path fill-rule="evenodd" d="M138,558.7H797.5V533.8H138v24.9Z" class="g0_180"/>
<path fill-rule="evenodd" d="M138,583.6H797.5V558.7H138v24.9Z" class="g0_180"/>
<path fill-rule="evenodd" d="M138,658.3H797.5V583.6H138v74.7Z" class="g0_180"/>
<path fill-rule="evenodd" d="M138,757.9H797.5V658.3H138v99.6Z" class="g0_180"/>
<path fill-rule="evenodd" d="M138,857.5H797.5V757.9H138v99.6Z" class="g0_180"/>
<path fill-rule="evenodd" d="M138,907.3H797.5V857.5H138v49.8Z" class="g0_180"/>
<path fill-rule="evenodd" d="M138,932.3H797.5v-25H138v25Z" class="g0_180"/>
<path fill-rule="evenodd" d="M138,982.1H797.5V932.3H138v49.8Z" class="g0_180"/>
<path fill-rule="evenodd" d="M138,1031.9H797.5V982.1H138v49.8Z" class="g0_180"/>
<path fill-rule="evenodd" d="M138,1056.8H797.5v-24.9H138v24.9Z" class="g0_180"/>
<path fill-rule="evenodd" d="M138,1106.9H797.5v-50.1H138v50.1Z" class="g0_180"/>
<path fill-rule="evenodd" d="M138,1131.8H797.5v-24.9H138v24.9Z" class="g0_180"/>
</svg>