<?xml version="1.0" encoding="UTF-8" standalone="no"?>
<!DOCTYPE svg PUBLIC "-//W3C//DTD SVG 1.1//EN"
"http://www.w3.org/Graphics/SVG/1.1/DTD/svg11.dtd">
<svg viewBox="0 0 935 1210" version="1.1" xmlns="http://www.w3.org/2000/svg" xmlns:xlink="http://www.w3.org/1999/xlink">
<defs>
<style type="text/css"><![CDATA[
.g0_64{
fill: #FFFFFF;
}
]]></style>
</defs>
<path fill-rule="evenodd" d="M137.5,134.9h660V110h-660v24.9Z" class="g0_64"/>
<path fill-rule="evenodd" d="M137.5,209.6h660V134.9h-660v74.7Z" class="g0_64"/>
<path fill-rule="evenodd" d="M137.5,284.3h660V209.6h-660v74.7Z" class="g0_64"/>
<path fill-rule="evenodd" d="M138,408.8H797.5V284.3H138V408.8Z" class="g0_64"/>
<path fill-rule="evenodd" d="M138,433.7H797.5V408.8H138v24.9Z" class="g0_64"/>
<path fill-rule="evenodd" d="M138,483.5H797.5V433.7H138v49.8Z" class="g0_64"/>
<path fill-rule="evenodd" d="M138,583.2H797.5V483.5H138v99.7Z" class="g0_64"/>
<path fill-rule="evenodd" d="M138,608.1H797.5V583.2H138v24.9Z" class="g0_64"/>
<path fill-rule="evenodd" d="M138,732.6H797.5V608.1H138V732.6Z" class="g0_64"/>
<path fill-rule="evenodd" d="M165,757.5H797.5V732.6H165v24.9Z" class="g0_64"/>
<path fill-rule="evenodd" d="M138,807.3H797.5V757.5H138v49.8Z" class="g0_64"/>
<path fill-rule="evenodd" d="M165.8,832.2H797.5V807.3H165.8v24.9Z" class="g0_64"/>
<path fill-rule="evenodd" d="M138,882H797.5V832.2H138V882Z" class="g0_64"/>
<path fill-rule="evenodd" d="M138.3,956.7H797.5V882H138.3v74.7Z" class="g0_64"/>
<path fill-rule="evenodd" d="M138,981.6H797.5V956.7H138v24.9Z" class="g0_64"/>
<path fill-rule="evenodd" d="M166.5,1006.5h631V981.6h-631v24.9Z" class="g0_64"/>
<path fill-rule="evenodd" d="M138,1056.3H797.5v-49.8H138v49.8Z" class="g0_64"/>
<path fill-rule="evenodd" d="M138,1081.2H797.5v-24.9H138v24.9Z" class="g0_64"/>
<path fill-rule="evenodd" d="M166.5,1106.1h631v-24.9h-631v24.9Z" class="g0_64"/>
<path fill-rule="evenodd" d="M166.1,1131H797.5v-24.9H166.1V1131Z" class="g0_64"/>
</svg>