<?xml version="1.0" encoding="UTF-8" standalone="no"?>
<!DOCTYPE svg PUBLIC "-//W3C//DTD SVG 1.1//EN"
"http://www.w3.org/Graphics/SVG/1.1/DTD/svg11.dtd">
<svg viewBox="0 0 935 1210" version="1.1" xmlns="http://www.w3.org/2000/svg" xmlns:xlink="http://www.w3.org/1999/xlink">
<defs>
<style type="text/css"><![CDATA[
.g0_174{
fill: #FFFFFF;
}
]]></style>
</defs>
<path fill-rule="evenodd" d="M137.5,159.8h660V110h-660v49.8Z" class="g0_174"/>
<path fill-rule="evenodd" d="M137.5,184.7h660V159.8h-660v24.9Z" class="g0_174"/>
<path fill-rule="evenodd" d="M137.5,209.6h660V184.7h-660v24.9Z" class="g0_174"/>
<path fill-rule="evenodd" d="M137.5,234.5h660V209.6h-660v24.9Z" class="g0_174"/>
<path fill-rule="evenodd" d="M137.5,259.4h660V234.5h-660v24.9Z" class="g0_174"/>
<path fill-rule="evenodd" d="M137.5,284.3h660V259.4h-660v24.9Z" class="g0_174"/>
<path fill-rule="evenodd" d="M137.5,309.2h660V284.3h-660v24.9Z" class="g0_174"/>
<path fill-rule="evenodd" d="M137.5,359h660V309.2h-660V359Z" class="g0_174"/>
<path fill-rule="evenodd" d="M137.5,383.9h660V359h-660v24.9Z" class="g0_174"/>
<path fill-rule="evenodd" d="M137.5,433.7h660V383.9h-660v49.8Z" class="g0_174"/>
<path fill-rule="evenodd" d="M137.5,458.6h660V433.7h-660v24.9Z" class="g0_174"/>
<path fill-rule="evenodd" d="M137.5,483.5h660V458.6h-660v24.9Z" class="g0_174"/>
<path fill-rule="evenodd" d="M137.5,583.6h660V483.5h-660V583.6Z" class="g0_174"/>
<path fill-rule="evenodd" d="M137.5,608.5h660V583.6h-660v24.9Z" class="g0_174"/>
<path fill-rule="evenodd" d="M137.5,633.4h660V608.5h-660v24.9Z" class="g0_174"/>
<path fill-rule="evenodd" d="M137.5,683.2h660V633.4h-660v49.8Z" class="g0_174"/>
<path fill-rule="evenodd" d="M137.5,733h660V683.2h-660V733Z" class="g0_174"/>
<path fill-rule="evenodd" d="M137.5,757.9h660V733h-660v24.9Z" class="g0_174"/>
<path fill-rule="evenodd" d="M137.5,832.6h660V757.9h-660v74.7Z" class="g0_174"/>
<path fill-rule="evenodd" d="M137.5,907.3h660V832.6h-660v74.7Z" class="g0_174"/>
<path fill-rule="evenodd" d="M137.5,932.3h660v-25h-660v25Z" class="g0_174"/>
<path fill-rule="evenodd" d="M137.5,1031.9h660V932.3h-660v99.6Z" class="g0_174"/>
<path fill-rule="evenodd" d="M137.5,1056.8h660v-24.9h-660v24.9Z" class="g0_174"/>
<path fill-rule="evenodd" d="M137.5,1081.7h660v-24.9h-660v24.9Z" class="g0_174"/>
<path fill-rule="evenodd" d="M137.5,1106.6h660v-24.9h-660v24.9Z" class="g0_174"/>
<path fill-rule="evenodd" d="M137.5,1131.5h660v-24.9h-660v24.9Z" class="g0_174"/>
</svg>