<?xml version="1.0" encoding="UTF-8" standalone="no"?>
<!DOCTYPE svg PUBLIC "-//W3C//DTD SVG 1.1//EN"
"http://www.w3.org/Graphics/SVG/1.1/DTD/svg11.dtd">
<svg viewBox="0 0 935 1210" version="1.1" xmlns="http://www.w3.org/2000/svg" xmlns:xlink="http://www.w3.org/1999/xlink">
<defs>
<style type="text/css"><![CDATA[
.g0_93{
fill: #FFFFFF;
}
]]></style>
</defs>
<path fill-rule="evenodd" d="M137.5,159.8h660V110h-660v49.8Z" class="g0_93"/>
<path fill-rule="evenodd" d="M137.5,235h660V159.8h-660V235Z" class="g0_93"/>
<path fill-rule="evenodd" d="M137.5,259.9h660V235h-660v24.9Z" class="g0_93"/>
<path fill-rule="evenodd" d="M137.5,284.8h660V259.9h-660v24.9Z" class="g0_93"/>
<path fill-rule="evenodd" d="M137.5,309.7h660V284.8h-660v24.9Z" class="g0_93"/>
<path fill-rule="evenodd" d="M137.5,334.6h660V309.7h-660v24.9Z" class="g0_93"/>
<path fill-rule="evenodd" d="M137.5,359.8h660V334.6h-660v25.2Z" class="g0_93"/>
<path fill-rule="evenodd" d="M137.5,384.7h660V359.8h-660v24.9Z" class="g0_93"/>
<path fill-rule="evenodd" d="M137.5,409.6h660V384.7h-660v24.9Z" class="g0_93"/>
<path fill-rule="evenodd" d="M137.5,434.5h660V409.6h-660v24.9Z" class="g0_93"/>
<path fill-rule="evenodd" d="M137.5,484.8h660V434.5h-660v50.3Z" class="g0_93"/>
<path fill-rule="evenodd" d="M137.5,559.5h660V484.8h-660v74.7Z" class="g0_93"/>
<path fill-rule="evenodd" d="M137.5,584.4h660V559.5h-660v24.9Z" class="g0_93"/>
<path fill-rule="evenodd" d="M137.5,634.2h660V584.4h-660v49.8Z" class="g0_93"/>
<path fill-rule="evenodd" d="M137.5,659.1h660V634.2h-660v24.9Z" class="g0_93"/>
<path fill-rule="evenodd" d="M137.5,708.9h660V659.1h-660v49.8Z" class="g0_93"/>
<path fill-rule="evenodd" d="M137.5,733.8h660V708.9h-660v24.9Z" class="g0_93"/>
<path fill-rule="evenodd" d="M137.5,783.9h660V733.8h-660v50.1Z" class="g0_93"/>
<path fill-rule="evenodd" d="M137.5,808.8h660V783.9h-660v24.9Z" class="g0_93"/>
<path fill-rule="evenodd" d="M137.5,834.2h660V808.8h-660v25.4Z" class="g0_93"/>
<path fill-rule="evenodd" d="M137.5,859.1h660V834.2h-660v24.9Z" class="g0_93"/>
<path fill-rule="evenodd" d="M137.5,909.2h660V859.1h-660v50.1Z" class="g0_93"/>
<path fill-rule="evenodd" d="M137.5,959h660V909.2h-660V959Z" class="g0_93"/>
<path fill-rule="evenodd" d="M137.5,1008.8h660V959h-660v49.8Z" class="g0_93"/>
<path fill-rule="evenodd" d="M137.5,1058.6h660v-49.8h-660v49.8Z" class="g0_93"/>
<path fill-rule="evenodd" d="M137.5,1108.4h660v-49.8h-660v49.8Z" class="g0_93"/>
<path fill-rule="evenodd" d="M137.5,1133.3h660v-24.9h-660v24.9Z" class="g0_93"/>
</svg>