<?xml version="1.0" encoding="UTF-8" standalone="no"?>
<!DOCTYPE svg PUBLIC "-//W3C//DTD SVG 1.1//EN"
"http://www.w3.org/Graphics/SVG/1.1/DTD/svg11.dtd">
<svg viewBox="0 0 935 1210" version="1.1" xmlns="http://www.w3.org/2000/svg" xmlns:xlink="http://www.w3.org/1999/xlink">
<defs>
<style type="text/css"><![CDATA[
.g0_2{
fill: #FFFFFF;
}
.g1_2{
fill: none;
stroke: #000000;
stroke-width: 1.222;
stroke-linecap: butt;
stroke-linejoin: miter;
}
.g2_2{
fill: none;
stroke: #0000FF;
stroke-width: 1.375;
stroke-linecap: butt;
stroke-linejoin: miter;
}
.g3_2{
}
]]></style>
</defs>
<path fill-rule="evenodd" d="M137.5,141.6h660V110h-660v31.6Z" class="g0_2"/>
<path fill-rule="evenodd" d="M137.5,173.3h660V141.6h-660v31.7Z" class="g0_2"/>
<path fill-rule="evenodd" d="M137.5,191h660V173.3h-660V191Z" class="g0_2"/>
<path fill-rule="evenodd" d="M137.5,219.1h660V191h-660v28.1Z" class="g0_2"/>
<path fill-rule="evenodd" d="M137.5,247.2h660V219.1h-660v28.1Z" class="g0_2"/>
<path fill-rule="evenodd" d="M137.5,275.3h660V247.2h-660v28.1Z" class="g0_2"/>
<path fill-rule="evenodd" d="M137.5,303.4h660V275.3h-660v28.1Z" class="g0_2"/>
<path fill-rule="evenodd" d="M137.5,331.5h660V303.4h-660v28.1Z" class="g0_2"/>
<path fill-rule="evenodd" d="M137.5,391.6h660V367.4h-660v24.2Z" class="g0_2"/>
<path fill-rule="evenodd" d="M137.5,416.6h660v-25h-660v25Z" class="g0_2"/>
<path fill-rule="evenodd" d="M137.5,441.5h660V416.6h-660v24.9Z" class="g0_2"/>
<path fill-rule="evenodd" d="M137.5,466.6h660V441.5h-660v25.1Z" class="g0_2"/>
<path fill-rule="evenodd" d="M137.5,491.5h660V466.6h-660v24.9Z" class="g0_2"/>
<path fill-rule="evenodd" d="M137.5,516.5h660v-25h-660v25Z" class="g0_2"/>
<path fill-rule="evenodd" d="M137.5,541.4h660V516.5h-660v24.9Z" class="g0_2"/>
<path fill-rule="evenodd" d="M137.5,566.5h660V541.4h-660v25.1Z" class="g0_2"/>
<path fill-rule="evenodd" d="M137.5,591.4h660V566.5h-660v24.9Z" class="g0_2"/>
<path fill-rule="evenodd" d="M137.5,616.5h660V591.4h-660v25.1Z" class="g0_2"/>
<path fill-rule="evenodd" d="M137.5,641.4h660V616.5h-660v24.9Z" class="g0_2"/>
<path fill-rule="evenodd" d="M137.5,666.7h660V641.4h-660v25.3Z" class="g0_2"/>
<path fill-rule="evenodd" d="M137.5,691.3h660V666.7h-660v24.6Z" class="g0_2"/>
<path fill-rule="evenodd" d="M137.5,716.2h660V691.3h-660v24.9Z" class="g0_2"/>
<path fill-rule="evenodd" d="M137.5,741.1h660V716.2h-660v24.9Z" class="g0_2"/>
<path fill-rule="evenodd" d="M137.5,765.7h660V741.1h-660v24.6Z" class="g0_2"/>
<path fill-rule="evenodd" d="M137.5,790.8h660V765.7h-660v25.1Z" class="g0_2"/>
<path fill-rule="evenodd" d="M137.5,840.3h660V815.4h-660v24.9Z" class="g0_2"/>
<path fill-rule="evenodd" d="M137.5,865.2h660V840.3h-660v24.9Z" class="g0_2"/>
<path fill-rule="evenodd" d="M137.5,890.2h660v-25h-660v25Z" class="g0_2"/>
<path fill-rule="evenodd" d="M137.5,915.1h660V890.2h-660v24.9Z" class="g0_2"/>
<path fill-rule="evenodd" d="M138,964.6H797.5V939.7H138v24.9Z" class="g0_2"/>
<path fill-rule="evenodd" d="M137.5,1014.1h660V990h-660v24.1Z" class="g0_2"/>
<path fill-rule="evenodd" d="M137.5,1039.2h660v-25.1h-660v25.1Z" class="g0_2"/>
<path fill-rule="evenodd" d="M137.5,1066.4h660v-27.2h-660v27.2Z" class="g0_2"/>
<path fill-rule="evenodd" d="M137.5,1091.4h660v-25h-660v25Z" class="g0_2"/>
<path fill-rule="evenodd" d="M137.5,1116.3h660v-24.9h-660v24.9Z" class="g0_2"/>
<path fill-rule="evenodd" d="M137.5,1141.4h660v-25.1h-660v25.1Z" class="g0_2"/>
<path d="M137.7,413.6h82" class="g1_2"/>
<path d="M137.7,463.8H738.8M137.5,488.7h16m0,0H406.8m0,0H631.9m0,0h.1M137.5,513.8h16m0,0H402.1m0,0h65.4m0,0h5.3m0,0H580.4M137.5,538.7h16m0,0H584.8M137.5,563.8h10.7m0,0H490.4M137.5,588.7h10.7m0,0h5.3m0,0h13.8m0,0H631.1m-493.6,25h10.7m0,0h328M137.5,638.6h10.7m0,0H371.6M137.5,663.7h10.7m0,0H396M137.5,688.9h21.4m0,0H489.2M137.5,713.5h21.4m0,0h5.3m0,0h38.7m0,0H603.2M137.5,738.2h21.4m0,0H507.1M137.5,763.3h21.4m0,0h5.3m0,0H412.5M137.5,788h21.4m0,0H292m0,0H465.1m0,0h1M137.5,812.9h21.4m0,0h5.3m0,0h155m0,0h3m0,0H490.6m.1,0h.9M137.5,837.4h21.4m0,0H395.4m0,0h71.3m-329.2,25h21.4m0,0h5.3m0,0H309.8m0,0H446M137.5,887.5h21.4m0,0H560.5m-423,24.7h21.4m0,0H523.7M137.5,937.3h21.4m0,0h5.3m0,0H301.3m0,0H455.9m0,0h.6M138,961.7h21.3m0,0H342.2M137.5,986.8H328.3m0,0H459.1m0,0h.5" class="g2_2"/>
<path fill-rule="evenodd" d="M137.5,1066.4h660v-.6h-660v.6Z" class="g3_2"/>
</svg>